<svg width="166" height="70" viewBox="0 0 166 70" fill="none" xmlns="http://www.w3.org/2000/svg">
<path d="M24.4761 14.926C28.0761 14.926 31.3401 15.766 34.2681 17.446C37.2441 19.078 39.5721 21.406 41.2521 24.43C42.9321 27.406 43.7721 30.886 43.7721 34.87C43.7721 38.854 42.9321 42.358 41.2521 45.382C39.5721 48.358 37.2441 50.686 34.2681 52.366C31.3401 53.998 28.0761 54.814 24.4761 54.814C19.1481 54.814 15.0921 53.134 12.3081 49.774V54.238H1.58008V0.813965H12.8121V19.606C15.6441 16.486 19.5321 14.926 24.4761 14.926ZM22.5321 45.598C25.4121 45.598 27.7641 44.638 29.5881 42.718C31.4601 40.75 32.3961 38.134 32.3961 34.87C32.3961 31.606 31.4601 29.014 29.5881 27.094C27.7641 25.126 25.4121 24.142 22.5321 24.142C19.6521 24.142 17.2761 25.126 15.4041 27.094C13.5801 29.014 12.6681 31.606 12.6681 34.87C12.6681 38.134 13.5801 40.75 15.4041 42.718C17.2761 44.638 19.6521 45.598 22.5321 45.598Z" stroke="white" stroke-width="1.5"/>
<path d="M52.731 0.813965H63.963V54.238H52.731V0.813965Z" stroke="white" stroke-width="1.5"/>
<path d="M94.2593 54.814C90.1793 54.814 86.5073 53.974 83.2433 52.294C80.0273 50.566 77.5073 48.19 75.6833 45.166C73.8593 42.142 72.9473 38.71 72.9473 34.87C72.9473 31.03 73.8593 27.598 75.6833 24.574C77.5073 21.55 80.0273 19.198 83.2433 17.518C86.5073 15.79 90.1793 14.926 94.2593 14.926C98.3393 14.926 101.987 15.79 105.203 17.518C108.419 19.198 110.939 21.55 112.763 24.574C114.587 27.598 115.499 31.03 115.499 34.87C115.499 38.71 114.587 42.142 112.763 45.166C110.939 48.19 108.419 50.566 105.203 52.294C101.987 53.974 98.3393 54.814 94.2593 54.814ZM94.2593 45.598C97.1393 45.598 99.4913 44.638 101.315 42.718C103.187 40.75 104.123 38.134 104.123 34.87C104.123 31.606 103.187 29.014 101.315 27.094C99.4913 25.126 97.1393 24.142 94.2593 24.142C91.3793 24.142 89.0033 25.126 87.1313 27.094C85.2593 29.014 84.3233 31.606 84.3233 34.87C84.3233 38.134 85.2593 40.75 87.1313 42.718C89.0033 44.638 91.3793 45.598 94.2593 45.598Z" stroke="white" stroke-width="1.5"/>
<path d="M164.407 15.502V47.758C164.407 54.862 162.559 60.142 158.863 63.598C155.167 67.054 149.767 68.782 142.663 68.782C138.919 68.782 135.367 68.326 132.007 67.414C128.647 66.502 125.863 65.182 123.655 63.454L128.119 55.39C129.751 56.734 131.815 57.79 134.311 58.558C136.807 59.374 139.303 59.782 141.799 59.782C145.687 59.782 148.543 58.894 150.367 57.118C152.239 55.39 153.175 52.75 153.175 49.198V47.542C150.247 50.758 146.167 52.366 140.935 52.366C137.383 52.366 134.119 51.598 131.143 50.062C128.215 48.478 125.887 46.27 124.159 43.438C122.431 40.606 121.567 37.342 121.567 33.646C121.567 29.95 122.431 26.686 124.159 23.854C125.887 21.022 128.215 18.838 131.143 17.302C134.119 15.718 137.383 14.926 140.935 14.926C146.551 14.926 150.823 16.774 153.751 20.47V15.502H164.407ZM143.167 43.15C146.143 43.15 148.567 42.286 150.439 40.558C152.359 38.782 153.319 36.478 153.319 33.646C153.319 30.814 152.359 28.534 150.439 26.806C148.567 25.03 146.143 24.142 143.167 24.142C140.191 24.142 137.743 25.03 135.823 26.806C133.903 28.534 132.943 30.814 132.943 33.646C132.943 36.478 133.903 38.782 135.823 40.558C137.743 42.286 140.191 43.15 143.167 43.15Z" stroke="white" stroke-width="1.5"/>
</svg>
