<svg width="17" height="15" viewBox="0 0 17 15" fill="none" xmlns="http://www.w3.org/2000/svg">
<path d="M15.7818 1.65038C14.1679 0.0364624 11.5507 0.0364624 9.93684 1.65038L1.90038 9.68679C0.689456 10.8977 0.689456 12.8598 1.90038 14.0708C2.89847 15.0689 4.40389 15.23 5.58074 14.5822C5.70368 14.576 5.82457 14.5295 5.91861 14.4365L13.955 6.40013C14.762 5.59319 14.762 4.28512 13.955 3.47818C13.1481 2.67125 11.84 2.67125 11.0331 3.47818L4.45762 10.0536C4.25612 10.2551 4.25612 10.5826 4.45762 10.7841C4.65911 10.9856 4.98664 10.9856 5.18809 10.7841L11.7636 4.20866C12.1676 3.80467 12.8216 3.80467 13.2246 4.20866C13.6285 4.61265 13.6285 5.26666 13.2246 5.66965L5.55285 13.3413C4.74592 14.1482 3.43784 14.1482 2.6309 13.3413C1.82397 12.5344 1.82397 11.2263 2.6309 10.4194L10.6673 2.38085C11.8782 1.16993 13.8403 1.16993 15.0513 2.38085C16.2622 3.59178 16.2622 5.55387 15.0513 6.76484L7.74537 14.0708C7.54388 14.2723 7.54388 14.5998 7.74537 14.8013C7.94687 15.0027 8.2744 15.0027 8.47585 14.8013L15.7818 7.49532C17.3957 5.88145 17.3957 3.26429 15.7818 1.65038Z" fill="#78B539"/>
</svg>
