<svg width="93" height="93" viewBox="0 0 93 93" fill="none" xmlns="http://www.w3.org/2000/svg">
<g clip-path="url(#clip0)">
<path d="M22.3852 34.7069L57.566 69.8878C57.936 70.2578 57.8009 70.8864 57.3116 71.0717L1.51101 92.1978C0.613694 92.5375 -0.264517 91.6593 0.075197 90.762L21.2011 34.9616C21.3866 34.4721 22.0152 34.337 22.3852 34.7069Z" fill="#FFAC46"/>
<path d="M1.83144 86.1236L0.0753772 90.7619C-0.264698 91.6601 0.612793 92.5378 1.51119 92.1977L57.3116 71.0718C57.8011 70.8865 57.936 70.2579 57.566 69.8879L53.9809 66.303L1.83144 86.1236Z" fill="#FF941D"/>
<path d="M47.4359 74.8112L41.7195 76.9742L15.2983 50.5531L17.4613 44.8367L47.4359 74.8112Z" fill="#00E2FF"/>
<path d="M47.4357 74.8114L41.7193 76.9744L37.3638 72.6189L43.0728 70.4485L47.4357 74.8114Z" fill="#00B5FF"/>
<path d="M41.4087 45.8577C40.2 45.8577 39.0882 45.0618 38.7404 43.8412C38.3201 42.3663 39.1746 40.8295 40.6489 40.4091C41.683 40.1143 42.7344 39.127 43.4616 37.7682C44.4265 35.9651 44.6668 33.8404 44.1045 32.0853C43.6678 30.7223 42.3138 28.9824 40.8803 27.1404C38.9594 24.6721 36.7821 21.8744 35.8711 18.7229C34.6056 14.3462 33.6636 7.9551 40.0665 3.00536C44.555 -0.464409 50.0056 -0.924691 56.7305 1.59839C58.1659 2.13706 58.8933 3.73778 58.3548 5.17377C57.8163 6.61012 56.2165 7.33713 54.7807 6.79899C49.8722 4.95732 46.3812 5.14295 43.4611 7.40039C40.4705 9.71225 39.8378 12.4539 41.2042 17.1797C41.8187 19.3052 43.5687 21.5538 45.2611 23.7283C47.006 25.9706 48.6541 28.0884 49.3916 30.3903C50.4187 33.5961 50.0415 37.2407 48.3566 40.3895C46.913 43.0872 44.6586 45.0413 42.1713 45.7506C41.917 45.8231 41.6607 45.8577 41.4087 45.8577Z" fill="#FB1E43"/>
<path d="M53.8364 58.9466C53.4783 58.9466 53.1145 58.877 52.7636 58.7301C51.3471 58.137 50.6795 56.5078 51.2726 55.0911C53.132 50.65 55.8259 48.202 59.5087 47.6073C62.5416 47.1175 65.6352 47.9932 68.9109 48.92C74.0077 50.3622 78.8219 51.7243 83.7749 48.4884C87.4337 46.0982 86.8222 40.8617 86.4149 39.9197C85.7398 38.5403 86.314 36.8822 87.6936 36.2071C89.0726 35.5319 90.7418 36.1104 91.4171 37.4898C92.7522 40.2176 93.3442 48.8798 86.8168 53.1442C79.7439 57.7647 72.8979 55.8277 67.3971 54.2713C60.9185 52.4381 58.5677 52.0676 56.4028 57.2388C55.9562 58.3048 54.9235 58.9466 53.8364 58.9466Z" fill="#00E2FF"/>
<path d="M59.132 39.6383C57.953 39.6385 56.8582 38.8841 56.4803 37.7017C56.0122 36.2376 56.8203 34.6717 58.2853 34.204C65.0639 32.0397 67.3473 31.3107 71.2985 21.3677C76.035 9.449 84.9063 4.53261 85.2815 4.32914C86.6341 3.59636 88.3238 4.09755 89.0571 5.4483C89.7887 6.79617 89.2912 8.48086 87.9461 9.21634C87.8208 9.28644 80.4188 13.4962 76.4746 23.4218C74.1822 29.191 72.1925 32.4869 69.6071 34.7978C66.9671 37.1578 63.9516 38.2377 59.9799 39.5057C59.6984 39.5955 59.413 39.6383 59.132 39.6383Z" fill="#FFDD5C"/>
<path d="M19.4012 22.3476L14.9377 17.8841C14.6477 17.5942 14.6477 17.124 14.9377 16.8338L19.4012 12.3703C19.6912 12.0803 20.1614 12.0803 20.4515 12.3703L24.915 16.8338C25.205 17.1238 25.205 17.594 24.915 17.8841L20.4515 22.3476C20.1616 22.6376 19.6912 22.6376 19.4012 22.3476Z" fill="#FFAC46"/>
<path d="M59.6 23.2726L53.4418 21.8865C53.0417 21.7964 52.7903 21.3991 52.8804 20.999L54.2664 14.8407C54.3565 14.4406 54.7539 14.1892 55.154 14.2793L61.3123 15.6654C61.7124 15.7555 61.9638 16.1529 61.8737 16.5529L60.4876 22.7112C60.3975 23.1113 60.0001 23.3627 59.6 23.2726Z" fill="#00E2FF"/>
<path d="M91.088 25.3059L85.771 28.7083C85.4255 28.9294 84.9663 28.8285 84.7452 28.483L81.3428 23.166C81.1217 22.8205 81.2226 22.3613 81.5681 22.1402L86.8851 18.7378C87.2306 18.5167 87.6898 18.6176 87.9109 18.9631L91.3133 24.2801C91.5342 24.6254 91.4335 25.0848 91.088 25.3059Z" fill="#FB1E43"/>
<path d="M72.2243 71.9478L70.9905 65.757C70.9104 65.3548 71.1715 64.9637 71.5737 64.8835L77.7645 63.6497C78.1667 63.5695 78.5578 63.8307 78.638 64.2329L79.8718 70.4237C79.952 70.8259 79.6908 71.217 79.2886 71.2972L73.0979 72.531C72.6956 72.6113 72.3045 72.35 72.2243 71.9478Z" fill="#FFAC46"/>
</g>
<defs>
<clipPath id="clip0">
<rect width="92.2727" height="92.2727" fill="white"/>
</clipPath>
</defs>
</svg>
