<svg width="468" height="75" viewBox="0 0 468 75" fill="none" xmlns="http://www.w3.org/2000/svg">
<path d="M41.256 49.784L42.6221 50.4035L43.1976 49.1344L41.9743 48.4672L41.256 49.784ZM32.544 45.032L33.2623 43.7152L31.9577 43.0036L31.234 44.3014L32.544 45.032ZM32.544 34.232L31.2401 34.9735L31.9639 36.2464L33.2538 35.5534L32.544 34.232ZM41.256 29.552L41.9658 30.8734L43.1907 30.2154L42.6274 28.9442L41.256 29.552ZM23.904 61.076C32.4813 61.076 39.5154 57.2541 42.6221 50.4035L39.8899 49.1645C37.3806 54.6979 31.5987 58.076 23.904 58.076V61.076ZM41.9743 48.4672L33.2623 43.7152L31.8257 46.3488L40.5377 51.1008L41.9743 48.4672ZM31.234 44.3014C29.4125 47.5675 26.8195 48.86 23.832 48.86V51.86C27.9005 51.86 31.4995 49.9845 33.854 45.7626L31.234 44.3014ZM23.832 48.86C21.341 48.86 19.2008 47.998 17.6863 46.4759C16.1764 44.9586 15.18 42.6758 15.18 39.632H12.18C12.18 43.3562 13.4156 46.4374 15.5597 48.592C17.6992 50.742 20.635 51.86 23.832 51.86V48.86ZM15.18 39.632C15.18 36.5882 16.1764 34.3054 17.6863 32.7881C19.2008 31.266 21.341 30.404 23.832 30.404V27.404C20.635 27.404 17.6992 28.522 15.5597 30.6719C13.4156 32.8266 12.18 35.9078 12.18 39.632H15.18ZM23.832 30.404C26.8039 30.404 29.4104 31.7557 31.2401 34.9735L33.8479 33.4905C31.5016 29.3643 27.9161 27.404 23.832 27.404V30.404ZM33.2538 35.5534L41.9658 30.8734L40.5462 28.2306L31.8342 32.9106L33.2538 35.5534ZM42.6274 28.9442C39.5205 21.934 32.4744 18.188 23.904 18.188V21.188C31.6056 21.188 37.3755 24.498 39.8846 30.1598L42.6274 28.9442ZM23.904 18.188C10.592 18.188 0.804 27.0277 0.804 39.632H3.804C3.804 28.9083 12.016 21.188 23.904 21.188V18.188ZM0.804 39.632C0.804 52.2363 10.592 61.076 23.904 61.076V58.076C12.016 58.076 3.804 50.3557 3.804 39.632H0.804ZM67.1029 61.076C80.1476 61.076 89.8429 52.217 89.8429 39.632H86.8429C86.8429 50.375 78.6821 58.076 67.1029 58.076V61.076ZM89.8429 39.632C89.8429 27.047 80.1476 18.188 67.1029 18.188V21.188C78.6821 21.188 86.8429 28.889 86.8429 39.632H89.8429ZM67.1029 18.188C54.0651 18.188 44.2909 27.0405 44.2909 39.632H47.2909C47.2909 28.8955 55.5167 21.188 67.1029 21.188V18.188ZM44.2909 39.632C44.2909 52.2235 54.0651 61.076 67.1029 61.076V58.076C55.5167 58.076 47.2909 50.3685 47.2909 39.632H44.2909ZM67.1029 48.86C64.663 48.86 62.5813 47.9905 61.1078 46.4649C59.6345 44.9396 58.6669 42.6506 58.6669 39.632H55.6669C55.6669 43.3094 56.8592 46.3844 58.95 48.5491C61.0404 50.7135 63.9268 51.86 67.1029 51.86V48.86ZM58.6669 39.632C58.6669 36.6134 59.6345 34.3244 61.1078 32.7991C62.5813 31.2735 64.663 30.404 67.1029 30.404V27.404C63.9268 27.404 61.0404 28.5505 58.95 30.7149C56.8592 32.8796 55.6669 35.9546 55.6669 39.632H58.6669ZM67.1029 30.404C69.5414 30.404 71.6022 31.2723 73.0567 32.7936C74.5127 34.3165 75.4669 36.6063 75.4669 39.632H78.4669C78.4669 35.9617 77.297 32.8875 75.2251 30.7204C73.1515 28.5517 70.2803 27.404 67.1029 27.404V30.404ZM75.4669 39.632C75.4669 42.6577 74.5127 44.9475 73.0567 46.4704C71.6022 47.9917 69.5414 48.86 67.1029 48.86V51.86C70.2803 51.86 73.1515 50.7123 75.2251 48.5436C77.297 46.3765 78.4669 43.3023 78.4669 39.632H75.4669ZM115.723 61.076C128.767 61.076 138.463 52.217 138.463 39.632H135.463C135.463 50.375 127.302 58.076 115.723 58.076V61.076ZM138.463 39.632C138.463 27.047 128.767 18.188 115.723 18.188V21.188C127.302 21.188 135.463 28.889 135.463 39.632H138.463ZM115.723 18.188C102.685 18.188 92.9106 27.0405 92.9106 39.632H95.9106C95.9106 28.8955 104.136 21.188 115.723 21.188V18.188ZM92.9106 39.632C92.9106 52.2235 102.685 61.076 115.723 61.076V58.076C104.136 58.076 95.9106 50.3685 95.9106 39.632H92.9106ZM115.723 48.86C113.283 48.86 111.201 47.9905 109.727 46.4649C108.254 44.9396 107.287 42.6506 107.287 39.632H104.287C104.287 43.3094 105.479 46.3844 107.57 48.5491C109.66 50.7135 112.546 51.86 115.723 51.86V48.86ZM107.287 39.632C107.287 36.6134 108.254 34.3244 109.727 32.7991C111.201 31.2735 113.283 30.404 115.723 30.404V27.404C112.546 27.404 109.66 28.5505 107.57 30.7149C105.479 32.8796 104.287 35.9546 104.287 39.632H107.287ZM115.723 30.404C118.161 30.404 120.222 31.2723 121.676 32.7936C123.132 34.3165 124.087 36.6063 124.087 39.632H127.087C127.087 35.9617 125.917 32.8875 123.845 30.7204C121.771 28.5517 118.9 27.404 115.723 27.404V30.404ZM124.087 39.632C124.087 42.6577 123.132 44.9475 121.676 46.4704C120.222 47.9917 118.161 48.86 115.723 48.86V51.86C118.9 51.86 121.771 50.7123 123.845 48.5436C125.917 46.3765 127.087 43.3023 127.087 39.632H124.087ZM156.638 24.728H155.138V28.8847L157.793 25.6859L156.638 24.728ZM156.638 20.264H158.138V18.764H156.638V20.264ZM145.91 20.264V18.764H144.41V20.264H145.91ZM145.91 72.968H144.41V74.468H145.91V72.968ZM157.142 72.968V74.468H158.642V72.968H157.142ZM157.142 54.896L158.252 53.887L155.642 51.0161V54.896H157.142ZM168.806 18.188C163.293 18.188 158.644 19.9619 155.484 23.7701L157.793 25.6859C160.249 22.7261 163.952 21.188 168.806 21.188V18.188ZM158.138 24.728V20.264H155.138V24.728H158.138ZM156.638 18.764H145.91V21.764H156.638V18.764ZM144.41 20.264V72.968H147.41V20.264H144.41ZM145.91 74.468H157.142V71.468H145.91V74.468ZM158.642 72.968V54.896H155.642V72.968H158.642ZM156.032 55.905C159.252 59.4463 163.649 61.076 168.806 61.076V58.076C164.315 58.076 160.793 56.6817 158.252 53.887L156.032 55.905ZM168.806 61.076C174.606 61.076 179.823 58.9969 183.592 55.2277C187.365 51.4544 189.602 46.074 189.602 39.632H186.602C186.602 45.358 184.627 49.9496 181.471 53.1063C178.31 56.2671 173.878 58.076 168.806 58.076V61.076ZM189.602 39.632C189.602 33.19 187.365 27.8096 183.592 24.0363C179.823 20.2671 174.606 18.188 168.806 18.188V21.188C173.878 21.188 178.31 22.9969 181.471 26.1577C184.627 29.3144 186.602 33.906 186.602 39.632H189.602ZM166.862 48.86C164.424 48.86 162.363 47.9917 160.908 46.4704C159.452 44.9475 158.498 42.6577 158.498 39.632H155.498C155.498 43.3023 156.668 46.3765 158.74 48.5436C160.814 50.7123 163.685 51.86 166.862 51.86V48.86ZM158.498 39.632C158.498 36.6063 159.452 34.3165 160.908 32.7936C162.363 31.2723 164.424 30.404 166.862 30.404V27.404C163.685 27.404 160.814 28.5517 158.74 30.7204C156.668 32.8875 155.498 35.9617 155.498 39.632H158.498ZM166.862 30.404C169.301 30.404 171.362 31.2723 172.816 32.7936C174.272 34.3165 175.226 36.6063 175.226 39.632H178.226C178.226 35.9617 177.056 32.8875 174.984 30.7204C172.911 28.5517 170.04 27.404 166.862 27.404V30.404ZM175.226 39.632C175.226 42.6577 174.272 44.9475 172.816 46.4704C171.362 47.9917 169.301 48.86 166.862 48.86V51.86C170.04 51.86 172.911 50.7123 174.984 48.5436C177.056 46.3765 178.226 43.3023 178.226 39.632H175.226ZM232.269 53.312L233.397 54.3012L234.287 53.2869L233.372 52.2951L232.269 53.312ZM226.293 46.832L227.396 45.8151L226.366 44.6984L225.262 45.7423L226.293 46.832ZM205.485 42.8V41.3H203.612L204.021 43.1277L205.485 42.8ZM234.789 42.8V44.3H236.178L236.285 42.915L234.789 42.8ZM224.421 36.248V37.748H226.183L225.902 36.0085L224.421 36.248ZM205.341 36.248L203.86 36.0119L203.583 37.748H205.341V36.248ZM236.505 39.776C236.505 33.1788 234.17 27.7521 230.229 23.9777C226.297 20.2125 220.87 18.188 214.845 18.188V21.188C220.197 21.188 224.849 22.9795 228.154 26.1443C231.449 29.2999 233.505 33.9172 233.505 39.776H236.505ZM214.845 18.188C202.269 18.188 192.681 27.1523 192.681 39.632H195.681C195.681 28.9277 203.805 21.188 214.845 21.188V18.188ZM192.681 39.632C192.681 45.7874 195.018 51.1817 199.195 55.0276C203.366 58.8667 209.273 61.076 216.285 61.076V58.076C209.905 58.076 204.761 56.0733 201.227 52.8204C197.701 49.5743 195.681 44.9966 195.681 39.632H192.681ZM216.285 61.076C223.585 61.076 229.444 58.8079 233.397 54.3012L231.142 52.3228C227.895 56.0241 222.953 58.076 216.285 58.076V61.076ZM233.372 52.2951L227.396 45.8151L225.191 47.8489L231.167 54.3289L233.372 52.2951ZM225.262 45.7423C222.885 47.9912 220.305 49.076 216.573 49.076V52.076C221.049 52.076 224.373 50.7128 227.324 47.9217L225.262 45.7423ZM216.573 49.076C211.211 49.076 207.843 46.4658 206.949 42.4723L204.021 43.1277C205.287 48.7822 210.128 52.076 216.573 52.076V49.076ZM205.485 44.3H234.789V41.3H205.485V44.3ZM236.285 42.915C236.348 42.0882 236.505 40.7152 236.505 39.776H233.505C233.505 40.5648 233.374 41.6398 233.294 42.685L236.285 42.915ZM214.917 29.684C219.219 29.684 222.266 32.3162 222.94 36.4875L225.902 36.0085C224.993 30.3878 220.695 26.684 214.917 26.684V29.684ZM224.421 34.748H205.341V37.748H224.421V34.748ZM206.822 36.4841C207.168 34.3167 208.124 32.6389 209.476 31.5002C210.829 30.3603 212.67 29.684 214.917 29.684V26.684C212.052 26.684 209.502 27.5557 207.543 29.2058C205.583 30.8571 204.306 33.2113 203.86 36.0119L206.822 36.4841ZM254.651 25.376H253.151V29.9709L255.862 26.261L254.651 25.376ZM254.651 20.264H256.151V18.764H254.651V20.264ZM243.923 20.264V18.764H242.423V20.264H243.923ZM243.923 59H242.423V60.5H243.923V59ZM255.155 59V60.5H256.655V59H255.155ZM267.971 30.056L267.856 31.5516L269.471 31.6758V30.056H267.971ZM267.971 19.688H269.471V18.188H267.971V19.688ZM256.151 25.376V20.264H253.151V25.376H256.151ZM254.651 18.764H243.923V21.764H254.651V18.764ZM242.423 20.264V59H245.423V20.264H242.423ZM243.923 60.5H255.155V57.5H243.923V60.5ZM256.655 59V40.712H253.655V59H256.655ZM256.655 40.712C256.655 37.2757 257.601 35.0109 259.034 33.5996C260.472 32.1831 262.618 31.412 265.451 31.412V28.412C262.092 28.412 259.09 29.3329 256.928 31.4624C254.761 33.5971 253.655 36.7323 253.655 40.712H256.655ZM265.451 31.412C266.241 31.412 266.881 31.4766 267.856 31.5516L268.086 28.5604C267.189 28.4914 266.389 28.412 265.451 28.412V31.412ZM269.471 30.056V19.688H266.471V30.056H269.471ZM267.971 18.188C261.677 18.188 256.542 20.2466 253.44 24.491L255.862 26.261C258.233 23.0174 262.313 21.188 267.971 21.188V18.188ZM274.799 24.368L273.929 23.146L272.871 23.8988L273.464 25.0535L274.799 24.368ZM278.831 32.216L277.496 32.9015L278.332 34.5283L279.764 33.3902L278.831 32.216ZM298.919 36.248V37.748H300.419V36.248H298.919ZM299.639 54.176H301.139V48.6964L298.348 53.412L299.639 54.176ZM299.639 59H298.139V60.5H299.639V59ZM310.151 59V60.5H311.651V59H310.151ZM298.919 42.8H300.419V41.3H298.919V42.8ZM298.919 46.76L300.327 47.2772L300.419 47.0268V46.76H298.919ZM291.503 18.188C285.088 18.188 278.495 19.8954 273.929 23.146L275.669 25.59C279.598 22.7926 285.533 21.188 291.503 21.188V18.188ZM273.464 25.0535L277.496 32.9015L280.165 31.5305L276.133 23.6825L273.464 25.0535ZM279.764 33.3902C282.268 31.3996 286.173 30.116 289.991 30.116V27.116C285.6 27.116 281.009 28.5684 277.897 31.0418L279.764 33.3902ZM289.991 30.116C292.808 30.116 294.627 30.7724 295.729 31.7468C296.8 32.6932 297.419 34.1402 297.419 36.248H300.419C300.419 33.5318 299.598 31.1628 297.716 29.4992C295.866 27.8636 293.221 27.116 289.991 27.116V30.116ZM298.919 34.748H289.991V37.748H298.919V34.748ZM289.991 34.748C283.921 34.748 279.386 35.9638 276.338 38.2858C273.223 40.6582 271.859 44.0327 271.859 47.84H274.859C274.859 44.8073 275.906 42.3858 278.156 40.6722C280.471 38.9082 284.253 37.748 289.991 37.748V34.748ZM271.859 47.84C271.859 51.6184 273.395 54.9759 276.225 57.3652C279.037 59.7393 283.024 61.076 287.831 61.076V58.076C283.565 58.076 280.316 56.8927 278.16 55.0728C276.023 53.2681 274.859 50.7576 274.859 47.84H271.859ZM287.831 61.076C293.831 61.076 298.477 59.0846 300.93 54.94L298.348 53.412C296.625 56.3234 293.206 58.076 287.831 58.076V61.076ZM298.139 54.176V59H301.139V54.176H298.139ZM299.639 60.5H310.151V57.5H299.639V60.5ZM311.651 59V36.896H308.651V59H311.651ZM311.651 36.896C311.651 30.7331 309.845 25.968 306.252 22.7704C302.69 19.6009 297.611 18.188 291.503 18.188V21.188C297.202 21.188 301.447 22.5111 304.258 25.0116C307.036 27.484 308.651 31.3229 308.651 36.896H311.651ZM290.639 50.516C288.875 50.516 287.641 50.0971 286.887 49.5302C286.175 48.9947 285.803 48.2688 285.803 47.336H282.803C282.803 49.2112 283.618 50.8253 285.084 51.9278C286.508 52.9989 288.442 53.516 290.639 53.516V50.516ZM285.803 47.336C285.803 46.3877 286.084 45.7524 286.693 45.2924C287.385 44.7686 288.725 44.3 291.215 44.3V41.3C288.448 41.3 286.332 41.8034 284.883 42.8996C283.349 44.0596 282.803 45.6923 282.803 47.336H285.803ZM291.215 44.3H298.919V41.3H291.215V44.3ZM297.419 42.8V46.76H300.419V42.8H297.419ZM297.511 46.2428C296.483 49.0399 293.918 50.516 290.639 50.516V53.516C294.848 53.516 298.762 51.5361 300.327 47.2772L297.511 46.2428ZM343.716 49.208L345.117 48.6729L344.401 46.7961L342.805 48.0165L343.716 49.208ZM334.356 29.768V28.268H332.856V29.768H334.356ZM344.004 29.768V31.268H345.504V29.768H344.004ZM344.004 21.128H345.504V19.628H344.004V21.128ZM334.356 21.128H332.856V22.628H334.356V21.128ZM334.356 11.696H335.856V10.196H334.356V11.696ZM323.124 11.696V10.196H321.624V11.696H323.124ZM323.124 21.128V22.628H324.624V21.128H323.124ZM317.148 21.128V19.628H315.648V21.128H317.148ZM317.148 29.768H315.648V31.268H317.148V29.768ZM323.124 29.768H324.624V28.268H323.124V29.768ZM346.74 57.128L347.616 58.346L348.553 57.6719L348.142 56.5929L346.74 57.128ZM342.805 48.0165C341.879 48.7248 340.555 49.148 339.18 49.148V52.148C341.117 52.148 343.106 51.5632 344.627 50.3995L342.805 48.0165ZM339.18 49.148C337.967 49.148 337.194 48.794 336.717 48.2961C336.232 47.7897 335.856 46.9292 335.856 45.536H332.856C332.856 47.4548 333.381 49.1503 334.551 50.3719C335.73 51.602 337.369 52.148 339.18 52.148V49.148ZM335.856 45.536V29.768H332.856V45.536H335.856ZM334.356 31.268H344.004V28.268H334.356V31.268ZM345.504 29.768V21.128H342.504V29.768H345.504ZM344.004 19.628H334.356V22.628H344.004V19.628ZM335.856 21.128V11.696H332.856V21.128H335.856ZM334.356 10.196H323.124V13.196H334.356V10.196ZM321.624 11.696V21.128H324.624V11.696H321.624ZM323.124 19.628H317.148V22.628H323.124V19.628ZM315.648 21.128V29.768H318.648V21.128H315.648ZM317.148 31.268H323.124V28.268H317.148V31.268ZM321.624 29.768V45.68H324.624V29.768H321.624ZM321.624 45.68C321.624 50.5775 323.047 54.4969 325.905 57.1779C328.747 59.8439 332.785 61.076 337.596 61.076V58.076C333.264 58.076 330.066 56.9681 327.957 54.9901C325.865 53.0271 324.624 49.9985 324.624 45.68H321.624ZM337.596 61.076C341.232 61.076 344.966 60.2506 347.616 58.346L345.865 55.91C343.907 57.3174 340.872 58.076 337.596 58.076V61.076ZM348.142 56.5929L345.117 48.6729L342.315 49.7431L345.339 57.6631L348.142 56.5929ZM354.485 59H352.985V60.5H354.485V59ZM365.717 59V60.5H367.217V59H365.717ZM365.717 20.264H367.217V18.764H365.717V20.264ZM354.485 20.264V18.764H352.985V20.264H354.485ZM360.101 16.364C362.521 16.364 364.65 15.5669 366.187 14.1203C367.729 12.6692 368.585 10.6462 368.585 8.384H365.585C365.585 9.8658 365.037 11.0828 364.131 11.9357C363.22 12.7931 361.858 13.364 360.101 13.364V16.364ZM368.585 8.384C368.585 3.92865 364.924 0.835996 360.101 0.835996V3.836C363.631 3.836 365.585 5.92735 365.585 8.384H368.585ZM360.101 0.835996C355.218 0.835996 351.617 4.12698 351.617 8.6H354.617C354.617 6.01702 356.632 3.836 360.101 3.836V0.835996ZM351.617 8.6C351.617 13.073 355.218 16.364 360.101 16.364V13.364C356.632 13.364 354.617 11.183 354.617 8.6H351.617ZM354.485 60.5H365.717V57.5H354.485V60.5ZM367.217 59V20.264H364.217V59H367.217ZM365.717 18.764H354.485V21.764H365.717V18.764ZM352.985 20.264V59H355.985V20.264H352.985ZM396.013 61.076C409.058 61.076 418.753 52.217 418.753 39.632H415.753C415.753 50.375 407.593 58.076 396.013 58.076V61.076ZM418.753 39.632C418.753 27.047 409.058 18.188 396.013 18.188V21.188C407.593 21.188 415.753 28.889 415.753 39.632H418.753ZM396.013 18.188C382.976 18.188 373.201 27.0405 373.201 39.632H376.201C376.201 28.8955 384.427 21.188 396.013 21.188V18.188ZM373.201 39.632C373.201 52.2235 382.976 61.076 396.013 61.076V58.076C384.427 58.076 376.201 50.3685 376.201 39.632H373.201ZM396.013 48.86C393.574 48.86 391.492 47.9905 390.018 46.4649C388.545 44.9396 387.577 42.6506 387.577 39.632H384.577C384.577 43.3094 385.77 46.3844 387.861 48.5491C389.951 50.7135 392.837 51.86 396.013 51.86V48.86ZM387.577 39.632C387.577 36.6134 388.545 34.3244 390.018 32.7991C391.492 31.2735 393.574 30.404 396.013 30.404V27.404C392.837 27.404 389.951 28.5505 387.861 30.7149C385.77 32.8796 384.577 35.9546 384.577 39.632H387.577ZM396.013 30.404C398.452 30.404 400.513 31.2723 401.967 32.7936C403.423 34.3165 404.378 36.6063 404.378 39.632H407.378C407.378 35.9617 406.208 32.8875 404.136 30.7204C402.062 28.5517 399.191 27.404 396.013 27.404V30.404ZM404.378 39.632C404.378 42.6577 403.423 44.9475 401.967 46.4704C400.513 47.9917 398.452 48.86 396.013 48.86V51.86C399.191 51.86 402.062 50.7123 404.136 48.5436C406.208 46.3765 407.378 43.3023 407.378 39.632H404.378ZM436.929 24.8H435.429V28.6675L438.037 25.8114L436.929 24.8ZM436.929 20.264H438.429V18.764H436.929V20.264ZM426.201 20.264V18.764H424.701V20.264H426.201ZM426.201 59H424.701V60.5H426.201V59ZM437.433 59V60.5H438.933V59H437.433ZM454.569 59H453.069V60.5H454.569V59ZM465.801 59V60.5H467.301V59H465.801ZM449.745 18.188C444.15 18.188 439.181 20.1091 435.821 23.7886L438.037 25.8114C440.725 22.8669 444.828 21.188 449.745 21.188V18.188ZM438.429 24.8V20.264H435.429V24.8H438.429ZM436.929 18.764H426.201V21.764H436.929V18.764ZM424.701 20.264V59H427.701V20.264H424.701ZM426.201 60.5H437.433V57.5H426.201V60.5ZM438.933 59V39.848H435.933V59H438.933ZM438.933 39.848C438.933 36.5501 439.829 34.3561 441.135 32.9927C442.436 31.6349 444.329 30.908 446.721 30.908V27.908C443.714 27.908 440.962 28.8371 438.969 30.9173C436.981 32.9919 435.933 36.0179 435.933 39.848H438.933ZM446.721 30.908C448.913 30.908 450.412 31.5345 451.389 32.6296C452.393 33.7552 453.069 35.6226 453.069 38.552H456.069C456.069 35.2174 455.305 32.5128 453.627 30.6324C451.923 28.7215 449.497 27.908 446.721 27.908V30.908ZM453.069 38.552V59H456.069V38.552H453.069ZM454.569 60.5H465.801V57.5H454.569V60.5ZM467.301 59V36.824H464.301V59H467.301ZM467.301 36.824C467.301 30.6247 465.48 25.9135 462.251 22.7556C459.031 19.6064 454.601 18.188 449.745 18.188V21.188C454.033 21.188 457.631 22.4336 460.153 24.9004C462.667 27.3585 464.301 31.2153 464.301 36.824H467.301Z" fill="black"/>
</svg>
