<svg width="45" height="42" viewBox="0 0 45 42" fill="none" xmlns="http://www.w3.org/2000/svg">
<path d="M40.6084 0.264404H4.34277C2.21045 0.264404 0.475586 1.99927 0.475586 4.13159V29.9128C0.475586 32.0452 2.21045 33.78 4.34277 33.78H15.5308L13.812 38.9363H9.58496C8.87296 38.9363 8.2959 39.5133 8.2959 40.2253C8.2959 40.9373 8.87296 41.5144 9.58496 41.5144H35.3662C36.0782 41.5144 36.6553 40.9373 36.6553 40.2253C36.6553 39.5133 36.0782 38.9363 35.3662 38.9363H31.1392L29.4204 33.78H40.6084C42.7407 33.78 44.4756 32.0452 44.4756 29.9128V4.13159C44.4756 1.99927 42.7407 0.264404 40.6084 0.264404ZM16.5298 38.9363L18.2485 33.78H26.7026L28.4214 38.9363H16.5298ZM41.8975 29.9128C41.8975 30.6235 41.3191 31.2019 40.6084 31.2019C36.8631 31.2019 8.12704 31.2019 4.34277 31.2019C3.63211 31.2019 3.05371 30.6235 3.05371 29.9128V28.6238H41.8975V29.9128ZM14.5331 18.6369L13.3605 17.4647L15.1833 15.6415L16.3559 16.8141C16.7715 17.2297 17.4157 17.3116 17.9222 17.0128C18.6467 16.5858 19.4201 16.2639 20.2207 16.0564C20.7894 15.9094 21.1865 15.3961 21.1865 14.8087V13.155H23.7646V14.8087C23.7646 15.3961 24.1618 15.9094 24.7304 16.0564C25.5307 16.2639 26.3042 16.5858 27.0286 17.0132C27.5352 17.3116 28.1794 17.2297 28.5949 16.8141L29.7675 15.6415L31.5907 17.4647L30.4181 18.6372C30.0025 19.0528 29.9206 19.697 30.2194 20.2032C30.6467 20.928 30.9683 21.7014 31.1758 22.5017C31.3228 23.0704 31.8361 23.4675 32.4235 23.4675H34.0771V26.0457H28.7906C28.8766 25.6234 28.9209 25.1913 28.9209 24.7566C28.9209 21.2026 26.0296 18.3113 22.4756 18.3113C18.9216 18.3113 16.0303 21.2026 16.0303 24.7566C16.0303 25.1913 16.0746 25.6234 16.1605 26.0457H10.874V23.4675H12.5276C13.1151 23.4675 13.6284 23.0704 13.7758 22.5017C13.9829 21.7014 14.3048 20.928 14.7318 20.2032C15.0302 19.697 14.9487 19.0528 14.5331 18.6369ZM26.3428 24.7566C26.3428 25.198 26.2662 25.6341 26.1212 26.0457H18.83C18.6849 25.6341 18.6084 25.198 18.6084 24.7566C18.6084 22.6243 20.3433 20.8894 22.4756 20.8894C24.6079 20.8894 26.3428 22.6243 26.3428 24.7566ZM41.8975 26.0457H36.6553V22.1785C36.6553 21.4665 36.0782 20.8894 35.3662 20.8894H33.3749C33.2413 20.5148 33.0879 20.1465 32.9153 19.7856L34.3252 18.3761C34.8284 17.8725 34.8284 17.0565 34.3249 16.5529L30.6789 12.907C30.4372 12.6653 30.1093 12.5296 29.7675 12.5296C29.4258 12.5296 29.0978 12.6653 28.8561 12.907L27.4465 14.3169C27.0857 14.1443 26.7174 13.9909 26.3428 13.8576V11.866C26.3428 11.154 25.7657 10.5769 25.0537 10.5769H19.8975C19.1855 10.5769 18.6084 11.154 18.6084 11.866V13.8576C18.2338 13.9909 17.8655 14.1443 17.5046 14.3169L16.0951 12.907C15.8534 12.6653 15.5254 12.5296 15.1837 12.5296C14.8416 12.5296 14.5139 12.6653 14.2719 12.907L10.6263 16.5529C10.1227 17.0565 10.1227 17.8725 10.6263 18.3761L12.0359 19.786C11.8633 20.1465 11.7102 20.5148 11.5766 20.8894H9.58496C8.87296 20.8894 8.2959 21.4668 8.2959 22.1785V26.0457H3.05371V4.13159C3.05371 3.42093 3.63211 2.84253 4.34277 2.84253H40.6084C41.3191 2.84253 41.8975 3.42093 41.8975 4.13159V26.0457Z" fill="#78B539"/>
<path d="M35.3662 5.42065C33.2339 5.42065 31.499 7.15552 31.499 9.28784C31.499 11.4202 33.2339 13.155 35.3662 13.155C37.4985 13.155 39.2334 11.4202 39.2334 9.28784C39.2334 7.15552 37.4985 5.42065 35.3662 5.42065ZM35.3662 10.5769C34.6555 10.5769 34.0771 9.9985 34.0771 9.28784C34.0771 8.57718 34.6555 7.99878 35.3662 7.99878C36.0769 7.99878 36.6553 8.57718 36.6553 9.28784C36.6553 9.9985 36.0769 10.5769 35.3662 10.5769Z" fill="#78B539"/>
</svg>
