<svg width="20" height="20" viewBox="0 0 20 20" fill="none" xmlns="http://www.w3.org/2000/svg">
<path d="M13.4786 12.8686C13.8629 12.8686 14.1814 13.0586 14.4586 13.4343C14.7329 13.8129 14.8786 14.2743 14.8786 14.8271C14.8786 15.3771 14.7329 15.8429 14.4586 16.2171C14.1829 16.5957 13.8629 16.7829 13.4786 16.7829C13.0814 16.7829 12.7329 16.5957 12.4571 16.2171C12.1829 15.8429 12.0371 15.3771 12.0371 14.8271C12.0371 14.2743 12.1829 13.8129 12.4571 13.4343C12.7314 13.0571 13.08 12.8686 13.4786 12.8686ZM18.3929 7.78429C19.4586 8.94286 20 10.3486 20 12.0029C20 13.0714 19.8771 14.0357 19.63 14.8929C19.38 15.7457 19.0671 16.4414 18.6957 16.9771C18.3186 17.5143 17.8557 17.9843 17.3043 18.39C16.7529 18.7986 16.2457 19.0929 15.7829 19.28C15.3186 19.4686 14.79 19.6129 14.1957 19.7171C13.6 19.8186 13.1586 19.8757 12.8486 19.8929C12.5443 19.9057 12.2229 19.9129 11.87 19.9129C11.7914 19.9129 11.5229 19.9186 11.0886 19.9343C10.6586 19.9529 10.2886 19.9571 10 19.9571C9.71143 19.9571 9.34143 19.9529 8.91143 19.9343C8.47714 19.9186 8.20857 19.9129 8.13 19.9129C7.77857 19.9129 7.45571 19.9057 7.15143 19.8929C6.84 19.8757 6.4 19.8186 5.80429 19.7171C5.2 19.6143 4.68143 19.4686 4.21714 19.28C3.75429 19.0929 3.24571 18.7986 2.69714 18.39C2.14429 17.9843 1.68143 17.5143 1.30429 16.9771C0.931429 16.4414 0.62 15.7457 0.37 14.8929C0.122857 14.0357 0 13.0714 0 12.0029C0 10.3486 0.541429 8.94143 1.60714 7.78429C1.49 7.72571 1.48571 7.14571 1.59571 6.04571C1.68571 4.94429 1.92 3.92857 2.30286 3C3.63714 3.14143 5.28857 3.89857 7.26143 5.25857C7.92714 5.08857 8.83429 4.99714 10 4.99714C11.2171 4.99714 12.13 5.08857 12.74 5.26C13.6386 4.65286 14.4971 4.15857 15.3186 3.78286C16.1529 3.41 16.7543 3.18857 17.1314 3.13L17.6971 3.00143C18.0829 3.92857 18.3171 4.94429 18.4057 6.04714C18.5143 7.14571 18.51 7.72571 18.3929 7.78429ZM10.0429 18.9557C12.4543 18.9557 14.2629 18.6671 15.5014 18.0886C16.7229 17.5114 17.3471 16.32 17.3471 14.5229C17.3471 13.48 16.9571 12.6086 16.1729 11.9114C15.7757 11.5357 15.2971 11.3043 14.76 11.2171C14.2243 11.13 13.4043 11.13 12.3029 11.2171C11.2043 11.3057 10.4486 11.3457 10.0429 11.3457C9.49286 11.3457 8.9 11.32 8.15857 11.2614C7.41571 11.2043 6.83286 11.1686 6.41143 11.15C5.99143 11.1371 5.54143 11.1886 5.04286 11.3043C4.55 11.4214 4.14429 11.6243 3.82429 11.9114C3.08 12.5814 2.69571 13.45 2.69571 14.5229C2.69571 16.32 3.30429 17.5114 4.52429 18.0886C5.73857 18.6671 7.54286 18.9557 9.95571 18.9557H10.0429ZM6.56571 12.8686C6.94857 12.8686 7.26857 13.0586 7.54429 13.4343C7.81857 13.8129 7.96429 14.2743 7.96429 14.8271C7.96429 15.3771 7.81857 15.8429 7.54429 16.2171C7.27 16.5957 6.94857 16.7829 6.56571 16.7829C6.16714 16.7829 5.82 16.5957 5.54286 16.2171C5.26857 15.8429 5.12286 15.3771 5.12286 14.8271C5.12286 14.2743 5.26857 13.8129 5.54286 13.4343C5.81857 13.0571 6.16571 12.8686 6.56571 12.8686Z" fill="white"/>
</svg>
