<svg width="89" height="473" viewBox="0 0 89 473" fill="none" xmlns="http://www.w3.org/2000/svg">
<path d="M18.723 390.731L69.123 407.219L69.123 419.747L34.995 430.835L69.123 442.283L69.123 454.739L18.723 471.299L18.723 459.203L54.147 447.827L18.723 435.947L18.723 425.147L54.435 413.627L18.723 401.891L18.723 390.731ZM29.811 358.972C29.811 354.172 31.251 350.308 34.131 347.38C37.011 344.404 41.283 342.916 46.947 342.916L69.123 342.916L69.123 354.148L48.675 354.148C45.603 354.148 43.323 354.82 41.835 356.164C40.299 357.508 39.531 359.452 39.531 361.996C39.531 364.828 40.419 367.084 42.195 368.764C43.923 370.444 46.515 371.284 49.971 371.284L69.123 371.284L69.123 382.516L15.699 382.516L15.699 371.284L34.419 371.284C32.931 369.796 31.803 367.996 31.035 365.884C30.219 363.772 29.811 361.468 29.811 358.972ZM29.811 315.671C29.811 309.671 31.251 305.063 34.131 301.847C36.963 298.631 41.259 297.023 47.019 297.023L69.123 297.023L69.123 307.535L64.299 307.535C67.899 309.647 69.699 313.583 69.699 319.343C69.699 322.319 69.195 324.911 68.187 327.119C67.179 329.279 65.787 330.935 64.011 332.087C62.235 333.239 60.219 333.815 57.963 333.815C54.363 333.815 51.531 332.471 49.467 329.783C47.403 327.047 46.371 322.847 46.371 317.183L46.371 308.255C43.923 308.255 42.051 308.999 40.755 310.487C39.411 311.975 38.739 314.207 38.739 317.183C38.739 319.247 39.075 321.287 39.747 323.303C40.371 325.271 41.235 326.951 42.339 328.343L34.491 332.375C33.003 330.263 31.851 327.743 31.035 324.815C30.219 321.839 29.811 318.791 29.811 315.671ZM62.139 316.535C62.139 314.615 61.707 312.911 60.843 311.423C59.931 309.935 58.611 308.879 56.883 308.255L52.923 308.255L52.923 315.959C52.923 320.567 54.435 322.871 57.459 322.871C58.899 322.871 60.051 322.319 60.915 321.215C61.731 320.063 62.139 318.503 62.139 316.535ZM67.251 260.434C68.067 261.538 68.691 262.906 69.123 264.538C69.507 266.122 69.699 267.802 69.699 269.578C69.699 274.186 68.523 277.762 66.171 280.306C63.819 282.802 60.363 284.05 55.803 284.05L39.891 284.05L39.891 290.026L31.251 290.026L31.251 284.05L21.819 284.05L21.819 272.818L31.251 272.818L31.251 263.17L39.891 263.17L39.891 272.818L55.659 272.818C57.291 272.818 58.563 272.41 59.475 271.594C60.339 270.73 60.771 269.53 60.771 267.994C60.771 266.218 60.291 264.706 59.331 263.458L67.251 260.434ZM30.387 168.65L69.123 182.69L69.123 193.49L45.075 202.202L69.123 211.202L69.123 222.002L30.387 235.97L30.387 225.386L56.595 216.242L30.387 206.738L30.387 197.234L56.595 188.018L30.387 178.586L30.387 168.65ZM49.899 125.099C50.043 125.099 51.051 125.171 52.923 125.315L52.923 154.619C55.323 154.091 57.219 152.843 58.611 150.875C60.003 148.907 60.699 146.459 60.699 143.531C60.699 141.515 60.411 139.739 59.835 138.203C59.211 136.619 58.251 135.155 56.955 133.811L63.435 127.835C67.611 131.483 69.699 136.811 69.699 143.819C69.699 148.187 68.859 152.051 67.179 155.411C65.451 158.771 63.075 161.363 60.051 163.187C57.027 165.011 53.595 165.923 49.755 165.923C45.963 165.923 42.555 165.035 39.531 163.259C36.459 161.435 34.083 158.963 32.403 155.843C30.675 152.675 29.811 149.147 29.811 145.259C29.811 141.467 30.627 138.035 32.259 134.963C33.891 131.891 36.243 129.491 39.315 127.763C42.339 125.987 45.867 125.099 49.899 125.099ZM38.307 145.187C38.307 147.731 39.027 149.867 40.467 151.595C41.907 153.323 43.875 154.379 46.371 154.763L46.371 135.683C43.923 136.067 41.979 137.123 40.539 138.851C39.051 140.579 38.307 142.691 38.307 145.187Z" fill="#78B539"/>
<path d="M15.123 52.4953L68.547 52.4953L68.547 63.2233L64.083 63.2233C67.443 66.0073 69.123 70.0393 69.123 75.3193C69.1231 78.9673 68.307 82.2793 66.675 85.2553C65.043 88.1833 62.7151 90.4873 59.6911 92.1673C56.6671 93.8473 53.163 94.6873 49.179 94.6873C45.195 94.6873 41.691 93.8473 38.667 92.1673C35.643 90.4873 33.315 88.1833 31.683 85.2553C30.051 82.2793 29.235 78.9673 29.235 75.3193C29.235 70.3753 30.795 66.5113 33.915 63.7273L15.123 63.7273L15.123 52.4953ZM59.9071 73.3753C59.9071 70.5433 58.947 68.1913 57.027 66.3193C55.059 64.4473 52.443 63.5113 49.179 63.5113C45.915 63.5113 43.323 64.4473 41.403 66.3193C39.435 68.1913 38.451 70.5433 38.451 73.3753C38.451 76.2553 39.435 78.6313 41.403 80.5033C43.323 82.3753 45.915 83.3113 49.179 83.3113C52.443 83.3113 55.059 82.3753 57.027 80.5033C58.947 78.6313 59.9071 76.2553 59.9071 73.3753Z" stroke="black" stroke-width="1.5"/>
<path d="M69.123 22.2277C69.123 26.3077 68.283 29.9797 66.603 33.2437C64.875 36.4597 62.499 38.9797 59.475 40.8037C56.451 42.6277 53.019 43.5397 49.179 43.5397C45.339 43.5397 41.907 42.6277 38.883 40.8037C35.859 38.9797 33.507 36.4597 31.827 33.2437C30.099 29.9797 29.235 26.3077 29.235 22.2277C29.235 18.1477 30.099 14.4997 31.827 11.2837C33.507 8.06769 35.859 5.54769 38.883 3.72369C41.907 1.89969 45.339 0.987692 49.179 0.987692C53.019 0.987692 56.451 1.89969 59.475 3.72369C62.499 5.54769 64.875 8.06769 66.603 11.2837C68.283 14.4997 69.123 18.1477 69.123 22.2277ZM59.907 22.2277C59.907 19.3477 58.947 16.9957 57.027 15.1717C55.059 13.2997 52.443 12.3637 49.179 12.3637C45.915 12.3637 43.323 13.2997 41.403 15.1717C39.435 16.9957 38.451 19.3477 38.451 22.2277C38.451 25.1077 39.435 27.4837 41.403 29.3557C43.323 31.2277 45.915 32.1637 49.179 32.1637C52.443 32.1637 55.059 31.2277 57.027 29.3557C58.947 27.4837 59.907 25.1077 59.907 22.2277Z" stroke="black" stroke-width="1.5"/>
</svg>
