<svg width="1015" height="630" viewBox="0 0 1015 630" fill="none" xmlns="http://www.w3.org/2000/svg">
<path d="M1177.68 429.162C1140.16 337.509 936.602 48.689 617.147 159.076C465.15 211.598 378.352 95.9092 350.442 10.2036" stroke="#E0EAEF" stroke-width="2"/>
<path d="M1078.74 433.513C1041.22 341.86 890.202 168.68 557.736 229.601C374.225 263.227 290.499 94.7606 262.588 9.05503" stroke="#E0EAEF" stroke-width="2"/>
<path d="M1015.61 446.43C978.087 354.777 763.118 262.219 494.082 307.256C314.18 337.372 185.252 179.346 166.003 10.3286" stroke="#E0EAEF" stroke-width="2"/>
<path d="M1013.34 529.616C913.556 392.012 664.993 337.602 430.18 377.497C253.97 407.436 60.8719 147.455 80.95 9.48835" stroke="#E0EAEF" stroke-width="2"/>
<path d="M1014.86 620.384C743.99 362.962 479.962 468.74 374.426 460.445C233.053 449.333 -15.0481 189.472 1.89295 8.86134" stroke="#E0EAEF" stroke-width="2"/>
</svg>
