<svg width="41" height="42" viewBox="0 0 41 42" fill="none" xmlns="http://www.w3.org/2000/svg">
<g clip-path="url(#clip0)">
<path d="M40.0385 38.328L30.4466 28.4837C32.9738 25.371 34.3502 21.4871 34.3502 17.3854C34.3502 7.78416 26.7795 0.0129395 17.4232 0.0129395C8.06813 0.0129395 0.496094 7.78287 0.496094 17.3855C0.496094 26.9868 8.0668 34.7581 17.4232 34.7581C21.4196 34.7581 25.204 33.3454 28.2369 30.7516L37.8288 40.5959C38.4389 41.222 39.4281 41.2223 40.0385 40.5959C40.6486 39.9697 40.6486 38.9543 40.0385 38.328ZM17.4232 3.22018C23.2205 3.22018 28.1938 6.90786 30.2348 12.1173L26.7443 17.4908L21.8528 8.70535C21.2059 7.54345 19.5307 7.66036 19.0454 8.90541L14.3005 21.0798L11.1771 13.5999C10.626 12.2797 8.77289 12.3144 8.27797 13.6685L4.81469 23.1452C0.771328 13.8585 7.40344 3.22018 17.4232 3.22018ZM6.90805 26.55L9.83742 18.5339L12.9141 25.9017C13.4608 27.211 15.2845 27.1908 15.8009 25.8655L20.7449 13.1803L25.2852 21.3349C25.8594 22.3659 27.2963 22.4228 27.942 21.4288L31.1927 16.4242C31.7324 24.6473 25.3574 31.5507 17.4231 31.5507C13.2152 31.5507 9.44172 29.6075 6.90805 26.55Z" fill="#78B539"/>
</g>
<defs>
<clipPath id="clip0">
<rect width="40" height="41.0526" fill="white" transform="translate(0.496094 0.0129395)"/>
</clipPath>
</defs>
</svg>
