<svg width="41" height="41" viewBox="0 0 41 41" fill="none" xmlns="http://www.w3.org/2000/svg">
<g clip-path="url(#clip0)">
<path d="M5.71857 29.9905C5.34341 29.6155 4.73513 29.6155 4.35989 29.9905L2.38684 31.9635C2.01168 32.3387 2.01168 32.947 2.38684 33.3222C2.57442 33.5097 2.82028 33.6036 3.06614 33.6036C3.31207 33.6036 3.55801 33.5098 3.74551 33.3222L5.71857 31.3491C6.09372 30.974 6.09372 30.3657 5.71857 29.9905Z" fill="#78B539"/>
<path d="M8.5099 32.7813C8.1349 32.4062 7.52646 32.4062 7.15138 32.7813L0.574337 39.3584C0.199179 39.7335 0.199179 40.3418 0.574337 40.717C0.761837 40.9045 1.00777 40.9985 1.25363 40.9985C1.49949 40.9985 1.74535 40.9046 1.93293 40.717L8.5099 34.1399C8.88514 33.7647 8.88506 33.1564 8.5099 32.7813Z" fill="#78B539"/>
<path d="M11.3015 35.5724C10.9263 35.1973 10.318 35.1972 9.94297 35.5723L6.65444 38.8609C6.27929 39.236 6.27921 39.8443 6.65444 40.2196C6.84202 40.4071 7.08788 40.501 7.33374 40.501C7.5796 40.501 7.82546 40.4071 8.01304 40.2196L11.3016 36.9312C11.6766 36.5559 11.6767 35.9477 11.3015 35.5724Z" fill="#78B539"/>
<path d="M29.4171 11.8739C28.2983 10.7552 26.8107 10.1389 25.2285 10.1389C23.6461 10.1389 22.1586 10.7551 21.0397 11.8739C19.9209 12.9927 19.3047 14.4803 19.3047 16.0627C19.3047 17.645 19.9209 19.1325 21.0397 20.2514C22.1584 21.3702 23.646 21.9863 25.2285 21.9863C26.8107 21.9863 28.2982 21.3702 29.4171 20.2514C31.7267 17.9416 31.7267 14.1836 29.4171 11.8739ZM28.0584 18.8928C27.3025 19.6487 26.2974 20.065 25.2284 20.065C24.1592 20.065 23.1541 19.6487 22.3983 18.8928C21.6423 18.1368 21.226 17.1318 21.226 16.0627C21.226 14.9935 21.6423 13.9885 22.3983 13.2326C23.1541 12.4767 24.1592 12.0603 25.2284 12.0603C26.2974 12.0603 27.3025 12.4767 28.0584 13.2326C29.6189 14.7931 29.6189 17.3323 28.0584 18.8928Z" fill="#78B539"/>
<path d="M39.6226 2.34883C39.5338 2.0168 39.2745 1.75758 38.9425 1.66875C35.6573 0.790543 32.1797 0.77609 28.8857 1.62687C28.3723 1.75953 27.8662 1.91539 27.3667 2.08867C27.3235 2.10047 27.2809 2.11531 27.2394 2.1332C24.4966 3.10656 21.9877 4.68344 19.9087 6.75649C19.9075 6.75766 19.9063 6.75884 19.9052 6.75993C19.8998 6.76532 19.8943 6.7704 19.8889 6.77579C19.8801 6.78462 19.8725 6.79415 19.8641 6.80313C19.8561 6.81188 19.8474 6.81985 19.8395 6.82899L16.897 10.2536C12.2681 10.2025 7.76958 12.0315 4.48966 15.3114C3.42317 16.3779 2.50293 17.5732 1.75457 18.8639C1.60356 19.1244 1.5834 19.4406 1.70012 19.7182C1.81684 19.9958 2.05692 20.2025 2.34864 20.2767L7.68825 21.636L6.64349 24.4733C6.12755 25.8747 6.47646 27.4623 7.53232 28.5182L12.7733 33.7592C13.5053 34.491 14.4925 34.8833 15.4962 34.8833C15.9406 34.8833 16.3883 34.8063 16.8183 34.648L19.6559 33.6033L21.0155 38.9431C21.0896 39.2348 21.2965 39.475 21.574 39.5917C21.6933 39.6419 21.8201 39.6667 21.9463 39.6667C22.1133 39.6667 22.2798 39.6232 22.4282 39.5371C23.7187 38.7888 24.9139 37.8687 25.9807 36.802C29.2609 33.5219 31.089 29.0226 31.0384 24.3939L34.4627 21.4518C34.4716 21.4441 34.4794 21.4356 34.488 21.4276C34.4973 21.4191 34.507 21.4113 34.516 21.4024C34.5215 21.3969 34.5266 21.3912 34.532 21.3859C34.533 21.3847 34.5342 21.3837 34.5353 21.3825C36.6084 19.3036 38.1852 16.7949 39.1586 14.0522C39.1763 14.0104 39.1913 13.9677 39.2031 13.9242C39.3763 13.425 39.5322 12.9189 39.6648 12.4056C40.5153 9.11165 40.5008 5.63407 39.6226 2.34883ZM4.10926 18.7424C4.62434 18.0057 5.20645 17.3119 5.84825 16.67C8.36075 14.1575 11.6778 12.6047 15.1802 12.2518L8.61747 19.89L4.10926 18.7424ZM8.44622 25.1372L9.34036 22.709L10.5796 23.9482L8.70654 26.9458C8.32544 26.4311 8.22114 25.7487 8.44622 25.1372ZM10.0894 28.3584L11.974 25.3425L13.2822 26.6507L10.8319 29.1008L10.0894 28.3584ZM12.1904 30.4594L14.6407 28.0093L15.9488 29.3174L12.9329 31.2019L12.1904 30.4594ZM16.1541 32.8451C15.5426 33.0701 14.8603 32.9659 14.3456 32.5848L17.3431 30.7118L18.5823 31.951L16.1541 32.8451ZM24.6218 35.4436C23.9799 36.0854 23.2861 36.6673 22.5494 37.1826L21.4016 32.674L29.04 26.1109C28.6873 29.6133 27.1342 32.9308 24.6218 35.4436ZM33.1773 20.0229L20.373 31.0245L10.2669 20.9184L18.0388 11.873C18.0464 11.8646 18.0536 11.8559 18.0609 11.8472L21.2684 8.11415C23.0166 6.37173 25.1009 5.01836 27.378 4.13125L37.1601 13.9134C36.2731 16.1906 34.9198 18.2748 33.1773 20.0229ZM37.8209 11.857L29.4346 3.47055C32.2071 2.76609 35.1213 2.73852 37.9027 3.38859C38.5528 6.17001 38.5253 9.08423 37.8209 11.857Z" fill="#78B539"/>
</g>
<defs>
<clipPath id="clip0">
<rect width="40" height="40" fill="white" transform="translate(0.292969 0.998779)"/>
</clipPath>
</defs>
</svg>
