<svg width="132" height="58" viewBox="0 0 132 58" fill="none" xmlns="http://www.w3.org/2000/svg">
<path d="M32.464 13.064L31.7251 14.3694L33.135 15.1675L33.8223 13.7003L32.464 13.064ZM36.208 5.072L37.5663 5.70834L38.1457 4.47157L36.9685 3.7791L36.208 5.072ZM6.184 29.336L6.99779 28.0759L5.54951 27.1406L4.82349 28.7043L6.184 29.336ZM2.44 37.4L1.07949 36.7683L0.5354 37.9402L1.61374 38.6519L2.44 37.4ZM19.216 43.076C25.2102 43.076 30.1139 41.7572 33.5651 39.3503C37.0603 36.9127 39.004 33.3898 39.004 29.264H36.004C36.004 32.3382 34.5997 34.9713 31.849 36.8897C29.0541 38.8388 24.8138 40.076 19.216 40.076V43.076ZM39.004 29.264C39.004 24.9883 37.3291 22.0779 34.7491 20.1383C32.2681 18.2731 29.0563 17.3865 26.0895 16.8114C24.5935 16.5214 23.0929 16.2997 21.7416 16.0865C20.3668 15.8697 19.1543 15.6628 18.137 15.3988C17.0979 15.1292 16.4182 14.8369 16.0197 14.5327C15.6939 14.2839 15.604 14.0764 15.604 13.784H12.604C12.604 15.1476 13.2453 16.1888 14.1992 16.9171C15.0804 17.5899 16.2289 18.0031 17.3835 18.3027C18.56 18.6079 19.9068 18.8342 21.2742 19.0499C22.6651 19.2693 24.0895 19.4796 25.5185 19.7566C28.4017 20.3155 31.0399 21.1029 32.9464 22.5362C34.7539 23.8951 36.004 25.9077 36.004 29.264H39.004ZM15.604 13.784C15.604 13.421 15.7539 12.976 16.5408 12.5402C17.3955 12.0668 18.9054 11.684 21.304 11.684V8.684C18.6626 8.684 16.5725 9.09322 15.0873 9.91581C13.5341 10.776 12.604 12.131 12.604 13.784H15.604ZM21.304 11.684C24.6196 11.684 28.1718 12.3581 31.7251 14.3694L33.2029 11.7586C29.1242 9.44992 25.0444 8.684 21.304 8.684V11.684ZM33.8223 13.7003L37.5663 5.70834L34.8497 4.43566L31.1057 12.4277L33.8223 13.7003ZM36.9685 3.7791C32.988 1.43758 26.7914 0.188 21.304 0.188V3.188C26.4726 3.188 32.084 4.38641 35.4475 6.3649L36.9685 3.7791ZM21.304 0.188C15.4432 0.188 10.6224 1.52949 7.22342 3.98151C3.78321 6.4633 1.876 10.0383 1.876 14.216H4.876C4.876 11.0497 6.28079 8.36069 8.97858 6.41449C11.7176 4.43851 15.8608 3.188 21.304 3.188V0.188ZM1.876 14.216C1.876 18.5367 3.54348 21.4831 6.12424 23.4458C8.60838 25.335 11.8241 26.2243 14.7971 26.7868C16.2974 27.0707 17.7975 27.2813 19.1537 27.4809C20.5321 27.6837 21.748 27.8735 22.7704 28.1184C23.8164 28.3689 24.4984 28.642 24.8957 28.9273C25.2166 29.1577 25.276 29.327 25.276 29.552H28.276C28.276 28.193 27.6042 27.1788 26.6454 26.4904C25.763 25.8568 24.6169 25.4758 23.4691 25.2009C22.2978 24.9204 20.9543 24.7136 19.5905 24.5128C18.2045 24.3089 16.7796 24.1088 15.3549 23.8392C12.4779 23.2947 9.84363 22.5055 7.94026 21.0579C6.13352 19.6839 4.876 17.6353 4.876 14.216H1.876ZM25.276 29.552C25.276 29.8597 25.2094 30.0713 25.1103 30.2339C25.0096 30.3992 24.8212 30.6022 24.4436 30.806C23.6398 31.2398 22.1595 31.58 19.648 31.58V34.58C22.3205 34.58 24.4042 34.2362 25.8684 33.446C26.6248 33.0378 27.2464 32.4938 27.6722 31.7951C28.0996 31.0937 28.276 30.3243 28.276 29.552H25.276ZM19.648 31.58C15.157 31.58 10.189 30.1369 6.99779 28.0759L5.37021 30.5961C9.091 32.9991 14.635 34.58 19.648 34.58V31.58ZM4.82349 28.7043L1.07949 36.7683L3.80051 38.0317L7.54451 29.9677L4.82349 28.7043ZM1.61374 38.6519C5.52645 41.2343 12.4632 43.076 19.216 43.076V40.076C12.8648 40.076 6.55355 38.3177 3.26626 36.1481L1.61374 38.6519ZM44.794 6.368L43.9241 5.146L42.8666 5.89882L43.4598 7.05347L44.794 6.368ZM48.826 14.216L47.4918 14.9015L48.3276 16.5283L49.7594 15.3902L48.826 14.216ZM68.914 18.248V19.748H70.414V18.248H68.914ZM69.634 36.176H71.134V30.6964L68.3431 35.412L69.634 36.176ZM69.634 41H68.134V42.5H69.634V41ZM80.146 41V42.5H81.646V41H80.146ZM68.914 24.8H70.414V23.3H68.914V24.8ZM68.914 28.76L70.322 29.2772L70.414 29.0268V28.76H68.914ZM61.498 0.188C55.0838 0.188 48.4905 1.89536 43.9241 5.146L45.6639 7.59C49.5935 4.79264 55.5282 3.188 61.498 3.188V0.188ZM43.4598 7.05347L47.4918 14.9015L50.1602 13.5305L46.1282 5.68253L43.4598 7.05347ZM49.7594 15.3902C52.2637 13.3996 56.1686 12.116 59.986 12.116V9.116C55.5954 9.116 51.0043 10.5684 47.8926 13.0418L49.7594 15.3902ZM59.986 12.116C62.8037 12.116 64.6224 12.7724 65.7244 13.7468C66.7949 14.6932 67.414 16.1402 67.414 18.248H70.414C70.414 15.5318 69.5931 13.1628 67.7116 11.4992C65.8616 9.86361 63.2163 9.116 59.986 9.116V12.116ZM68.914 16.748H59.986V19.748H68.914V16.748ZM59.986 16.748C53.916 16.748 49.3812 17.9638 46.3331 20.2858C43.2186 22.6582 41.854 26.0327 41.854 29.84H44.854C44.854 26.8073 45.9014 24.3858 48.1509 22.6722C50.4668 20.9082 54.248 19.748 59.986 19.748V16.748ZM41.854 29.84C41.854 33.6184 43.3901 36.9759 46.2204 39.3652C49.0327 41.7393 53.0194 43.076 57.826 43.076V40.076C53.5606 40.076 50.3113 38.8927 48.1556 37.0728C46.0179 35.2681 44.854 32.7576 44.854 29.84H41.854ZM57.826 43.076C63.8266 43.076 68.472 41.0846 70.9249 36.94L68.3431 35.412C66.62 38.3234 63.2013 40.076 57.826 40.076V43.076ZM68.134 36.176V41H71.134V36.176H68.134ZM69.634 42.5H80.146V39.5H69.634V42.5ZM81.646 41V18.896H78.646V41H81.646ZM81.646 18.896C81.646 12.7331 79.8407 7.96803 76.2471 4.77041C72.6852 1.60091 67.6067 0.188 61.498 0.188V3.188C67.1973 3.188 71.4428 4.51109 74.2529 7.01159C77.0313 9.48397 78.646 13.3229 78.646 18.896H81.646ZM60.634 32.516C58.8705 32.516 57.6364 32.0971 56.8826 31.5302C56.1706 30.9947 55.798 30.2688 55.798 29.336H52.798C52.798 31.2112 53.6134 32.8253 55.0794 33.9278C56.5036 34.9989 58.4375 35.516 60.634 35.516V32.516ZM55.798 29.336C55.798 28.3877 56.0795 27.7524 56.6878 27.2924C57.3803 26.7686 58.7208 26.3 61.21 26.3V23.3C58.4432 23.3 56.3277 23.8034 54.8782 24.8996C53.3445 26.0596 52.798 27.6923 52.798 29.336H55.798ZM61.21 26.3H68.914V23.3H61.21V26.3ZM67.414 24.8V28.76H70.414V24.8H67.414ZM67.506 28.2428C66.4785 31.0399 63.9132 32.516 60.634 32.516V35.516C64.8428 35.516 68.7575 33.5361 70.322 29.2772L67.506 28.2428ZM118.696 2.264V0.763996H117.696L117.312 1.68734L118.696 2.264ZM107.752 28.544L106.366 29.1174L107.748 32.4568L109.137 29.1207L107.752 28.544ZM96.8804 2.264L98.2664 1.69058L97.8831 0.763996H96.8804V2.264ZM85.2884 2.264V0.763996H83.0108L83.9103 2.85641L85.2884 2.264ZM102.064 41.288L103.457 41.8451L103.688 41.2673L103.442 40.6956L102.064 41.288ZM101.92 41.648L103.295 42.2492L103.304 42.2273L103.313 42.2051L101.92 41.648ZM89.2484 44.024L90.2361 42.8951L88.7911 41.6308L87.914 43.3388L89.2484 44.024ZM85.1444 52.016L83.81 51.3308L83.278 52.3667L84.1498 53.1389L85.1444 52.016ZM112 43.376L110.62 42.7886L110.614 42.8037L110.608 42.8189L112 43.376ZM129.496 2.264L130.877 2.85137L131.765 0.763996H129.496V2.264ZM117.312 1.68734L106.368 27.9673L109.137 29.1207L120.081 2.84065L117.312 1.68734ZM109.138 27.9706L98.2664 1.69058L95.4943 2.83741L106.366 29.1174L109.138 27.9706ZM96.8804 0.763996H85.2884V3.764H96.8804V0.763996ZM83.9103 2.85641L100.686 41.8804L103.442 40.6956L86.6664 1.67158L83.9103 2.85641ZM100.672 40.7309L100.528 41.0909L103.313 42.2051L103.457 41.8451L100.672 40.7309ZM100.546 41.0468C99.835 42.6722 99.1519 43.6141 98.4328 44.1663C97.7528 44.6884 96.8961 44.972 95.5844 44.972V47.972C97.3687 47.972 98.924 47.5715 100.26 46.5457C101.557 45.5499 102.494 44.0798 103.295 42.2492L100.546 41.0468ZM95.5844 44.972C93.739 44.972 91.7088 44.1837 90.2361 42.8951L88.2606 45.1529C90.244 46.8883 92.9657 47.972 95.5844 47.972V44.972ZM87.914 43.3388L83.81 51.3308L86.4787 52.7012L90.5827 44.7092L87.914 43.3388ZM84.1498 53.1389C87.0238 55.6845 91.7406 57.044 95.9444 57.044V54.044C92.2281 54.044 88.3049 52.8115 86.1389 50.8931L84.1498 53.1389ZM95.9444 57.044C99.6417 57.044 103.05 56.2981 106.048 54.1987C109.034 52.1075 111.452 48.7856 113.393 43.9331L110.608 42.8189C108.805 47.3264 106.687 50.0885 104.327 51.7413C101.979 53.3859 99.231 54.044 95.9444 54.044V57.044ZM113.381 43.9634L130.877 2.85137L128.116 1.67662L110.62 42.7886L113.381 43.9634ZM129.496 0.763996H118.696V3.764H129.496V0.763996Z" fill="black"/>
</svg>
