<svg width="215" height="58" viewBox="0 0 215 58" fill="none" xmlns="http://www.w3.org/2000/svg">
<path d="M32.464 27.064L31.7251 28.3694L33.135 29.1675L33.8223 27.7003L32.464 27.064ZM36.208 19.072L37.5663 19.7083L38.1457 18.4716L36.9685 17.7791L36.208 19.072ZM6.184 43.336L6.99779 42.0759L5.54951 41.1406L4.82349 42.7043L6.184 43.336ZM2.44 51.4L1.07949 50.7683L0.5354 51.9402L1.61374 52.6519L2.44 51.4ZM19.216 57.076C25.2102 57.076 30.1139 55.7572 33.5651 53.3503C37.0603 50.9127 39.004 47.3898 39.004 43.264H36.004C36.004 46.3382 34.5997 48.9713 31.849 50.8897C29.0541 52.8388 24.8138 54.076 19.216 54.076V57.076ZM39.004 43.264C39.004 38.9883 37.3291 36.0779 34.7491 34.1383C32.2681 32.2731 29.0563 31.3865 26.0895 30.8114C24.5935 30.5214 23.0929 30.2997 21.7416 30.0865C20.3668 29.8697 19.1543 29.6628 18.137 29.3988C17.0979 29.1292 16.4182 28.8369 16.0197 28.5327C15.6939 28.2839 15.604 28.0764 15.604 27.784H12.604C12.604 29.1476 13.2453 30.1888 14.1992 30.9171C15.0804 31.5899 16.2289 32.0031 17.3835 32.3027C18.56 32.6079 19.9068 32.8342 21.2742 33.0499C22.6651 33.2693 24.0895 33.4796 25.5185 33.7566C28.4017 34.3155 31.0399 35.1029 32.9464 36.5362C34.7539 37.8951 36.004 39.9077 36.004 43.264H39.004ZM15.604 27.784C15.604 27.421 15.7539 26.976 16.5408 26.5402C17.3955 26.0668 18.9054 25.684 21.304 25.684V22.684C18.6626 22.684 16.5725 23.0932 15.0873 23.9158C13.5341 24.776 12.604 26.131 12.604 27.784H15.604ZM21.304 25.684C24.6196 25.684 28.1718 26.3581 31.7251 28.3694L33.2029 25.7586C29.1242 23.4499 25.0444 22.684 21.304 22.684V25.684ZM33.8223 27.7003L37.5663 19.7083L34.8497 18.4357L31.1057 26.4277L33.8223 27.7003ZM36.9685 17.7791C32.988 15.4376 26.7914 14.188 21.304 14.188V17.188C26.4726 17.188 32.084 18.3864 35.4475 20.3649L36.9685 17.7791ZM21.304 14.188C15.4432 14.188 10.6224 15.5295 7.22342 17.9815C3.78321 20.4633 1.876 24.0383 1.876 28.216H4.876C4.876 25.0497 6.28079 22.3607 8.97858 20.4145C11.7176 18.4385 15.8608 17.188 21.304 17.188V14.188ZM1.876 28.216C1.876 32.5367 3.54348 35.4831 6.12424 37.4458C8.60838 39.335 11.8241 40.2243 14.7971 40.7868C16.2974 41.0707 17.7975 41.2813 19.1537 41.4809C20.5321 41.6837 21.748 41.8735 22.7704 42.1184C23.8164 42.3689 24.4984 42.642 24.8957 42.9273C25.2166 43.1577 25.276 43.327 25.276 43.552H28.276C28.276 42.193 27.6042 41.1788 26.6454 40.4904C25.763 39.8568 24.6169 39.4758 23.4691 39.2009C22.2978 38.9204 20.9543 38.7136 19.5905 38.5128C18.2045 38.3089 16.7796 38.1088 15.3549 37.8392C12.4779 37.2947 9.84363 36.5055 7.94026 35.0579C6.13352 33.6839 4.876 31.6353 4.876 28.216H1.876ZM25.276 43.552C25.276 43.8597 25.2094 44.0713 25.1103 44.2339C25.0096 44.3992 24.8212 44.6022 24.4436 44.806C23.6398 45.2398 22.1595 45.58 19.648 45.58V48.58C22.3205 48.58 24.4042 48.2362 25.8684 47.446C26.6248 47.0378 27.2464 46.4938 27.6722 45.7951C28.0996 45.0937 28.276 44.3243 28.276 43.552H25.276ZM19.648 45.58C15.157 45.58 10.189 44.1369 6.99779 42.0759L5.37021 44.5961C9.091 46.9991 14.635 48.58 19.648 48.58V45.58ZM4.82349 42.7043L1.07949 50.7683L3.80051 52.0317L7.54451 43.9677L4.82349 42.7043ZM1.61374 52.6519C5.52645 55.2343 12.4632 57.076 19.216 57.076V54.076C12.8648 54.076 6.55355 52.3177 3.26626 50.1481L1.61374 52.6519ZM67.834 45.208L69.2353 44.6729L68.5187 42.7961L66.9228 44.0165L67.834 45.208ZM58.474 25.768V24.268H56.974V25.768H58.474ZM68.122 25.768V27.268H69.622V25.768H68.122ZM68.122 17.128H69.622V15.628H68.122V17.128ZM58.474 17.128H56.974V18.628H58.474V17.128ZM58.474 7.696H59.974V6.196H58.474V7.696ZM47.242 7.696V6.196H45.742V7.696H47.242ZM47.242 17.128V18.628H48.742V17.128H47.242ZM41.266 17.128V15.628H39.766V17.128H41.266ZM41.266 25.768H39.766V27.268H41.266V25.768ZM47.242 25.768H48.742V24.268H47.242V25.768ZM70.858 53.128L71.7335 54.346L72.6713 53.6719L72.2593 52.5929L70.858 53.128ZM66.9228 44.0165C65.9965 44.7248 64.6731 45.148 63.298 45.148V48.148C65.2349 48.148 67.2235 47.5632 68.7452 46.3995L66.9228 44.0165ZM63.298 45.148C62.085 45.148 61.3121 44.794 60.835 44.2961C60.3496 43.7897 59.974 42.9292 59.974 41.536H56.974C56.974 43.4548 57.4984 45.1503 58.669 46.3719C59.8479 47.602 61.487 48.148 63.298 48.148V45.148ZM59.974 41.536V25.768H56.974V41.536H59.974ZM58.474 27.268H68.122V24.268H58.474V27.268ZM69.622 25.768V17.128H66.622V25.768H69.622ZM68.122 15.628H58.474V18.628H68.122V15.628ZM59.974 17.128V7.696H56.974V17.128H59.974ZM58.474 6.196H47.242V9.196H58.474V6.196ZM45.742 7.696V17.128H48.742V7.696H45.742ZM47.242 15.628H41.266V18.628H47.242V15.628ZM39.766 17.128V25.768H42.766V17.128H39.766ZM41.266 27.268H47.242V24.268H41.266V27.268ZM45.742 25.768V41.68H48.742V25.768H45.742ZM45.742 41.68C45.742 46.5775 47.165 50.4969 50.0227 53.1779C52.8643 55.8439 56.9026 57.076 61.714 57.076V54.076C57.3814 54.076 54.1837 52.9681 52.0753 50.9901C49.983 49.0271 48.742 45.9985 48.742 41.68H45.742ZM61.714 57.076C65.3501 57.076 69.0836 56.2506 71.7335 54.346L69.9825 51.91C68.0244 53.3174 64.9899 54.076 61.714 54.076V57.076ZM72.2593 52.5929L69.2353 44.6729L66.4327 45.7431L69.4567 53.6631L72.2593 52.5929ZM77.5231 20.368L76.6532 19.146L75.5956 19.8988L76.1888 21.0535L77.5231 20.368ZM81.5551 28.216L80.2208 28.9015L81.0567 30.5283L82.4884 29.3902L81.5551 28.216ZM101.643 32.248V33.748H103.143V32.248H101.643ZM102.363 50.176H103.863V44.6964L101.072 49.412L102.363 50.176ZM102.363 55H100.863V56.5H102.363V55ZM112.875 55V56.5H114.375V55H112.875ZM101.643 38.8H103.143V37.3H101.643V38.8ZM101.643 42.76L103.051 43.2772L103.143 43.0268V42.76H101.643ZM94.2271 14.188C87.8128 14.188 81.2195 15.8954 76.6532 19.146L78.393 21.59C82.3226 18.7926 88.2573 17.188 94.2271 17.188V14.188ZM76.1888 21.0535L80.2208 28.9015L82.8893 27.5305L78.8573 19.6825L76.1888 21.0535ZM82.4884 29.3902C84.9928 27.3996 88.8977 26.116 92.7151 26.116V23.116C88.3244 23.116 83.7333 24.5684 80.6217 27.0418L82.4884 29.3902ZM92.7151 26.116C95.5327 26.116 97.3514 26.7724 98.4535 27.7468C99.524 28.6932 100.143 30.1402 100.143 32.248H103.143C103.143 29.5318 102.322 27.1628 100.441 25.4992C98.5907 23.8636 95.9454 23.116 92.7151 23.116V26.116ZM101.643 30.748H92.7151V33.748H101.643V30.748ZM92.7151 30.748C86.645 30.748 82.1103 31.9638 79.0621 34.2858C75.9477 36.6582 74.5831 40.0327 74.5831 43.84H77.5831C77.5831 40.8073 78.6304 38.3858 80.88 36.6722C83.1958 34.9082 86.9771 33.748 92.7151 33.748V30.748ZM74.5831 43.84C74.5831 47.6184 76.1192 50.9759 78.9494 53.3652C81.7618 55.7393 85.7485 57.076 90.5551 57.076V54.076C86.2897 54.076 83.0404 52.8927 80.8847 51.0728C78.7469 49.2681 77.5831 46.7576 77.5831 43.84H74.5831ZM90.5551 57.076C96.5557 57.076 101.201 55.0846 103.654 50.94L101.072 49.412C99.3491 52.3234 95.9304 54.076 90.5551 54.076V57.076ZM100.863 50.176V55H103.863V50.176H100.863ZM102.363 56.5H112.875V53.5H102.363V56.5ZM114.375 55V32.896H111.375V55H114.375ZM114.375 32.896C114.375 26.7331 112.57 21.968 108.976 18.7704C105.414 15.6009 100.336 14.188 94.2271 14.188V17.188C99.9263 17.188 104.172 18.5111 106.982 21.0116C109.76 23.484 111.375 27.3229 111.375 32.896H114.375ZM93.3631 46.516C91.5996 46.516 90.3655 46.0971 89.6116 45.5302C88.8997 44.9947 88.5271 44.2688 88.5271 43.336H85.5271C85.5271 45.2112 86.3425 46.8253 87.8085 47.9278C89.2326 48.9989 91.1666 49.516 93.3631 49.516V46.516ZM88.5271 43.336C88.5271 42.3877 88.8086 41.7524 89.4169 41.2924C90.1094 40.7686 91.4498 40.3 93.9391 40.3V37.3C91.1723 37.3 89.0568 37.8034 87.6072 38.8996C86.0735 40.0596 85.5271 41.6923 85.5271 43.336H88.5271ZM93.9391 40.3H101.643V37.3H93.9391V40.3ZM100.143 38.8V42.76H103.143V38.8H100.143ZM100.235 42.2428C99.2075 45.0399 96.6422 46.516 93.3631 46.516V49.516C97.5719 49.516 101.487 47.5361 103.051 43.2772L100.235 42.2428ZM160.974 45.784L162.341 46.4035L162.916 45.1344L161.693 44.4672L160.974 45.784ZM152.262 41.032L152.981 39.7152L151.676 39.0036L150.952 40.3014L152.262 41.032ZM152.262 30.232L150.959 30.9735L151.682 32.2464L152.972 31.5534L152.262 30.232ZM160.974 25.552L161.684 26.8734L162.909 26.2154L162.346 24.9442L160.974 25.552ZM143.622 57.076C152.2 57.076 159.234 53.2541 162.341 46.4035L159.608 45.1645C157.099 50.6979 151.317 54.076 143.622 54.076V57.076ZM161.693 44.4672L152.981 39.7152L151.544 42.3488L160.256 47.1008L161.693 44.4672ZM150.952 40.3014C149.131 43.5675 146.538 44.86 143.55 44.86V47.86C147.619 47.86 151.218 45.9845 153.572 41.7626L150.952 40.3014ZM143.55 44.86C141.059 44.86 138.919 43.998 137.405 42.4759C135.895 40.9586 134.898 38.6758 134.898 35.632H131.898C131.898 39.3562 133.134 42.4374 135.278 44.592C137.418 46.742 140.353 47.86 143.55 47.86V44.86ZM134.898 35.632C134.898 32.5882 135.895 30.3054 137.405 28.7881C138.919 27.266 141.059 26.404 143.55 26.404V23.404C140.353 23.404 137.418 24.522 135.278 26.6719C133.134 28.8266 131.898 31.9078 131.898 35.632H134.898ZM143.55 26.404C146.522 26.404 149.129 27.7557 150.959 30.9735L153.566 29.4905C151.22 25.3643 147.634 23.404 143.55 23.404V26.404ZM152.972 31.5534L161.684 26.8734L160.265 24.2306L151.553 28.9106L152.972 31.5534ZM162.346 24.9442C159.239 17.934 152.193 14.188 143.622 14.188V17.188C151.324 17.188 157.094 20.498 159.603 26.1598L162.346 24.9442ZM143.622 14.188C130.31 14.188 120.522 23.0277 120.522 35.632H123.522C123.522 24.9083 131.734 17.188 143.622 17.188V14.188ZM120.522 35.632C120.522 48.2363 130.31 57.076 143.622 57.076V54.076C131.734 54.076 123.522 46.3557 123.522 35.632H120.522ZM197.472 55L196.304 55.9411L196.755 56.5H197.472V55ZM211.08 55V56.5H214.17L212.259 54.0723L211.08 55ZM193.512 32.68L192.442 31.6288L191.517 32.5704L192.334 33.6077L193.512 32.68ZM209.64 16.264L210.71 17.3152L213.217 14.764H209.64V16.264ZM196.248 16.264V14.764H195.651L195.217 15.1751L196.248 16.264ZM179.832 31.816H178.332V35.3033L180.864 32.9049L179.832 31.816ZM179.832 1.576H181.332V0.0759964H179.832V1.576ZM168.6 1.576V0.0759964H167.1V1.576H168.6ZM168.6 55H167.1V56.5H168.6V55ZM179.832 55V56.5H181.332V55H179.832ZM179.832 45.136L178.779 44.0682L178.332 44.5088V45.136H179.832ZM185.232 39.808L186.4 38.8669L185.36 37.5752L184.179 38.7402L185.232 39.808ZM197.472 56.5H211.08V53.5H197.472V56.5ZM212.259 54.0723L194.691 31.7523L192.334 33.6077L209.902 55.9277L212.259 54.0723ZM194.582 33.7312L210.71 17.3152L208.57 15.2128L192.442 31.6288L194.582 33.7312ZM209.64 14.764H196.248V17.764H209.64V14.764ZM195.217 15.1751L178.801 30.7271L180.864 32.9049L197.28 17.3529L195.217 15.1751ZM181.332 31.816V1.576H178.332V31.816H181.332ZM179.832 0.0759964H168.6V3.076H179.832V0.0759964ZM167.1 1.576V55H170.1V1.576H167.1ZM168.6 56.5H179.832V53.5H168.6V56.5ZM181.332 55V45.136H178.332V55H181.332ZM180.886 46.2038L186.286 40.8758L184.179 38.7402L178.779 44.0682L180.886 46.2038ZM184.064 40.7491L196.304 55.9411L198.64 54.0589L186.4 38.8669L184.064 40.7491Z" fill="black"/>
</svg>
