<svg width="45" height="45" viewBox="0 0 45 45" fill="none" xmlns="http://www.w3.org/2000/svg">
<g clip-path="url(#clip0)">
<path d="M7.00781 21.114C8.04846 21.114 8.99377 20.7001 9.68967 20.0291L13.4837 21.9261C13.4642 22.0825 13.4531 22.2413 13.4531 22.4031C13.4531 24.5354 15.188 26.2703 17.3203 26.2703C19.4526 26.2703 21.1875 24.5354 21.1875 22.4031C21.1875 21.8069 21.0515 21.2416 20.8095 20.7367L25.9664 15.5798C26.4713 15.8218 27.0366 15.9578 27.6328 15.9578C29.7651 15.9578 31.5 14.2229 31.5 12.0906C31.5 11.6877 31.4379 11.2993 31.3231 10.9341L35.8033 7.57416C36.4169 7.98404 37.1534 8.22339 37.9453 8.22339C40.0776 8.22339 41.8125 6.48853 41.8125 4.3562C41.8125 2.22388 40.0776 0.489014 37.9453 0.489014C35.813 0.489014 34.0781 2.22388 34.0781 4.3562C34.0781 4.75903 34.1402 5.14743 34.255 5.51266L29.7749 8.87262C29.1612 8.46274 28.4247 8.22339 27.6328 8.22339C25.5005 8.22339 23.7656 9.95825 23.7656 12.0906C23.7656 12.6868 23.9016 13.2521 24.1436 13.757L18.9867 18.9139C18.4818 18.6718 17.9165 18.5359 17.3203 18.5359C16.2797 18.5359 15.3344 18.9498 14.6385 19.6208L10.8445 17.7238C10.8639 17.5674 10.875 17.4086 10.875 17.2468C10.875 15.1145 9.14014 13.3796 7.00781 13.3796C4.87549 13.3796 3.14062 15.1145 3.14062 17.2468C3.14062 19.3792 4.87549 21.114 7.00781 21.114ZM37.9453 3.06714C38.656 3.06714 39.2344 3.64554 39.2344 4.3562C39.2344 5.06686 38.656 5.64526 37.9453 5.64526C37.2346 5.64526 36.6562 5.06686 36.6562 4.3562C36.6562 3.64554 37.2346 3.06714 37.9453 3.06714ZM27.6328 10.8015C28.3435 10.8015 28.9219 11.3799 28.9219 12.0906C28.9219 12.8012 28.3435 13.3796 27.6328 13.3796C26.9221 13.3796 26.3438 12.8012 26.3438 12.0906C26.3438 11.3799 26.9221 10.8015 27.6328 10.8015ZM17.3203 21.114C18.031 21.114 18.6094 21.6924 18.6094 22.4031C18.6094 23.1137 18.031 23.6921 17.3203 23.6921C16.6096 23.6921 16.0312 23.1137 16.0312 22.4031C16.0312 21.6924 16.6096 21.114 17.3203 21.114ZM7.00781 15.9578C7.71848 15.9578 8.29688 16.5362 8.29688 17.2468C8.29688 17.9575 7.71848 18.5359 7.00781 18.5359C6.29715 18.5359 5.71875 17.9575 5.71875 17.2468C5.71875 16.5362 6.29715 15.9578 7.00781 15.9578Z" fill="#78B539"/>
<path d="M43.1875 41.9109H41.8125V14.6687C41.8125 13.9567 41.2354 13.3796 40.5234 13.3796H35.3672C34.6552 13.3796 34.0781 13.9567 34.0781 14.6687V41.9109H31.5V22.4031C31.5 21.6911 30.9229 21.114 30.2109 21.114H25.0547C24.3427 21.114 23.7656 21.6911 23.7656 22.4031V41.9109H21.1875V32.7156C21.1875 32.0036 20.6104 31.4265 19.8984 31.4265H14.7422C14.0302 31.4265 13.4531 32.0036 13.4531 32.7156V41.9109H10.875V27.5593C10.875 26.8473 10.2979 26.2703 9.58594 26.2703H4.42969C3.71768 26.2703 3.14062 26.8473 3.14062 27.5593V41.9109H1.76562C1.05362 41.9109 0.476562 42.4879 0.476562 43.2C0.476562 43.912 1.05362 44.489 1.76562 44.489H43.1875C43.8995 44.489 44.4766 43.912 44.4766 43.2C44.4766 42.4879 43.8995 41.9109 43.1875 41.9109ZM36.6562 15.9578H39.2344V41.9109H36.6562V15.9578ZM26.3438 23.6921H28.9219V41.9109H26.3438V23.6921ZM16.0312 34.0046H18.6094V41.9109H16.0312V34.0046ZM5.71875 28.8484H8.29688V41.9109H5.71875V28.8484Z" fill="#78B539"/>
</g>
<defs>
<clipPath id="clip0">
<rect width="44" height="44" fill="white" transform="translate(0.476562 0.489014)"/>
</clipPath>
</defs>
</svg>
