<svg width="386" height="58" viewBox="0 0 386 58" fill="none" xmlns="http://www.w3.org/2000/svg">
<path d="M32.464 27.064L31.7251 28.3694L33.135 29.1675L33.8223 27.7003L32.464 27.064ZM36.208 19.072L37.5663 19.7083L38.1457 18.4716L36.9685 17.7791L36.208 19.072ZM6.184 43.336L6.99779 42.0759L5.54951 41.1406L4.82349 42.7043L6.184 43.336ZM2.44 51.4L1.07949 50.7683L0.5354 51.9402L1.61374 52.6519L2.44 51.4ZM19.216 57.076C25.2102 57.076 30.1139 55.7572 33.5651 53.3503C37.0603 50.9127 39.004 47.3898 39.004 43.264H36.004C36.004 46.3382 34.5997 48.9713 31.849 50.8897C29.0541 52.8388 24.8138 54.076 19.216 54.076V57.076ZM39.004 43.264C39.004 38.9883 37.3291 36.0779 34.7491 34.1383C32.2681 32.2731 29.0563 31.3865 26.0895 30.8114C24.5935 30.5214 23.0929 30.2997 21.7416 30.0865C20.3668 29.8697 19.1543 29.6628 18.137 29.3988C17.0979 29.1292 16.4182 28.8369 16.0197 28.5327C15.6939 28.2839 15.604 28.0764 15.604 27.784H12.604C12.604 29.1476 13.2453 30.1888 14.1992 30.9171C15.0804 31.5899 16.2289 32.0031 17.3835 32.3027C18.56 32.6079 19.9068 32.8342 21.2742 33.0499C22.6651 33.2693 24.0895 33.4796 25.5185 33.7566C28.4017 34.3155 31.0399 35.1029 32.9464 36.5362C34.7539 37.8951 36.004 39.9077 36.004 43.264H39.004ZM15.604 27.784C15.604 27.421 15.7539 26.976 16.5408 26.5402C17.3955 26.0668 18.9054 25.684 21.304 25.684V22.684C18.6626 22.684 16.5725 23.0932 15.0873 23.9158C13.5341 24.776 12.604 26.131 12.604 27.784H15.604ZM21.304 25.684C24.6196 25.684 28.1718 26.3581 31.7251 28.3694L33.2029 25.7586C29.1242 23.4499 25.0444 22.684 21.304 22.684V25.684ZM33.8223 27.7003L37.5663 19.7083L34.8497 18.4357L31.1057 26.4277L33.8223 27.7003ZM36.9685 17.7791C32.988 15.4376 26.7914 14.188 21.304 14.188V17.188C26.4726 17.188 32.084 18.3864 35.4475 20.3649L36.9685 17.7791ZM21.304 14.188C15.4432 14.188 10.6224 15.5295 7.22342 17.9815C3.78321 20.4633 1.876 24.0383 1.876 28.216H4.876C4.876 25.0497 6.28079 22.3607 8.97858 20.4145C11.7176 18.4385 15.8608 17.188 21.304 17.188V14.188ZM1.876 28.216C1.876 32.5367 3.54348 35.4831 6.12424 37.4458C8.60838 39.335 11.8241 40.2243 14.7971 40.7868C16.2974 41.0707 17.7975 41.2813 19.1537 41.4809C20.5321 41.6837 21.748 41.8735 22.7704 42.1184C23.8164 42.3689 24.4984 42.642 24.8957 42.9273C25.2166 43.1577 25.276 43.327 25.276 43.552H28.276C28.276 42.193 27.6042 41.1788 26.6454 40.4904C25.763 39.8568 24.6169 39.4758 23.4691 39.2009C22.2978 38.9204 20.9543 38.7136 19.5905 38.5128C18.2045 38.3089 16.7796 38.1088 15.3549 37.8392C12.4779 37.2947 9.84363 36.5055 7.94026 35.0579C6.13352 33.6839 4.876 31.6353 4.876 28.216H1.876ZM25.276 43.552C25.276 43.8597 25.2094 44.0713 25.1103 44.2339C25.0096 44.3992 24.8212 44.6022 24.4436 44.806C23.6398 45.2398 22.1595 45.58 19.648 45.58V48.58C22.3205 48.58 24.4042 48.2362 25.8684 47.446C26.6248 47.0378 27.2464 46.4938 27.6722 45.7951C28.0996 45.0937 28.276 44.3243 28.276 43.552H25.276ZM19.648 45.58C15.157 45.58 10.189 44.1369 6.99779 42.0759L5.37021 44.5961C9.091 46.9991 14.635 48.58 19.648 48.58V45.58ZM4.82349 42.7043L1.07949 50.7683L3.80051 52.0317L7.54451 43.9677L4.82349 42.7043ZM1.61374 52.6519C5.52645 55.2343 12.4632 57.076 19.216 57.076V54.076C12.8648 54.076 6.55355 52.3177 3.26626 50.1481L1.61374 52.6519ZM73.666 16.264V14.764H72.166V16.264H73.666ZM56.89 16.264H58.39V14.764H56.89V16.264ZM45.658 16.264V14.764H44.158V16.264H45.658ZM74.242 50.392H75.742V46.3907L73.1116 49.4059L74.242 50.392ZM74.242 55H72.742V56.5H74.242V55ZM84.898 55V56.5H86.398V55H84.898ZM84.898 16.264H86.398V14.764H84.898V16.264ZM72.166 16.264V35.416H75.166V16.264H72.166ZM72.166 35.416C72.166 38.7282 71.2981 40.9304 70.0429 42.2925C68.8004 43.641 67.0039 44.356 64.738 44.356V47.356C67.6561 47.356 70.3236 46.415 72.2491 44.3255C74.1619 42.2496 75.166 39.2318 75.166 35.416H72.166ZM64.738 44.356C62.5468 44.356 61.0547 43.7305 60.079 42.6173C59.0713 41.4675 58.39 39.5448 58.39 36.496H55.39C55.39 39.9272 56.1487 42.6845 57.823 44.5947C59.5293 46.5415 61.9612 47.356 64.738 47.356V44.356ZM58.39 36.496V16.264H55.39V36.496H58.39ZM56.89 14.764H45.658V17.764H56.89V14.764ZM44.158 16.264V38.152H47.158V16.264H44.158ZM44.158 38.152C44.158 44.4136 45.956 49.201 49.2439 52.4181C52.5243 55.6279 57.0851 57.076 62.218 57.076V54.076C57.6309 54.076 53.9117 52.7881 51.342 50.2739C48.78 47.767 47.158 43.8424 47.158 38.152H44.158ZM62.218 57.076C67.3517 57.076 72.1032 55.1256 75.3724 51.3781L73.1116 49.4059C70.4768 52.4264 66.5883 54.076 62.218 54.076V57.076ZM72.742 50.392V55H75.742V50.392H72.742ZM74.242 56.5H84.898V53.5H74.242V56.5ZM86.398 55V16.264H83.398V55H86.398ZM84.898 14.764H73.666V17.764H84.898V14.764ZM132.816 45.784L134.182 46.4035L134.757 45.1344L133.534 44.4672L132.816 45.784ZM124.104 41.032L124.822 39.7152L123.517 39.0036L122.794 40.3014L124.104 41.032ZM124.104 30.232L122.8 30.9735L123.524 32.2464L124.814 31.5534L124.104 30.232ZM132.816 25.552L133.526 26.8734L134.75 26.2154L134.187 24.9442L132.816 25.552ZM115.464 57.076C124.041 57.076 131.075 53.2541 134.182 46.4035L131.45 45.1645C128.94 50.6979 123.158 54.076 115.464 54.076V57.076ZM133.534 44.4672L124.822 39.7152L123.385 42.3488L132.097 47.1008L133.534 44.4672ZM122.794 40.3014C120.972 43.5675 118.379 44.86 115.392 44.86V47.86C119.46 47.86 123.059 45.9845 125.414 41.7626L122.794 40.3014ZM115.392 44.86C112.901 44.86 110.761 43.998 109.246 42.4759C107.736 40.9586 106.74 38.6758 106.74 35.632H103.74C103.74 39.3562 104.975 42.4374 107.119 44.592C109.259 46.742 112.195 47.86 115.392 47.86V44.86ZM106.74 35.632C106.74 32.5882 107.736 30.3054 109.246 28.7881C110.761 27.266 112.901 26.404 115.392 26.404V23.404C112.195 23.404 109.259 24.522 107.119 26.6719C104.975 28.8266 103.74 31.9078 103.74 35.632H106.74ZM115.392 26.404C118.364 26.404 120.97 27.7557 122.8 30.9735L125.408 29.4905C123.061 25.3643 119.476 23.404 115.392 23.404V26.404ZM124.814 31.5534L133.526 26.8734L132.106 24.2306L123.394 28.9106L124.814 31.5534ZM134.187 24.9442C131.08 17.934 124.034 14.188 115.464 14.188V17.188C123.165 17.188 128.935 20.498 131.444 26.1598L134.187 24.9442ZM115.464 14.188C102.152 14.188 92.3637 23.0277 92.3637 35.632H95.3637C95.3637 24.9083 103.576 17.188 115.464 17.188V14.188ZM92.3637 35.632C92.3637 48.2363 102.152 57.076 115.464 57.076V54.076C103.576 54.076 95.3637 46.3557 95.3637 35.632H92.3637ZM176.303 45.784L177.669 46.4035L178.244 45.1344L177.021 44.4672L176.303 45.784ZM167.591 41.032L168.309 39.7152L167.004 39.0036L166.281 40.3014L167.591 41.032ZM167.591 30.232L166.287 30.9735L167.01 32.2464L168.3 31.5534L167.591 30.232ZM176.303 25.552L177.012 26.8734L178.237 26.2154L177.674 24.9442L176.303 25.552ZM158.951 57.076C167.528 57.076 174.562 53.2541 177.669 46.4035L174.936 45.1645C172.427 50.6979 166.645 54.076 158.951 54.076V57.076ZM177.021 44.4672L168.309 39.7152L166.872 42.3488L175.584 47.1008L177.021 44.4672ZM166.281 40.3014C164.459 43.5675 161.866 44.86 158.879 44.86V47.86C162.947 47.86 166.546 45.9845 168.901 41.7626L166.281 40.3014ZM158.879 44.86C156.388 44.86 154.247 43.998 152.733 42.4759C151.223 40.9586 150.227 38.6758 150.227 35.632H147.227C147.227 39.3562 148.462 42.4374 150.606 44.592C152.746 46.742 155.682 47.86 158.879 47.86V44.86ZM150.227 35.632C150.227 32.5882 151.223 30.3054 152.733 28.7881C154.247 27.266 156.388 26.404 158.879 26.404V23.404C155.682 23.404 152.746 24.522 150.606 26.6719C148.462 28.8266 147.227 31.9078 147.227 35.632H150.227ZM158.879 26.404C161.851 26.404 164.457 27.7557 166.287 30.9735L168.895 29.4905C166.548 25.3643 162.963 23.404 158.879 23.404V26.404ZM168.3 31.5534L177.012 26.8734L175.593 24.2306L166.881 28.9106L168.3 31.5534ZM177.674 24.9442C174.567 17.934 167.521 14.188 158.951 14.188V17.188C166.652 17.188 172.422 20.498 174.931 26.1598L177.674 24.9442ZM158.951 14.188C145.639 14.188 135.851 23.0277 135.851 35.632H138.851C138.851 24.9083 147.063 17.188 158.951 17.188V14.188ZM135.851 35.632C135.851 48.2363 145.639 57.076 158.951 57.076V54.076C147.063 54.076 138.851 46.3557 138.851 35.632H135.851ZM218.925 49.312L220.053 50.3012L220.943 49.2869L220.028 48.2951L218.925 49.312ZM212.949 42.832L214.052 41.8151L213.022 40.6984L211.919 41.7423L212.949 42.832ZM192.141 38.8V37.3H190.268L190.678 39.1277L192.141 38.8ZM221.445 38.8V40.3H222.834L222.941 38.915L221.445 38.8ZM211.077 32.248V33.748H212.84L212.558 32.0085L211.077 32.248ZM191.997 32.248L190.516 32.0119L190.239 33.748H191.997V32.248ZM223.161 35.776C223.161 29.1788 220.826 23.7521 216.885 19.9777C212.954 16.2125 207.526 14.188 201.501 14.188V17.188C206.853 17.188 211.505 18.9795 214.81 22.1443C218.105 25.2999 220.161 29.9172 220.161 35.776H223.161ZM201.501 14.188C188.926 14.188 179.337 23.1523 179.337 35.632H182.337C182.337 24.9277 190.461 17.188 201.501 17.188V14.188ZM179.337 35.632C179.337 41.7874 181.674 47.1817 185.852 51.0276C190.022 54.8667 195.93 57.076 202.941 57.076V54.076C196.561 54.076 191.417 52.0733 187.883 48.8204C184.357 45.5743 182.337 40.9966 182.337 35.632H179.337ZM202.941 57.076C210.241 57.076 216.1 54.8079 220.053 50.3012L217.798 48.3228C214.551 52.0241 209.61 54.076 202.941 54.076V57.076ZM220.028 48.2951L214.052 41.8151L211.847 43.8489L217.823 50.3289L220.028 48.2951ZM211.919 41.7423C209.541 43.9912 206.961 45.076 203.229 45.076V48.076C207.706 48.076 211.03 46.7128 213.98 43.9217L211.919 41.7423ZM203.229 45.076C197.867 45.076 194.499 42.4658 193.605 38.4723L190.678 39.1277C191.944 44.7822 196.784 48.076 203.229 48.076V45.076ZM192.141 40.3H221.445V37.3H192.141V40.3ZM222.941 38.915C223.005 38.0882 223.161 36.7152 223.161 35.776H220.161C220.161 36.5648 220.03 37.6398 219.95 38.685L222.941 38.915ZM201.573 25.684C205.876 25.684 208.922 28.3162 209.597 32.4875L212.558 32.0085C211.649 26.3878 207.351 22.684 201.573 22.684V25.684ZM211.077 30.748H191.997V33.748H211.077V30.748ZM193.479 32.4841C193.824 30.3167 194.78 28.6389 196.132 27.5002C197.485 26.3603 199.326 25.684 201.573 25.684V22.684C198.709 22.684 196.158 23.5557 194.199 25.2058C192.239 26.8571 190.963 29.2113 190.516 32.0119L193.479 32.4841ZM265.787 49.312L266.915 50.3012L267.805 49.2869L266.89 48.2951L265.787 49.312ZM259.811 42.832L260.914 41.8151L259.884 40.6984L258.781 41.7423L259.811 42.832ZM239.003 38.8V37.3H237.13L237.54 39.1277L239.003 38.8ZM268.307 38.8V40.3H269.696L269.803 38.915L268.307 38.8ZM257.939 32.248V33.748H259.701L259.42 32.0085L257.939 32.248ZM238.859 32.248L237.378 32.0119L237.101 33.748H238.859V32.248ZM270.023 35.776C270.023 29.1788 267.688 23.7521 263.747 19.9777C259.815 16.2125 254.388 14.188 248.363 14.188V17.188C253.715 17.188 258.367 18.9795 261.672 22.1443C264.967 25.2999 267.023 29.9172 267.023 35.776H270.023ZM248.363 14.188C235.787 14.188 226.199 23.1523 226.199 35.632H229.199C229.199 24.9277 237.323 17.188 248.363 17.188V14.188ZM226.199 35.632C226.199 41.7874 228.536 47.1817 232.713 51.0276C236.884 54.8667 242.791 57.076 249.803 57.076V54.076C243.423 54.076 238.279 52.0733 234.745 48.8204C231.219 45.5743 229.199 40.9966 229.199 35.632H226.199ZM249.803 57.076C257.103 57.076 262.962 54.8079 266.915 50.3012L264.66 48.3228C261.413 52.0241 256.471 54.076 249.803 54.076V57.076ZM266.89 48.2951L260.914 41.8151L258.709 43.8489L264.685 50.3289L266.89 48.2951ZM258.781 41.7423C256.403 43.9912 253.823 45.076 250.091 45.076V48.076C254.567 48.076 257.892 46.7128 260.842 43.9217L258.781 41.7423ZM250.091 45.076C244.729 45.076 241.361 42.4658 240.467 38.4723L237.54 39.1277C238.805 44.7822 243.646 48.076 250.091 48.076V45.076ZM239.003 40.3H268.307V37.3H239.003V40.3ZM269.803 38.915C269.866 38.0882 270.023 36.7152 270.023 35.776H267.023C267.023 36.5648 266.892 37.6398 266.812 38.685L269.803 38.915ZM248.435 25.684C252.737 25.684 255.784 28.3162 256.459 32.4875L259.42 32.0085C258.511 26.3878 254.213 22.684 248.435 22.684V25.684ZM257.939 30.748H238.859V33.748H257.939V30.748ZM240.341 32.4841C240.686 30.3167 241.642 28.6389 242.994 27.5002C244.347 26.3603 246.188 25.684 248.435 25.684V22.684C245.57 22.684 243.02 23.5557 241.061 25.2058C239.101 26.8571 237.824 29.2113 237.378 32.0119L240.341 32.4841ZM305.665 1.576V0.0759964H304.165V1.576H305.665ZM305.665 20.368L304.543 21.363L307.165 24.3217V20.368H305.665ZM306.169 50.536H307.669V46.3793L305.015 49.5781L306.169 50.536ZM306.169 55H304.669V56.5H306.169V55ZM316.897 55V56.5H318.397V55H316.897ZM316.897 1.576H318.397V0.0759964H316.897V1.576ZM304.165 1.576V20.368H307.165V1.576H304.165ZM306.788 19.373C303.632 15.813 299.15 14.188 294.073 14.188V17.188C298.501 17.188 302.082 18.587 304.543 21.363L306.788 19.373ZM294.073 14.188C288.24 14.188 283.005 16.2653 279.226 20.035C275.442 23.8087 273.205 29.1899 273.205 35.632H276.205C276.205 29.9061 278.18 25.3153 281.344 22.159C284.513 18.9987 288.963 17.188 294.073 17.188V14.188ZM273.205 35.632C273.205 42.0741 275.442 47.4553 279.226 51.229C283.005 54.9987 288.24 57.076 294.073 57.076V54.076C288.963 54.076 284.513 52.2653 281.344 49.105C278.18 45.9487 276.205 41.3579 276.205 35.632H273.205ZM294.073 57.076C299.594 57.076 304.167 55.2974 307.324 51.4939L305.015 49.5781C302.555 52.5426 298.92 54.076 294.073 54.076V57.076ZM304.669 50.536V55H307.669V50.536H304.669ZM306.169 56.5H316.897V53.5H306.169V56.5ZM318.397 55V1.576H315.397V55H318.397ZM316.897 0.0759964H305.665V3.076H316.897V0.0759964ZM296.017 44.86C293.577 44.86 291.496 43.9905 290.022 42.4649C288.549 40.9396 287.581 38.6506 287.581 35.632H284.581C284.581 39.3094 285.774 42.3844 287.864 44.5491C289.955 46.7135 292.841 47.86 296.017 47.86V44.86ZM287.581 35.632C287.581 32.6134 288.549 30.3244 290.022 28.7991C291.496 27.2735 293.577 26.404 296.017 26.404V23.404C292.841 23.404 289.955 24.5505 287.864 26.7149C285.774 28.8796 284.581 31.9546 284.581 35.632H287.581ZM296.017 26.404C298.416 26.404 300.48 27.2699 301.947 28.7963C303.413 30.3227 304.381 32.6133 304.381 35.632H307.381C307.381 31.9547 306.189 28.8813 304.11 26.7177C302.031 24.5541 299.162 23.404 296.017 23.404V26.404ZM304.381 35.632C304.381 38.6507 303.413 40.9413 301.947 42.4677C300.48 43.9941 298.416 44.86 296.017 44.86V47.86C299.162 47.86 302.031 46.7099 304.11 44.5463C306.189 42.3827 307.381 39.3093 307.381 35.632H304.381ZM361.003 37.504H359.503V39.004H361.003V37.504ZM371.875 37.504V39.004H373.375V37.504H371.875ZM345.307 13.384L344.055 12.559L343.186 13.8783L344.548 14.6777L345.307 13.384ZM354.019 18.496L353.26 19.7897L354.458 20.4924L355.251 19.3526L354.019 18.496ZM361.003 39.004H371.875V36.004H361.003V39.004ZM373.375 37.504C373.375 36.0475 373.934 34.8619 374.922 33.6637C375.963 32.4028 377.334 31.2843 378.926 29.8536C382.029 27.0648 385.471 23.4809 385.471 17.056H382.471C382.471 22.1511 379.866 24.9752 376.921 27.6224C375.488 28.9097 373.836 30.2662 372.608 31.7548C371.329 33.3061 370.375 35.1445 370.375 37.504H373.375ZM385.471 17.056C385.471 12.3029 383.348 8.52241 379.741 5.98341C376.188 3.48282 371.282 2.236 365.683 2.236V5.236C370.885 5.236 375.122 6.40118 378.014 8.43659C380.851 10.4336 382.471 13.3131 382.471 17.056H385.471ZM365.683 2.236C355.543 2.236 348.263 6.16782 344.055 12.559L346.56 14.209C350.127 8.79218 356.384 5.236 365.683 5.236V2.236ZM344.548 14.6777L353.26 19.7897L354.779 17.2023L346.066 12.0903L344.548 14.6777ZM355.251 19.3526C357.278 16.4389 360.348 14.668 364.459 14.668V11.668C359.355 11.668 355.369 13.9291 352.788 17.6394L355.251 19.3526ZM364.459 14.668C366.581 14.668 368.184 15.1762 369.214 15.9336C370.202 16.6596 370.735 17.6573 370.735 18.928H373.735C373.735 16.6707 372.721 14.7884 370.991 13.5164C369.303 12.2758 367.018 11.668 364.459 11.668V14.668ZM370.735 18.928C370.735 19.999 370.27 20.9794 369.334 22.0881C368.36 23.2421 367.084 24.3098 365.6 25.6846C362.737 28.3364 359.503 31.796 359.503 37.504H362.503C362.503 33.132 364.886 30.4356 367.639 27.8854C368.963 26.6592 370.495 25.3644 371.627 24.0231C372.797 22.6366 373.735 20.989 373.735 18.928H370.735ZM366.475 57.076C371.293 57.076 374.887 53.4943 374.887 49.024H371.887C371.887 51.7537 369.721 54.076 366.475 54.076V57.076ZM374.887 49.024C374.887 44.4285 371.237 41.116 366.475 41.116V44.116C369.777 44.116 371.887 46.2755 371.887 49.024H374.887ZM366.475 41.116C361.713 41.116 358.063 44.4285 358.063 49.024H361.063C361.063 46.2755 363.173 44.116 366.475 44.116V41.116ZM358.063 49.024C358.063 53.4943 361.657 57.076 366.475 57.076V54.076C363.229 54.076 361.063 51.7537 361.063 49.024H358.063Z" fill="black"/>
</svg>
