<svg width="195" height="50" viewBox="0 0 195 50" fill="none" xmlns="http://www.w3.org/2000/svg">
<path d="M30.5686 46.5158C29.4646 47.3318 28.0966 47.9558 26.4646 48.3878C24.8806 48.7718 23.2006 48.9638 21.4246 48.9638C16.8166 48.9638 13.2406 47.7878 10.6966 45.4358C8.20056 43.0838 6.95256 39.6278 6.95256 35.0678V19.1558H0.976562V10.5158H6.95256V1.0838H18.1846V10.5158H27.8326V19.1558H18.1846V34.9238C18.1846 36.5558 18.5926 37.8278 19.4086 38.7398C20.2726 39.6038 21.4726 40.0358 23.0086 40.0358C24.7846 40.0358 26.2966 39.5558 27.5446 38.5958L30.5686 46.5158Z" stroke="black" stroke-width="1.5"/>
<path d="M75.0623 29.1638C75.0623 29.3078 74.9903 30.3158 74.8463 32.1878H45.5423C46.0703 34.5878 47.3183 36.4838 49.2863 37.8758C51.2543 39.2678 53.7023 39.9638 56.6303 39.9638C58.6463 39.9638 60.4223 39.6758 61.9583 39.0998C63.5423 38.4758 65.0063 37.5158 66.3503 36.2198L72.3263 42.6998C68.6783 46.8758 63.3503 48.9638 56.3423 48.9638C51.9743 48.9638 48.1103 48.1238 44.7503 46.4438C41.3903 44.7158 38.7983 42.3398 36.9743 39.3158C35.1503 36.2918 34.2383 32.8598 34.2383 29.0198C34.2383 25.2278 35.1263 21.8198 36.9023 18.7958C38.7263 15.7238 41.1983 13.3478 44.3183 11.6678C47.4863 9.9398 51.0143 9.0758 54.9023 9.0758C58.6943 9.0758 62.1263 9.8918 65.1983 11.5238C68.2703 13.1558 70.6703 15.5078 72.3983 18.5798C74.1743 21.6038 75.0623 25.1318 75.0623 29.1638ZM54.9743 17.5718C52.4303 17.5718 50.2943 18.2918 48.5663 19.7318C46.8383 21.1718 45.7823 23.1398 45.3983 25.6358H64.4783C64.0943 23.1878 63.0383 21.2438 61.3103 19.8038C59.5823 18.3158 57.4703 17.5718 54.9743 17.5718Z" stroke="black" stroke-width="1.5"/>
<path d="M98.5495 9.0758C104.55 9.0758 109.157 10.5158 112.373 13.3958C115.589 16.2278 117.198 20.5238 117.198 26.2838V48.3878H106.686V43.5638C104.574 47.1638 100.637 48.9638 94.8775 48.9638C91.9015 48.9638 89.3095 48.4598 87.1015 47.4518C84.9415 46.4438 83.2855 45.0518 82.1335 43.2758C80.9815 41.4998 80.4055 39.4838 80.4055 37.2278C80.4055 33.6278 81.7495 30.7958 84.4375 28.7318C87.1735 26.6678 91.3735 25.6358 97.0375 25.6358H105.965C105.965 23.1878 105.221 21.3158 103.733 20.0198C102.245 18.6758 100.013 18.0038 97.0375 18.0038C94.9735 18.0038 92.9335 18.3398 90.9175 19.0118C88.9495 19.6358 87.2695 20.4998 85.8775 21.6038L81.8455 13.7558C83.9575 12.2678 86.4775 11.1158 89.4055 10.2998C92.3815 9.4838 95.4295 9.0758 98.5495 9.0758ZM97.6855 41.4038C99.6055 41.4038 101.309 40.9718 102.798 40.1078C104.286 39.1958 105.341 37.8758 105.965 36.1478V32.1878H98.2615C93.6535 32.1878 91.3495 33.6998 91.3495 36.7238C91.3495 38.1638 91.9015 39.3158 93.0055 40.1798C94.1575 40.9958 95.7175 41.4038 97.6855 41.4038Z" stroke="black" stroke-width="1.5"/>
<path d="M178.411 9.0758C183.259 9.0758 187.099 10.5158 189.931 13.3958C192.811 16.2278 194.251 20.4998 194.251 26.2118V48.3878H183.019V27.9398C183.019 24.8678 182.371 22.5878 181.075 21.0998C179.827 19.5638 178.027 18.7958 175.675 18.7958C173.035 18.7958 170.947 19.6598 169.411 21.3878C167.875 23.0678 167.107 25.5878 167.107 28.9478V48.3878H155.875V27.9398C155.875 21.8438 153.427 18.7958 148.531 18.7958C145.939 18.7958 143.875 19.6598 142.339 21.3878C140.803 23.0678 140.035 25.5878 140.035 28.9478V48.3878H128.803V9.6518H139.531V14.1158C140.971 12.4838 142.723 11.2358 144.787 10.3718C146.899 9.5078 149.203 9.0758 151.699 9.0758C154.435 9.0758 156.907 9.6278 159.115 10.7318C161.323 11.7878 163.099 13.3478 164.443 15.4118C166.027 13.3958 168.019 11.8358 170.419 10.7318C172.867 9.6278 175.531 9.0758 178.411 9.0758Z" stroke="black" stroke-width="1.5"/>
</svg>
