<svg width="251" height="58" viewBox="0 0 251 58" fill="none" xmlns="http://www.w3.org/2000/svg">
<path d="M35.832 16.264V14.764H34.8358L34.4494 15.6822L35.832 16.264ZM24.744 42.616L23.3547 43.1816L24.7211 46.538L26.1266 43.1977L24.744 42.616ZM14.016 16.264L15.4053 15.6984L15.0249 14.764H14.016V16.264ZM2.424 16.264V14.764H0.166916L1.04106 16.8449L2.424 16.264ZM18.696 55L17.3131 55.5809L17.6991 56.5H18.696V55ZM30.288 55V56.5H31.2832L31.67 55.5831L30.288 55ZM46.632 16.264L48.014 16.8471L48.893 14.764H46.632V16.264ZM34.4494 15.6822L23.3614 42.0343L26.1266 43.1977L37.2146 16.8457L34.4494 15.6822ZM26.1333 42.0504L15.4053 15.6984L12.6267 16.8296L23.3547 43.1816L26.1333 42.0504ZM14.016 14.764H2.424V17.764H14.016V14.764ZM1.04106 16.8449L17.3131 55.5809L20.0789 54.4191L3.80694 15.6831L1.04106 16.8449ZM18.696 56.5H30.288V53.5H18.696V56.5ZM31.67 55.5831L48.014 16.8471L45.25 15.6809L28.906 54.4169L31.67 55.5831ZM46.632 14.764H35.832V17.764H46.632V14.764ZM50.3096 20.368L49.4397 19.146L48.3822 19.8988L48.9754 21.0535L50.3096 20.368ZM54.3416 28.216L53.0074 28.9015L53.8432 30.5283L55.275 29.3902L54.3416 28.216ZM74.4296 32.248V33.748H75.9296V32.248H74.4296ZM75.1496 50.176H76.6496V44.6964L73.8588 49.412L75.1496 50.176ZM75.1496 55H73.6496V56.5H75.1496V55ZM85.6616 55V56.5H87.1616V55H85.6616ZM74.4296 38.8H75.9296V37.3H74.4296V38.8ZM74.4296 42.76L75.8376 43.2772L75.9296 43.0268V42.76H74.4296ZM67.0136 14.188C60.5994 14.188 54.0061 15.8954 49.4397 19.146L51.1795 21.59C55.1091 18.7926 61.0439 17.188 67.0136 17.188V14.188ZM48.9754 21.0535L53.0074 28.9015L55.6758 27.5305L51.6438 19.6825L48.9754 21.0535ZM55.275 29.3902C57.7794 27.3996 61.6843 26.116 65.5016 26.116V23.116C61.111 23.116 56.5199 24.5684 53.4083 27.0418L55.275 29.3902ZM65.5016 26.116C68.3193 26.116 70.138 26.7724 71.2401 27.7468C72.3105 28.6932 72.9296 30.1402 72.9296 32.248H75.9296C75.9296 29.5318 75.1087 27.1628 73.2272 25.4992C71.3772 23.8636 68.732 23.116 65.5016 23.116V26.116ZM74.4296 30.748H65.5016V33.748H74.4296V30.748ZM65.5016 30.748C59.4316 30.748 54.8969 31.9638 51.8487 34.2858C48.7343 36.6582 47.3696 40.0327 47.3696 43.84H50.3696C50.3696 40.8073 51.417 38.3858 53.6666 36.6722C55.9824 34.9082 59.7637 33.748 65.5016 33.748V30.748ZM47.3696 43.84C47.3696 47.6184 48.9058 50.9759 51.736 53.3652C54.5483 55.7393 58.535 57.076 63.3416 57.076V54.076C59.0762 54.076 55.8269 52.8927 53.6712 51.0728C51.5335 49.2681 50.3696 46.7576 50.3696 43.84H47.3696ZM63.3416 57.076C69.3423 57.076 73.9876 55.0846 76.4405 50.94L73.8588 49.412C72.1357 52.3234 68.717 54.076 63.3416 54.076V57.076ZM73.6496 50.176V55H76.6496V50.176H73.6496ZM75.1496 56.5H85.6616V53.5H75.1496V56.5ZM87.1616 55V32.896H84.1616V55H87.1616ZM87.1616 32.896C87.1616 26.7331 85.3563 21.968 81.7628 18.7704C78.2009 15.6009 73.1223 14.188 67.0136 14.188V17.188C72.7129 17.188 76.9584 18.5111 79.7685 21.0116C82.547 23.484 84.1616 27.3229 84.1616 32.896H87.1616ZM66.1496 46.516C64.3861 46.516 63.1521 46.0971 62.3982 45.5302C61.6862 44.9947 61.3136 44.2688 61.3136 43.336H58.3136C58.3136 45.2112 59.129 46.8253 60.595 47.9278C62.0192 48.9989 63.9531 49.516 66.1496 49.516V46.516ZM61.3136 43.336C61.3136 42.3877 61.5951 41.7524 62.2034 41.2924C62.8959 40.7686 64.2364 40.3 66.7256 40.3V37.3C63.9588 37.3 61.8433 37.8034 60.3938 38.8996C58.8601 40.0596 58.3136 41.6923 58.3136 43.336H61.3136ZM66.7256 40.3H74.4296V37.3H66.7256V40.3ZM72.9296 38.8V42.76H75.9296V38.8H72.9296ZM73.0216 42.2428C71.9941 45.0399 69.4288 46.516 66.1496 46.516V49.516C70.3585 49.516 74.2731 47.5361 75.8376 43.2772L73.0216 42.2428ZM97.2671 55H95.7671V56.5H97.2671V55ZM108.499 55V56.5H109.999V55H108.499ZM108.499 1.576H109.999V0.0759964H108.499V1.576ZM97.2671 1.576V0.0759964H95.7671V1.576H97.2671ZM97.2671 56.5H108.499V53.5H97.2671V56.5ZM109.999 55V1.576H106.999V55H109.999ZM108.499 0.0759964H97.2671V3.076H108.499V0.0759964ZM95.7671 1.576V55H98.7671V1.576H95.7671ZM148.155 16.264V14.764H146.655V16.264H148.155ZM131.379 16.264H132.879V14.764H131.379V16.264ZM120.147 16.264V14.764H118.647V16.264H120.147ZM148.731 50.392H150.231V46.3907L147.601 49.4059L148.731 50.392ZM148.731 55H147.231V56.5H148.731V55ZM159.387 55V56.5H160.887V55H159.387ZM159.387 16.264H160.887V14.764H159.387V16.264ZM146.655 16.264V35.416H149.655V16.264H146.655ZM146.655 35.416C146.655 38.7282 145.787 40.9304 144.532 42.2925C143.29 43.641 141.493 44.356 139.227 44.356V47.356C142.145 47.356 144.813 46.415 146.738 44.3255C148.651 42.2496 149.655 39.2318 149.655 35.416H146.655ZM139.227 44.356C137.036 44.356 135.544 43.7305 134.568 42.6173C133.561 41.4675 132.879 39.5448 132.879 36.496H129.879C129.879 39.9272 130.638 42.6845 132.312 44.5947C134.019 46.5415 136.451 47.356 139.227 47.356V44.356ZM132.879 36.496V16.264H129.879V36.496H132.879ZM131.379 14.764H120.147V17.764H131.379V14.764ZM118.647 16.264V38.152H121.647V16.264H118.647ZM118.647 38.152C118.647 44.4136 120.445 49.201 123.733 52.4181C127.014 55.6279 131.575 57.076 136.707 57.076V54.076C132.12 54.076 128.401 52.7881 125.831 50.2739C123.269 47.767 121.647 43.8424 121.647 38.152H118.647ZM136.707 57.076C141.841 57.076 146.593 55.1256 149.862 51.3781L147.601 49.4059C144.966 52.4264 141.078 54.076 136.707 54.076V57.076ZM147.231 50.392V55H150.231V50.392H147.231ZM148.731 56.5H159.387V53.5H148.731V56.5ZM160.887 55V16.264H157.887V55H160.887ZM159.387 14.764H148.155V17.764H159.387V14.764ZM206.441 49.312L207.569 50.3012L208.458 49.2869L207.544 48.2951L206.441 49.312ZM200.465 42.832L201.568 41.8151L200.538 40.6984L199.434 41.7423L200.465 42.832ZM179.657 38.8V37.3H177.784L178.193 39.1277L179.657 38.8ZM208.961 38.8V40.3H210.35L210.457 38.915L208.961 38.8ZM198.593 32.248V33.748H200.355L200.074 32.0085L198.593 32.248ZM179.513 32.248L178.032 32.0119L177.755 33.748H179.513V32.248ZM210.677 35.776C210.677 29.1788 208.342 23.7521 204.401 19.9777C200.469 16.2125 195.042 14.188 189.017 14.188V17.188C194.369 17.188 199.021 18.9795 202.326 22.1443C205.62 25.2999 207.677 29.9172 207.677 35.776H210.677ZM189.017 14.188C176.441 14.188 166.853 23.1523 166.853 35.632H169.853C169.853 24.9277 177.977 17.188 189.017 17.188V14.188ZM166.853 35.632C166.853 41.7874 169.189 47.1817 173.367 51.0276C177.538 54.8667 183.445 57.076 190.457 57.076V54.076C184.077 54.076 178.933 52.0733 175.399 48.8204C171.873 45.5743 169.853 40.9966 169.853 35.632H166.853ZM190.457 57.076C197.757 57.076 203.615 54.8079 207.569 50.3012L205.313 48.3228C202.067 52.0241 197.125 54.076 190.457 54.076V57.076ZM207.544 48.2951L201.568 41.8151L199.362 43.8489L205.338 50.3289L207.544 48.2951ZM199.434 41.7423C197.057 43.9912 194.477 45.076 190.745 45.076V48.076C195.221 48.076 198.545 46.7128 201.496 43.9217L199.434 41.7423ZM190.745 45.076C185.383 45.076 182.015 42.4658 181.121 38.4723L178.193 39.1277C179.459 44.7822 184.299 48.076 190.745 48.076V45.076ZM179.657 40.3H208.961V37.3H179.657V40.3ZM210.457 38.915C210.52 38.0882 210.677 36.7152 210.677 35.776H207.677C207.677 36.5648 207.546 37.6398 207.465 38.685L210.457 38.915ZM189.089 25.684C193.391 25.684 196.438 28.3162 197.112 32.4875L200.074 32.0085C199.165 26.3878 194.867 22.684 189.089 22.684V25.684ZM198.593 30.748H179.513V33.748H198.593V30.748ZM180.994 32.4841C181.34 30.3167 182.296 28.6389 183.647 27.5002C185.001 26.3603 186.842 25.684 189.089 25.684V22.684C186.224 22.684 183.674 23.5557 181.715 25.2058C179.754 26.8571 178.478 29.2113 178.032 32.0119L180.994 32.4841ZM244.375 27.064L243.636 28.3694L245.046 29.1675L245.733 27.7003L244.375 27.064ZM248.119 19.072L249.477 19.7083L250.057 18.4716L248.879 17.7791L248.119 19.072ZM218.095 43.336L218.909 42.0759L217.46 41.1406L216.734 42.7043L218.095 43.336ZM214.351 51.4L212.99 50.7683L212.446 51.9402L213.525 52.6519L214.351 51.4ZM231.127 57.076C237.121 57.076 242.025 55.7572 245.476 53.3503C248.971 50.9127 250.915 47.3898 250.915 43.264H247.915C247.915 46.3382 246.511 48.9713 243.76 50.8897C240.965 52.8388 236.725 54.076 231.127 54.076V57.076ZM250.915 43.264C250.915 38.9883 249.24 36.0779 246.66 34.1383C244.179 32.2731 240.967 31.3865 238 30.8114C236.504 30.5214 235.004 30.2997 233.653 30.0865C232.278 29.8697 231.065 29.6628 230.048 29.3988C229.009 29.1292 228.329 28.8369 227.931 28.5327C227.605 28.2839 227.515 28.0764 227.515 27.784H224.515C224.515 29.1476 225.156 30.1888 226.11 30.9171C226.991 31.5899 228.14 32.0031 229.294 32.3027C230.471 32.6079 231.818 32.8342 233.185 33.0499C234.576 33.2693 236 33.4796 237.429 33.7566C240.313 34.3155 242.951 35.1029 244.857 36.5362C246.665 37.8951 247.915 39.9077 247.915 43.264H250.915ZM227.515 27.784C227.515 27.421 227.665 26.976 228.452 26.5402C229.306 26.0668 230.816 25.684 233.215 25.684V22.684C230.574 22.684 228.483 23.0932 226.998 23.9158C225.445 24.776 224.515 26.131 224.515 27.784H227.515ZM233.215 25.684C236.531 25.684 240.083 26.3581 243.636 28.3694L245.114 25.7586C241.035 23.4499 236.955 22.684 233.215 22.684V25.684ZM245.733 27.7003L249.477 19.7083L246.761 18.4357L243.017 26.4277L245.733 27.7003ZM248.879 17.7791C244.899 15.4376 238.702 14.188 233.215 14.188V17.188C238.384 17.188 243.995 18.3864 247.358 20.3649L248.879 17.7791ZM233.215 14.188C227.354 14.188 222.533 15.5295 219.134 17.9815C215.694 20.4633 213.787 24.0383 213.787 28.216H216.787C216.787 25.0497 218.192 22.3607 220.89 20.4145C223.629 18.4385 227.772 17.188 233.215 17.188V14.188ZM213.787 28.216C213.787 32.5367 215.454 35.4831 218.035 37.4458C220.519 39.335 223.735 40.2243 226.708 40.7868C228.208 41.0707 229.708 41.2813 231.065 41.4809C232.443 41.6837 233.659 41.8735 234.681 42.1184C235.727 42.3689 236.409 42.642 236.807 42.9273C237.128 43.1577 237.187 43.327 237.187 43.552H240.187C240.187 42.193 239.515 41.1788 238.556 40.4904C237.674 39.8568 236.528 39.4758 235.38 39.2009C234.209 38.9204 232.865 38.7136 231.501 38.5128C230.115 38.3089 228.691 38.1088 227.266 37.8392C224.389 37.2947 221.755 36.5055 219.851 35.0579C218.044 33.6839 216.787 31.6353 216.787 28.216H213.787ZM237.187 43.552C237.187 43.8597 237.12 44.0713 237.021 44.2339C236.921 44.3992 236.732 44.6022 236.355 44.806C235.551 45.2398 234.07 45.58 231.559 45.58V48.58C234.231 48.58 236.315 48.2362 237.779 47.446C238.536 47.0378 239.157 46.4938 239.583 45.7951C240.01 45.0937 240.187 44.3243 240.187 43.552H237.187ZM231.559 45.58C227.068 45.58 222.1 44.1369 218.909 42.0759L217.281 44.5961C221.002 46.9991 226.546 48.58 231.559 48.58V45.58ZM216.734 42.7043L212.99 50.7683L215.711 52.0317L219.455 43.9677L216.734 42.7043ZM213.525 52.6519C217.437 55.2343 224.374 57.076 231.127 57.076V54.076C224.776 54.076 218.464 52.3177 215.177 50.1481L213.525 52.6519Z" fill="black"/>
</svg>
