<svg width="282" height="84" viewBox="0 0 282 84" fill="none" xmlns="http://www.w3.org/2000/svg">
<path d="M78.0763 21.6084L62.0863 65.7244H49.7863L39.8643 38.3364L29.6143 65.7244H17.3143L1.40625 21.6084H13.4602L23.8743 51.4564L34.6982 21.6084H45.5223L56.0183 51.4564L66.7603 21.6084H78.0763Z" stroke="black" stroke-width="1.5"/>
<path d="M85.6632 21.6084H98.4552V65.7244H85.6632V21.6084ZM92.0592 15.4584C89.7085 15.4584 87.7952 14.7751 86.3192 13.4084C84.8432 12.0418 84.1052 10.3471 84.1052 8.32443C84.1052 6.30176 84.8432 4.6071 86.3192 3.24043C87.7952 1.87376 89.7085 1.19043 92.0592 1.19043C94.4098 1.19043 96.3232 1.84643 97.7992 3.15843C99.2752 4.47043 100.013 6.11043 100.013 8.07843C100.013 10.2104 99.2752 11.9871 97.7992 13.4084C96.3232 14.7751 94.4098 15.4584 92.0592 15.4584Z" stroke="black" stroke-width="1.5"/>
<path d="M126.809 66.3804C123.147 66.3804 119.566 65.9431 116.067 65.0684C112.569 64.1391 109.781 62.9911 107.703 61.6244L111.967 52.4404C113.935 53.6978 116.313 54.7364 119.101 55.5564C121.889 56.3218 124.623 56.7044 127.301 56.7044C132.713 56.7044 135.419 55.3651 135.419 52.6864C135.419 51.4291 134.681 50.5271 133.205 49.9804C131.729 49.4338 129.461 48.9691 126.399 48.5864C122.791 48.0398 119.812 47.4111 117.461 46.7004C115.111 45.9898 113.061 44.7324 111.311 42.9284C109.617 41.1244 108.769 38.5551 108.769 35.2204C108.769 32.4324 109.562 29.9724 111.147 27.8404C112.787 25.6538 115.138 23.9591 118.199 22.7564C121.315 21.5538 124.978 20.9524 129.187 20.9524C132.303 20.9524 135.392 21.3078 138.453 22.0184C141.569 22.6744 144.139 23.6038 146.161 24.8064L141.897 33.9084C138.016 31.7218 133.779 30.6284 129.187 30.6284C126.454 30.6284 124.404 31.0111 123.037 31.7764C121.671 32.5418 120.987 33.5258 120.987 34.7284C120.987 36.0951 121.725 37.0518 123.201 37.5984C124.677 38.1451 127.028 38.6644 130.253 39.1564C133.861 39.7578 136.813 40.4138 139.109 41.1244C141.405 41.7804 143.401 43.0104 145.095 44.8144C146.79 46.6184 147.637 49.1331 147.637 52.3584C147.637 55.0918 146.817 57.5244 145.177 59.6564C143.537 61.7884 141.132 63.4558 137.961 64.6584C134.845 65.8064 131.128 66.3804 126.809 66.3804Z" stroke="black" stroke-width="1.5"/>
<path d="M200.384 43.8304C200.384 43.9944 200.302 45.1424 200.138 47.2744H166.764C167.365 50.0078 168.786 52.1671 171.028 53.7524C173.269 55.3378 176.057 56.1304 179.392 56.1304C181.688 56.1304 183.71 55.8024 185.46 55.1464C187.264 54.4358 188.931 53.3424 190.462 51.8664L197.268 59.2464C193.113 64.0024 187.045 66.3804 179.064 66.3804C174.089 66.3804 169.688 65.4238 165.862 63.5104C162.035 61.5424 159.083 58.8364 157.006 55.3924C154.928 51.9484 153.89 48.0398 153.89 43.6664C153.89 39.3478 154.901 35.4664 156.924 32.0224C159.001 28.5238 161.816 25.8178 165.37 23.9044C168.978 21.9364 172.996 20.9524 177.424 20.9524C181.742 20.9524 185.651 21.8818 189.15 23.7404C192.648 25.5991 195.382 28.2778 197.35 31.7764C199.372 35.2204 200.384 39.2384 200.384 43.8304ZM177.506 30.6284C174.608 30.6284 172.176 31.4484 170.208 33.0884C168.24 34.7284 167.037 36.9698 166.6 39.8124H188.33C187.892 37.0244 186.69 34.8104 184.722 33.1704C182.754 31.4758 180.348 30.6284 177.506 30.6284Z" stroke="black" stroke-width="1.5"/>
<path d="M210.54 4.88043H223.332V65.7244H210.54V4.88043Z" stroke="black" stroke-width="1.5"/>
<path d="M280.632 21.6084L260.706 68.4304C258.684 73.5144 256.169 77.0951 253.162 79.1724C250.21 81.2498 246.63 82.2884 242.42 82.2884C240.124 82.2884 237.856 81.9331 235.614 81.2224C233.373 80.5118 231.542 79.5278 230.12 78.2704L234.794 69.1684C235.778 70.0431 236.899 70.7264 238.156 71.2184C239.468 71.7104 240.753 71.9564 242.01 71.9564C243.76 71.9564 245.181 71.5191 246.274 70.6444C247.368 69.8244 248.352 68.4304 249.226 66.4624L249.39 66.0524L230.284 21.6084H243.486L255.868 51.5384L268.332 21.6084H280.632Z" stroke="black" stroke-width="1.5"/>
</svg>
