<svg width="173" height="59" viewBox="0 0 173 59" fill="none" xmlns="http://www.w3.org/2000/svg">
<path d="M69.3688 18.6883L55.3288 57.4243H44.5288L35.8168 33.3763L26.8168 57.4243H16.0168L2.04883 18.6883H12.6328L21.7768 44.8963L31.2808 18.6883H40.7848L50.0008 44.8963L59.4328 18.6883H69.3688Z" stroke="#2E2F34" stroke-width="1.5"/>
<path d="M76.0305 18.6883H87.2625V57.4243H76.0305V18.6883ZM81.6465 13.2883C79.5825 13.2883 77.9025 12.6883 76.6065 11.4883C75.3105 10.2883 74.6625 8.80025 74.6625 7.02425C74.6625 5.24825 75.3105 3.76026 76.6065 2.56026C77.9025 1.36025 79.5825 0.760254 81.6465 0.760254C83.7105 0.760254 85.3905 1.33626 86.6865 2.48826C87.9825 3.64026 88.6305 5.08026 88.6305 6.80826C88.6305 8.68026 87.9825 10.2403 86.6865 11.4883C85.3905 12.6883 83.7105 13.2883 81.6465 13.2883Z" stroke="#2E2F34" stroke-width="1.5"/>
<path d="M124.111 55.5523C123.007 56.3683 121.639 56.9923 120.007 57.4243C118.423 57.8083 116.743 58.0003 114.967 58.0003C110.359 58.0003 106.783 56.8243 104.239 54.4723C101.743 52.1203 100.495 48.6643 100.495 44.1043V28.1923H94.5188V19.5523H100.495V10.1203H111.727V19.5523H121.375V28.1923H111.727V43.9603C111.727 45.5923 112.135 46.8643 112.951 47.7763C113.815 48.6403 115.015 49.0723 116.551 49.0723C118.327 49.0723 119.839 48.5923 121.087 47.6323L124.111 55.5523Z" stroke="#2E2F34" stroke-width="1.5"/>
<path d="M155.4 18.1123C160.2 18.1123 164.064 19.5523 166.992 22.4323C169.968 25.3123 171.456 29.5843 171.456 35.2483V57.4243H160.224V36.9763C160.224 33.9043 159.552 31.6243 158.208 30.1363C156.864 28.6003 154.92 27.8323 152.376 27.8323C149.544 27.8323 147.288 28.7203 145.608 30.4963C143.928 32.2243 143.088 34.8163 143.088 38.2723V57.4243H131.856V4.00026H143.088V22.7203C144.576 21.2323 146.376 20.1043 148.488 19.3363C150.6 18.5203 152.904 18.1123 155.4 18.1123Z" stroke="#2E2F34" stroke-width="1.5"/>
</svg>
