<svg width="203" height="58" viewBox="0 0 203 58" fill="none" xmlns="http://www.w3.org/2000/svg">
<path d="M60.456 16.9144V15.4144H59.4017L59.0446 16.4064L60.456 16.9144ZM51.024 43.1224L49.6089 43.62L51.0076 47.5975L52.4354 43.6303L51.024 43.1224ZM41.808 16.9144L43.2231 16.4168L42.8706 15.4144H41.808V16.9144ZM32.304 16.9144V15.4144H31.2524L30.8939 16.403L32.304 16.9144ZM22.8 43.1224L21.3837 43.6165L22.7727 47.5976L24.2101 43.6338L22.8 43.1224ZM13.656 16.9144L15.0723 16.4202L14.7213 15.4144H13.656V16.9144ZM3.072 16.9144V15.4144H0.936566L1.66094 17.4232L3.072 16.9144ZM17.04 55.6504L15.6289 56.1592L15.9864 57.1504H17.04V55.6504ZM27.84 55.6504V57.1504H28.8802L29.2448 56.1762L27.84 55.6504ZM36.84 31.6024L38.2503 31.0915L36.8629 27.2617L35.4352 31.0766L36.84 31.6024ZM45.552 55.6504L44.1417 56.1613L44.5 57.1504H45.552V55.6504ZM56.352 55.6504V57.1504H57.4038L57.7622 56.1615L56.352 55.6504ZM70.392 16.9144L71.8022 17.4255L72.5312 15.4144H70.392V16.9144ZM59.0446 16.4064L49.6126 42.6144L52.4354 43.6303L61.8674 17.4223L59.0446 16.4064ZM52.4391 42.6248L43.2231 16.4168L40.3929 17.412L49.6089 43.62L52.4391 42.6248ZM41.808 15.4144H32.304V18.4144H41.808V15.4144ZM30.8939 16.403L21.3899 42.611L24.2101 43.6338L33.7141 17.4258L30.8939 16.403ZM24.2163 42.6283L15.0723 16.4202L12.2397 17.4085L21.3837 43.6165L24.2163 42.6283ZM13.656 15.4144H3.072V18.4144H13.656V15.4144ZM1.66094 17.4232L15.6289 56.1592L18.4511 55.1416L4.48306 16.4056L1.66094 17.4232ZM17.04 57.1504H27.84V54.1504H17.04V57.1504ZM29.2448 56.1762L38.2448 32.1282L35.4352 31.0766L26.4352 55.1246L29.2448 56.1762ZM35.4297 32.1133L44.1417 56.1613L46.9623 55.1395L38.2503 31.0915L35.4297 32.1133ZM45.552 57.1504H56.352V54.1504H45.552V57.1504ZM57.7622 56.1615L71.8022 17.4255L68.9818 16.4032L54.9418 55.1393L57.7622 56.1615ZM70.392 15.4144H60.456V18.4144H70.392V15.4144ZM94.431 57.7264C107.476 57.7264 117.171 48.8674 117.171 36.2824H114.171C114.171 47.0254 106.01 54.7264 94.431 54.7264V57.7264ZM117.171 36.2824C117.171 23.6974 107.476 14.8384 94.431 14.8384V17.8384C106.01 17.8384 114.171 25.5394 114.171 36.2824H117.171ZM94.431 14.8384C81.3932 14.8384 71.619 23.6909 71.619 36.2824H74.619C74.619 25.5458 82.8448 17.8384 94.431 17.8384V14.8384ZM71.619 36.2824C71.619 48.8738 81.3932 57.7264 94.431 57.7264V54.7264C82.8448 54.7264 74.619 47.0189 74.619 36.2824H71.619ZM94.431 45.5104C91.9911 45.5104 89.9094 44.6409 88.4359 43.1153C86.9626 41.5899 85.995 39.301 85.995 36.2824H82.995C82.995 39.9598 84.1874 43.0348 86.2781 45.1995C88.3686 47.3639 91.2549 48.5104 94.431 48.5104V45.5104ZM85.995 36.2824C85.995 33.2638 86.9626 30.9748 88.4359 29.4495C89.9094 27.9239 91.9911 27.0544 94.431 27.0544V24.0544C91.2549 24.0544 88.3686 25.2009 86.2781 27.3653C84.1874 29.5299 82.995 32.605 82.995 36.2824H85.995ZM94.431 27.0544C96.8696 27.0544 98.9303 27.9227 100.385 29.444C101.841 30.9669 102.795 33.2567 102.795 36.2824H105.795C105.795 32.612 104.625 29.5379 102.553 27.3708C100.48 25.2021 97.6085 24.0544 94.431 24.0544V27.0544ZM102.795 36.2824C102.795 39.3081 101.841 41.5979 100.385 43.1208C98.9303 44.6421 96.8696 45.5104 94.431 45.5104V48.5104C97.6085 48.5104 100.48 47.3627 102.553 45.194C104.625 43.0269 105.795 39.9527 105.795 36.2824H102.795ZM135.347 22.0264H133.847V26.6213L136.558 22.9114L135.347 22.0264ZM135.347 16.9144H136.847V15.4144H135.347V16.9144ZM124.619 16.9144V15.4144H123.119V16.9144H124.619ZM124.619 55.6504H123.119V57.1504H124.619V55.6504ZM135.851 55.6504V57.1504H137.351V55.6504H135.851ZM148.667 26.7064L148.552 28.202L150.167 28.3262V26.7064H148.667ZM148.667 16.3384H150.167V14.8384H148.667V16.3384ZM136.847 22.0264V16.9144H133.847V22.0264H136.847ZM135.347 15.4144H124.619V18.4144H135.347V15.4144ZM123.119 16.9144V55.6504H126.119V16.9144H123.119ZM124.619 57.1504H135.851V54.1504H124.619V57.1504ZM137.351 55.6504V37.3624H134.351V55.6504H137.351ZM137.351 37.3624C137.351 33.9261 138.297 31.6613 139.729 30.25C141.167 28.8335 143.314 28.0624 146.147 28.0624V25.0624C142.788 25.0624 139.786 25.9833 137.624 28.1127C135.457 30.2474 134.351 33.3827 134.351 37.3624H137.351ZM146.147 28.0624C146.937 28.0624 147.577 28.127 148.552 28.202L148.782 25.2108C147.884 25.1418 147.085 25.0624 146.147 25.0624V28.0624ZM150.167 26.7064V16.3384H147.167V26.7064H150.167ZM148.667 14.8384C142.373 14.8384 137.237 16.897 134.136 21.1414L136.558 22.9114C138.928 19.6678 143.008 17.8384 148.667 17.8384V14.8384ZM185.657 55.6504L184.489 56.5915L184.94 57.1504H185.657V55.6504ZM199.265 55.6504V57.1504H202.355L200.444 54.7226L199.265 55.6504ZM181.697 33.3304L180.627 32.2792L179.702 33.2208L180.519 34.2581L181.697 33.3304ZM197.825 16.9144L198.895 17.9656L201.402 15.4144H197.825V16.9144ZM184.433 16.9144V15.4144H183.836L183.402 15.8255L184.433 16.9144ZM168.017 32.4664H166.517V35.9537L169.049 33.5553L168.017 32.4664ZM168.017 2.22639H169.517V0.726387H168.017V2.22639ZM156.785 2.22639V0.726387H155.285V2.22639H156.785ZM156.785 55.6504H155.285V57.1504H156.785V55.6504ZM168.017 55.6504V57.1504H169.517V55.6504H168.017ZM168.017 45.7864L166.964 44.7186L166.517 45.1592V45.7864H168.017ZM173.417 40.4584L174.585 39.5173L173.545 38.2256L172.364 39.3906L173.417 40.4584ZM185.657 57.1504H199.265V54.1504H185.657V57.1504ZM200.444 54.7226L182.876 32.4026L180.519 34.2581L198.087 56.5781L200.444 54.7226ZM182.767 34.3816L198.895 17.9656L196.755 15.8632L180.627 32.2792L182.767 34.3816ZM197.825 15.4144H184.433V18.4144H197.825V15.4144ZM183.402 15.8255L166.986 31.3775L169.049 33.5553L185.465 18.0033L183.402 15.8255ZM169.517 32.4664V2.22639H166.517V32.4664H169.517ZM168.017 0.726387H156.785V3.72639H168.017V0.726387ZM155.285 2.22639V55.6504H158.285V2.22639H155.285ZM156.785 57.1504H168.017V54.1504H156.785V57.1504ZM169.517 55.6504V45.7864H166.517V55.6504H169.517ZM169.071 46.8541L174.471 41.5261L172.364 39.3906L166.964 44.7186L169.071 46.8541ZM172.249 41.3995L184.489 56.5915L186.825 54.7093L174.585 39.5173L172.249 41.3995Z" fill="white"/>
</svg>
