<svg width="236" height="56" viewBox="0 0 236 56" fill="none" xmlns="http://www.w3.org/2000/svg">
<path d="M69.3161 15.6631L55.2761 54.3991H44.4761L35.7641 30.3511L26.7641 54.3991H15.9641L1.99609 15.6631H12.5801L21.7241 41.8711L31.2281 15.6631H40.7321L49.9481 41.8711L59.3801 15.6631H69.3161Z" stroke="black" stroke-width="1.5"/>
<path d="M93.3551 54.9751C89.2751 54.9751 85.6031 54.1351 82.3391 52.4551C79.1231 50.7271 76.6031 48.3511 74.7791 45.3271C72.9551 42.3031 72.0431 38.8711 72.0431 35.0311C72.0431 31.1911 72.9551 27.7591 74.7791 24.7351C76.6031 21.7111 79.1231 19.3591 82.3391 17.6791C85.6031 15.9511 89.2751 15.0871 93.3551 15.0871C97.4351 15.0871 101.083 15.9511 104.299 17.6791C107.515 19.3591 110.035 21.7111 111.859 24.7351C113.683 27.7591 114.595 31.1911 114.595 35.0311C114.595 38.8711 113.683 42.3031 111.859 45.3271C110.035 48.3511 107.515 50.7271 104.299 52.4551C101.083 54.1351 97.4351 54.9751 93.3551 54.9751ZM93.3551 45.7591C96.2351 45.7591 98.5871 44.7991 100.411 42.8791C102.283 40.9111 103.219 38.2951 103.219 35.0311C103.219 31.7671 102.283 29.1751 100.411 27.2551C98.5871 25.2871 96.2351 24.3031 93.3551 24.3031C90.4751 24.3031 88.0991 25.2871 86.2271 27.2551C84.3551 29.1751 83.4191 31.7671 83.4191 35.0311C83.4191 38.2951 84.3551 40.9111 86.2271 42.8791C88.0991 44.7991 90.4751 45.7591 93.3551 45.7591Z" stroke="black" stroke-width="1.5"/>
<path d="M134.271 20.7751C135.615 18.9031 137.415 17.4871 139.671 16.5271C141.975 15.5671 144.615 15.0871 147.591 15.0871V25.4551C146.343 25.3591 145.503 25.3111 145.071 25.3111C141.855 25.3111 139.335 26.2231 137.511 28.0471C135.687 29.8231 134.775 32.5111 134.775 36.1111V54.3991H123.543V15.6631H134.271V20.7751Z" stroke="black" stroke-width="1.5"/>
<path d="M172.341 39.2071L166.941 44.5351V54.3991H155.709V0.975098H166.941V31.2151L183.357 15.6631H196.749L180.621 32.0791L198.189 54.3991H184.581L172.341 39.2071Z" stroke="black" stroke-width="1.5"/>
<path d="M216.447 54.9751C213.231 54.9751 210.087 54.5911 207.015 53.8231C203.943 53.0071 201.495 51.9991 199.671 50.7991L203.415 42.7351C205.143 43.8391 207.231 44.7511 209.679 45.4711C212.127 46.1431 214.527 46.4791 216.879 46.4791C221.631 46.4791 224.007 45.3031 224.007 42.9511C224.007 41.8471 223.359 41.0551 222.063 40.5751C220.767 40.0951 218.775 39.6871 216.087 39.3511C212.919 38.8711 210.303 38.3191 208.239 37.6951C206.175 37.0711 204.375 35.9671 202.839 34.3831C201.351 32.7991 200.607 30.5431 200.607 27.6151C200.607 25.1671 201.303 23.0071 202.695 21.1351C204.135 19.2151 206.199 17.7271 208.887 16.6711C211.623 15.6151 214.839 15.0871 218.535 15.0871C221.271 15.0871 223.983 15.3991 226.671 16.0231C229.407 16.5991 231.663 17.4151 233.439 18.4711L229.695 26.4631C226.287 24.5431 222.567 23.5831 218.535 23.5831C216.135 23.5831 214.335 23.9191 213.135 24.5911C211.935 25.2631 211.335 26.1271 211.335 27.1831C211.335 28.3831 211.983 29.2231 213.279 29.7031C214.575 30.1831 216.639 30.6391 219.471 31.0711C222.639 31.5991 225.231 32.1751 227.247 32.7991C229.263 33.3751 231.015 34.4551 232.503 36.0391C233.991 37.6231 234.735 39.8311 234.735 42.6631C234.735 45.0631 234.015 47.1991 232.575 49.0711C231.135 50.9431 229.023 52.4071 226.239 53.4631C223.503 54.4711 220.239 54.9751 216.447 54.9751Z" stroke="black" stroke-width="1.5"/>
</svg>
