<svg width="542" height="76" viewBox="0 0 542 76" fill="none" xmlns="http://www.w3.org/2000/svg">
<path d="M35.832 20.264V18.764H34.8318L34.4473 19.6873L35.832 20.264ZM24.888 46.544L23.5019 47.1174L24.8834 50.4568L26.2727 47.1207L24.888 46.544ZM14.016 20.264L15.4021 19.6906L15.0187 18.764H14.016V20.264ZM2.424 20.264V18.764H0.146435L1.04594 20.8564L2.424 20.264ZM19.2 59.288L20.5927 59.8451L20.8238 59.2673L20.5781 58.6956L19.2 59.288ZM19.056 59.648L20.4302 60.2492L20.4398 60.2273L20.4487 60.2051L19.056 59.648ZM6.384 62.024L7.37176 60.8951L5.92675 59.6308L5.04965 61.3388L6.384 62.024ZM2.28 70.016L0.945649 69.3308L0.413676 70.3667L1.28545 71.1389L2.28 70.016ZM29.136 61.376L27.7558 60.7886L27.7494 60.8037L27.7433 60.8189L29.136 61.376ZM46.632 20.264L48.0122 20.8514L48.9005 18.764H46.632V20.264ZM34.4473 19.6873L23.5033 45.9673L26.2727 47.1207L37.2167 20.8407L34.4473 19.6873ZM26.2741 45.9706L15.4021 19.6906L12.6299 20.8374L23.5019 47.1174L26.2741 45.9706ZM14.016 18.764H2.424V21.764H14.016V18.764ZM1.04594 20.8564L17.8219 59.8804L20.5781 58.6956L3.80206 19.6716L1.04594 20.8564ZM17.8073 58.7309L17.6633 59.0909L20.4487 60.2051L20.5927 59.8451L17.8073 58.7309ZM17.6818 59.0468C16.9706 60.6722 16.2875 61.6141 15.5685 62.1663C14.8884 62.6884 14.0317 62.972 12.72 62.972V65.972C14.5043 65.972 16.0596 65.5715 17.3955 64.5457C18.6925 63.5499 19.6294 62.0798 20.4302 60.2492L17.6818 59.0468ZM12.72 62.972C10.8747 62.972 8.84439 62.1837 7.37176 60.8951L5.39624 63.1529C7.37961 64.8883 10.1013 65.972 12.72 65.972V62.972ZM5.04965 61.3388L0.945649 69.3308L3.61435 70.7012L7.71835 62.7092L5.04965 61.3388ZM1.28545 71.1389C4.15948 73.6845 8.87623 75.044 13.08 75.044V72.044C9.36377 72.044 5.44052 70.8115 3.27455 68.8931L1.28545 71.1389ZM13.08 75.044C16.7774 75.044 20.1857 74.2981 23.1835 72.1987C26.1694 70.1075 28.5877 66.7856 30.5287 61.9331L27.7433 60.8189C25.9403 65.3264 23.8226 68.0885 21.4625 69.7413C19.1144 71.3859 16.3666 72.044 13.08 72.044V75.044ZM30.5162 61.9634L48.0122 20.8514L45.2518 19.6766L27.7558 60.7886L30.5162 61.9634ZM46.632 18.764H35.832V21.764H46.632V18.764ZM70.0326 61.076C83.0773 61.076 92.7726 52.217 92.7726 39.632H89.7726C89.7726 50.375 81.6118 58.076 70.0326 58.076V61.076ZM92.7726 39.632C92.7726 27.047 83.0773 18.188 70.0326 18.188V21.188C81.6118 21.188 89.7726 28.889 89.7726 39.632H92.7726ZM70.0326 18.188C56.9948 18.188 47.2206 27.0405 47.2206 39.632H50.2206C50.2206 28.8955 58.4464 21.188 70.0326 21.188V18.188ZM47.2206 39.632C47.2206 52.2235 56.9948 61.076 70.0326 61.076V58.076C58.4464 58.076 50.2206 50.3685 50.2206 39.632H47.2206ZM70.0326 48.86C67.5927 48.86 65.511 47.9905 64.0375 46.4649C62.5642 44.9396 61.5966 42.6506 61.5966 39.632H58.5966C58.5966 43.3094 59.7889 46.3844 61.8796 48.5491C63.9701 50.7135 66.8564 51.86 70.0326 51.86V48.86ZM61.5966 39.632C61.5966 36.6134 62.5642 34.3244 64.0375 32.7991C65.511 31.2735 67.5927 30.404 70.0326 30.404V27.404C66.8564 27.404 63.9701 28.5505 61.8796 30.7149C59.7889 32.8796 58.5966 35.9546 58.5966 39.632H61.5966ZM70.0326 30.404C72.4711 30.404 74.5319 31.2723 75.9864 32.7936C77.4424 34.3165 78.3966 36.6063 78.3966 39.632H81.3966C81.3966 35.9617 80.2267 32.8875 78.1548 30.7204C76.0812 28.5517 73.21 27.404 70.0326 27.404V30.404ZM78.3966 39.632C78.3966 42.6577 77.4424 44.9475 75.9864 46.4704C74.5319 47.9917 72.4711 48.86 70.0326 48.86V51.86C73.21 51.86 76.0812 50.7123 78.1548 48.5436C80.2267 46.3765 81.3966 43.3023 81.3966 39.632H78.3966ZM128.012 20.264V18.764H126.512V20.264H128.012ZM111.236 20.264H112.736V18.764H111.236V20.264ZM100.004 20.264V18.764H98.5042V20.264H100.004ZM128.588 54.392H130.088V50.3907L127.458 53.4059L128.588 54.392ZM128.588 59H127.088V60.5H128.588V59ZM139.244 59V60.5H140.744V59H139.244ZM139.244 20.264H140.744V18.764H139.244V20.264ZM126.512 20.264V39.416H129.512V20.264H126.512ZM126.512 39.416C126.512 42.7282 125.644 44.9304 124.389 46.2925C123.147 47.641 121.35 48.356 119.084 48.356V51.356C122.002 51.356 124.67 50.415 126.595 48.3255C128.508 46.2496 129.512 43.2318 129.512 39.416H126.512ZM119.084 48.356C116.893 48.356 115.401 47.7305 114.425 46.6173C113.418 45.4675 112.736 43.5448 112.736 40.496H109.736C109.736 43.9272 110.495 46.6845 112.169 48.5947C113.876 50.5415 116.307 51.356 119.084 51.356V48.356ZM112.736 40.496V20.264H109.736V40.496H112.736ZM111.236 18.764H100.004V21.764H111.236V18.764ZM98.5042 20.264V42.152H101.504V20.264H98.5042ZM98.5042 42.152C98.5042 48.4136 100.302 53.201 103.59 56.4181C106.871 59.6279 111.431 61.076 116.564 61.076V58.076C111.977 58.076 108.258 56.7881 105.688 54.2739C103.126 51.767 101.504 47.8424 101.504 42.152H98.5042ZM116.564 61.076C121.698 61.076 126.449 59.1256 129.719 55.3781L127.458 53.4059C124.823 56.4264 120.935 58.076 116.564 58.076V61.076ZM127.088 54.392V59H130.088V54.392H127.088ZM128.588 60.5H139.244V57.5H128.588V60.5ZM140.744 59V20.264H137.744V59H140.744ZM139.244 18.764H128.012V21.764H139.244V18.764ZM161.818 25.376H160.318V29.9709L163.029 26.261L161.818 25.376ZM161.818 20.264H163.318V18.764H161.818V20.264ZM151.09 20.264V18.764H149.59V20.264H151.09ZM151.09 59H149.59V60.5H151.09V59ZM162.322 59V60.5H163.822V59H162.322ZM175.138 30.056L175.023 31.5516L176.638 31.6758V30.056H175.138ZM175.138 19.688H176.638V18.188H175.138V19.688ZM163.318 25.376V20.264H160.318V25.376H163.318ZM161.818 18.764H151.09V21.764H161.818V18.764ZM149.59 20.264V59H152.59V20.264H149.59ZM151.09 60.5H162.322V57.5H151.09V60.5ZM163.822 59V40.712H160.822V59H163.822ZM163.822 40.712C163.822 37.2757 164.768 35.0109 166.201 33.5996C167.639 32.1831 169.785 31.412 172.618 31.412V28.412C169.259 28.412 166.257 29.3329 164.095 31.4624C161.928 33.5971 160.822 36.7323 160.822 40.712H163.822ZM172.618 31.412C173.408 31.412 174.048 31.4766 175.023 31.5516L175.253 28.5604C174.356 28.4914 173.556 28.412 172.618 28.412V31.412ZM176.638 30.056V19.688H173.638V30.056H176.638ZM175.138 18.188C168.844 18.188 163.709 20.2466 160.607 24.491L163.029 26.261C165.399 23.0174 169.48 21.188 175.138 21.188V18.188ZM216.6 24.368H215.1V28.2479L217.71 25.377L216.6 24.368ZM216.6 5.576H218.1V4.076H216.6V5.576ZM205.368 5.576V4.076H203.868V5.576H205.368ZM205.368 59H203.868V60.5H205.368V59ZM216.096 59V60.5H217.596V59H216.096ZM216.096 54.536L217.251 53.5781L214.596 50.3793V54.536H216.096ZM228.264 18.188C223.107 18.188 218.71 19.8177 215.49 23.359L217.71 25.377C220.251 22.5823 223.774 21.188 228.264 21.188V18.188ZM218.1 24.368V5.576H215.1V24.368H218.1ZM216.6 4.076H205.368V7.076H216.6V4.076ZM203.868 5.576V59H206.868V5.576H203.868ZM205.368 60.5H216.096V57.5H205.368V60.5ZM217.596 59V54.536H214.596V59H217.596ZM214.942 55.4939C218.102 59.3021 222.751 61.076 228.264 61.076V58.076C223.41 58.076 219.707 56.5379 217.251 53.5781L214.942 55.4939ZM228.264 61.076C234.064 61.076 239.281 58.9969 243.05 55.2277C246.823 51.4544 249.06 46.074 249.06 39.632H246.06C246.06 45.358 244.085 49.9496 240.929 53.1063C237.768 56.2671 233.336 58.076 228.264 58.076V61.076ZM249.06 39.632C249.06 33.19 246.823 27.8096 243.05 24.0363C239.281 20.2671 234.064 18.188 228.264 18.188V21.188C233.336 21.188 237.768 22.9969 240.929 26.1577C244.085 29.3144 246.06 33.906 246.06 39.632H249.06ZM226.32 48.86C223.882 48.86 221.821 47.9917 220.367 46.4704C218.911 44.9475 217.956 42.6577 217.956 39.632H214.956C214.956 43.3023 216.126 46.3765 218.198 48.5436C220.272 50.7123 223.143 51.86 226.32 51.86V48.86ZM217.956 39.632C217.956 36.6063 218.911 34.3165 220.367 32.7936C221.821 31.2723 223.882 30.404 226.32 30.404V27.404C223.143 27.404 220.272 28.5517 218.198 30.7204C216.126 32.8875 214.956 35.9617 214.956 39.632H217.956ZM226.32 30.404C228.759 30.404 230.82 31.2723 232.274 32.7936C233.73 34.3165 234.684 36.6063 234.684 39.632H237.684C237.684 35.9617 236.515 32.8875 234.443 30.7204C232.369 28.5517 229.498 27.404 226.32 27.404V30.404ZM234.684 39.632C234.684 42.6577 233.73 44.9475 232.274 46.4704C230.82 47.9917 228.759 48.86 226.32 48.86V51.86C229.498 51.86 232.369 50.7123 234.443 48.5436C236.515 46.3765 237.684 43.3023 237.684 39.632H234.684ZM284.311 20.264V18.764H282.811V20.264H284.311ZM267.535 20.264H269.035V18.764H267.535V20.264ZM256.303 20.264V18.764H254.803V20.264H256.303ZM284.887 54.392H286.387V50.3907L283.757 53.4059L284.887 54.392ZM284.887 59H283.387V60.5H284.887V59ZM295.543 59V60.5H297.043V59H295.543ZM295.543 20.264H297.043V18.764H295.543V20.264ZM282.811 20.264V39.416H285.811V20.264H282.811ZM282.811 39.416C282.811 42.7282 281.943 44.9304 280.688 46.2925C279.446 47.641 277.649 48.356 275.383 48.356V51.356C278.301 51.356 280.969 50.415 282.894 48.3255C284.807 46.2496 285.811 43.2318 285.811 39.416H282.811ZM275.383 48.356C273.192 48.356 271.7 47.7305 270.724 46.6173C269.717 45.4675 269.035 43.5448 269.035 40.496H266.035C266.035 43.9272 266.794 46.6845 268.468 48.5947C270.175 50.5415 272.607 51.356 275.383 51.356V48.356ZM269.035 40.496V20.264H266.035V40.496H269.035ZM267.535 18.764H256.303V21.764H267.535V18.764ZM254.803 20.264V42.152H257.803V20.264H254.803ZM254.803 42.152C254.803 48.4136 256.601 53.201 259.889 56.4181C263.17 59.6279 267.73 61.076 272.863 61.076V58.076C268.276 58.076 264.557 56.7881 261.987 54.2739C259.425 51.767 257.803 47.8424 257.803 42.152H254.803ZM272.863 61.076C277.997 61.076 282.749 59.1256 286.018 55.3781L283.757 53.4059C281.122 56.4264 277.234 58.076 272.863 58.076V61.076ZM283.387 54.392V59H286.387V54.392H283.387ZM284.887 60.5H295.543V57.5H284.887V60.5ZM297.043 59V20.264H294.043V59H297.043ZM295.543 18.764H284.311V21.764H295.543V18.764ZM333.669 31.064L332.93 32.3694L334.34 33.1675L335.027 31.7003L333.669 31.064ZM337.413 23.072L338.771 23.7083L339.351 22.4716L338.174 21.7791L337.413 23.072ZM307.389 47.336L308.203 46.0759L306.754 45.1406L306.028 46.7043L307.389 47.336ZM303.645 55.4L302.284 54.7683L301.74 55.9402L302.819 56.6519L303.645 55.4ZM320.421 61.076C326.415 61.076 331.319 59.7572 334.77 57.3503C338.265 54.9127 340.209 51.3898 340.209 47.264H337.209C337.209 50.3382 335.805 52.9713 333.054 54.8897C330.259 56.8388 326.019 58.076 320.421 58.076V61.076ZM340.209 47.264C340.209 42.9883 338.534 40.0779 335.954 38.1383C333.473 36.2731 330.261 35.3865 327.294 34.8114C325.798 34.5214 324.298 34.2997 322.947 34.0865C321.572 33.8697 320.359 33.6628 319.342 33.3988C318.303 33.1292 317.623 32.8369 317.225 32.5327C316.899 32.2839 316.809 32.0764 316.809 31.784H313.809C313.809 33.1476 314.45 34.1888 315.404 34.9171C316.285 35.5899 317.434 36.0031 318.588 36.3027C319.765 36.6079 321.112 36.8342 322.479 37.0499C323.87 37.2693 325.295 37.4796 326.724 37.7566C329.607 38.3155 332.245 39.1029 334.151 40.5362C335.959 41.8951 337.209 43.9077 337.209 47.264H340.209ZM316.809 31.784C316.809 31.421 316.959 30.976 317.746 30.5402C318.6 30.0668 320.11 29.684 322.509 29.684V26.684C319.868 26.684 317.777 27.0932 316.292 27.9158C314.739 28.776 313.809 30.131 313.809 31.784H316.809ZM322.509 29.684C325.825 29.684 329.377 30.3581 332.93 32.3694L334.408 29.7586C330.329 27.4499 326.249 26.684 322.509 26.684V29.684ZM335.027 31.7003L338.771 23.7083L336.055 22.4357L332.311 30.4277L335.027 31.7003ZM338.174 21.7791C334.193 19.4376 327.996 18.188 322.509 18.188V21.188C327.678 21.188 333.289 22.3864 336.652 24.3649L338.174 21.7791ZM322.509 18.188C316.648 18.188 311.827 19.5295 308.428 21.9815C304.988 24.4633 303.081 28.0383 303.081 32.216H306.081C306.081 29.0497 307.486 26.3607 310.184 24.4145C312.923 22.4385 317.066 21.188 322.509 21.188V18.188ZM303.081 32.216C303.081 36.5367 304.748 39.4831 307.329 41.4458C309.813 43.335 313.029 44.2243 316.002 44.7868C317.502 45.0707 319.002 45.2813 320.359 45.4809C321.737 45.6837 322.953 45.8735 323.975 46.1184C325.021 46.3689 325.703 46.642 326.101 46.9273C326.422 47.1577 326.481 47.327 326.481 47.552H329.481C329.481 46.193 328.809 45.1788 327.85 44.4904C326.968 43.8568 325.822 43.4758 324.674 43.2009C323.503 42.9204 322.159 42.7136 320.796 42.5128C319.409 42.3089 317.985 42.1088 316.56 41.8392C313.683 41.2947 311.049 40.5055 309.145 39.0579C307.339 37.6839 306.081 35.6353 306.081 32.216H303.081ZM326.481 47.552C326.481 47.8597 326.414 48.0713 326.315 48.2339C326.215 48.3992 326.026 48.6022 325.649 48.806C324.845 49.2398 323.365 49.58 320.853 49.58V52.58C323.525 52.58 325.609 52.2362 327.073 51.446C327.83 51.0378 328.451 50.4938 328.877 49.7951C329.305 49.0937 329.481 48.3243 329.481 47.552H326.481ZM320.853 49.58C316.362 49.58 311.394 48.1369 308.203 46.0759L306.575 48.5961C310.296 50.9991 315.84 52.58 320.853 52.58V49.58ZM306.028 46.7043L302.284 54.7683L305.005 56.0317L308.75 47.9677L306.028 46.7043ZM302.819 56.6519C306.731 59.2343 313.668 61.076 320.421 61.076V58.076C314.07 58.076 307.759 56.3177 304.471 54.1481L302.819 56.6519ZM347.079 59H345.579V60.5H347.079V59ZM358.311 59V60.5H359.811V59H358.311ZM358.311 20.264H359.811V18.764H358.311V20.264ZM347.079 20.264V18.764H345.579V20.264H347.079ZM352.695 16.364C355.115 16.364 357.244 15.5669 358.781 14.1203C360.323 12.6692 361.179 10.6462 361.179 8.384H358.179C358.179 9.8658 357.631 11.0828 356.725 11.9357C355.814 12.7931 354.451 13.364 352.695 13.364V16.364ZM361.179 8.384C361.179 3.92865 357.517 0.835996 352.695 0.835996V3.836C356.224 3.836 358.179 5.92735 358.179 8.384H361.179ZM352.695 0.835996C347.812 0.835996 344.211 4.12698 344.211 8.6H347.211C347.211 6.01702 349.226 3.836 352.695 3.836V0.835996ZM344.211 8.6C344.211 13.073 347.812 16.364 352.695 16.364V13.364C349.226 13.364 347.211 11.183 347.211 8.6H344.211ZM347.079 60.5H358.311V57.5H347.079V60.5ZM359.811 59V20.264H356.811V59H359.811ZM358.311 18.764H347.079V21.764H358.311V18.764ZM345.579 20.264V59H348.579V20.264H345.579ZM380.903 24.8H379.403V28.6675L382.011 25.8114L380.903 24.8ZM380.903 20.264H382.403V18.764H380.903V20.264ZM370.175 20.264V18.764H368.675V20.264H370.175ZM370.175 59H368.675V60.5H370.175V59ZM381.407 59V60.5H382.907V59H381.407ZM398.543 59H397.043V60.5H398.543V59ZM409.775 59V60.5H411.275V59H409.775ZM393.719 18.188C388.124 18.188 383.155 20.1091 379.796 23.7886L382.011 25.8114C384.699 22.8669 388.802 21.188 393.719 21.188V18.188ZM382.403 24.8V20.264H379.403V24.8H382.403ZM380.903 18.764H370.175V21.764H380.903V18.764ZM368.675 20.264V59H371.675V20.264H368.675ZM370.175 60.5H381.407V57.5H370.175V60.5ZM382.907 59V39.848H379.907V59H382.907ZM382.907 39.848C382.907 36.5501 383.803 34.3561 385.109 32.9927C386.41 31.6349 388.303 30.908 390.695 30.908V27.908C387.688 27.908 384.936 28.8371 382.943 30.9173C380.955 32.9919 379.907 36.0179 379.907 39.848H382.907ZM390.695 30.908C392.887 30.908 394.386 31.5345 395.363 32.6296C396.367 33.7552 397.043 35.6226 397.043 38.552H400.043C400.043 35.2174 399.279 32.5128 397.602 30.6324C395.897 28.7215 393.471 27.908 390.695 27.908V30.908ZM397.043 38.552V59H400.043V38.552H397.043ZM398.543 60.5H409.775V57.5H398.543V60.5ZM411.275 59V36.824H408.275V59H411.275ZM411.275 36.824C411.275 30.6247 409.454 25.9135 406.225 22.7556C403.005 19.6064 398.576 18.188 393.719 18.188V21.188C398.007 21.188 401.605 22.4336 404.127 24.9004C406.641 27.3585 408.275 31.2153 408.275 36.824H411.275ZM457.026 53.312L458.154 54.3012L459.044 53.2869L458.129 52.2951L457.026 53.312ZM451.05 46.832L452.153 45.8151L451.123 44.6984L450.02 45.7423L451.05 46.832ZM430.242 42.8V41.3H428.369L428.779 43.1277L430.242 42.8ZM459.546 42.8V44.3H460.935L461.042 42.915L459.546 42.8ZM449.178 36.248V37.748H450.941L450.659 36.0085L449.178 36.248ZM430.098 36.248L428.617 36.0119L428.34 37.748H430.098V36.248ZM461.262 39.776C461.262 33.1788 458.927 27.7521 454.986 23.9777C451.054 20.2125 445.627 18.188 439.602 18.188V21.188C444.954 21.188 449.606 22.9795 452.911 26.1443C456.206 29.2999 458.262 33.9172 458.262 39.776H461.262ZM439.602 18.188C427.026 18.188 417.438 27.1523 417.438 39.632H420.438C420.438 28.9277 428.562 21.188 439.602 21.188V18.188ZM417.438 39.632C417.438 45.7874 419.775 51.1817 423.952 55.0276C428.123 58.8667 434.03 61.076 441.042 61.076V58.076C434.662 58.076 429.518 56.0733 425.984 52.8204C422.458 49.5743 420.438 44.9966 420.438 39.632H417.438ZM441.042 61.076C448.342 61.076 454.201 58.8079 458.154 54.3012L455.899 52.3228C452.652 56.0241 447.71 58.076 441.042 58.076V61.076ZM458.129 52.2951L452.153 45.8151L449.948 47.8489L455.924 54.3289L458.129 52.2951ZM450.02 45.7423C447.642 47.9912 445.062 49.076 441.33 49.076V52.076C445.807 52.076 449.131 50.7128 452.081 47.9217L450.02 45.7423ZM441.33 49.076C435.968 49.076 432.6 46.4658 431.706 42.4723L428.779 43.1277C430.045 48.7822 434.885 52.076 441.33 52.076V49.076ZM430.242 44.3H459.546V41.3H430.242V44.3ZM461.042 42.915C461.106 42.0882 461.262 40.7152 461.262 39.776H458.262C458.262 40.5648 458.131 41.6398 458.051 42.685L461.042 42.915ZM439.674 29.684C443.977 29.684 447.023 32.3162 447.698 36.4875L450.659 36.0085C449.75 30.3878 445.452 26.684 439.674 26.684V29.684ZM449.178 34.748H430.098V37.748H449.178V34.748ZM431.58 36.4841C431.925 34.3167 432.881 32.6389 434.233 31.5002C435.586 30.3603 437.427 29.684 439.674 29.684V26.684C436.809 26.684 434.259 27.5557 432.3 29.2058C430.34 30.8571 429.064 33.2113 428.617 36.0119L431.58 36.4841ZM494.96 31.064L494.221 32.3694L495.631 33.1675L496.319 31.7003L494.96 31.064ZM498.704 23.072L500.063 23.7083L500.642 22.4716L499.465 21.7791L498.704 23.072ZM468.68 47.336L469.494 46.0759L468.046 45.1406L467.32 46.7043L468.68 47.336ZM464.936 55.4L463.576 54.7683L463.032 55.9402L464.11 56.6519L464.936 55.4ZM481.712 61.076C487.706 61.076 492.61 59.7572 496.061 57.3503C499.557 54.9127 501.5 51.3898 501.5 47.264H498.5C498.5 50.3382 497.096 52.9713 494.345 54.8897C491.55 56.8388 487.31 58.076 481.712 58.076V61.076ZM501.5 47.264C501.5 42.9883 499.825 40.0779 497.245 38.1383C494.764 36.2731 491.553 35.3865 488.586 34.8114C487.09 34.5214 485.589 34.2997 484.238 34.0865C482.863 33.8697 481.651 33.6628 480.633 33.3988C479.594 33.1292 478.914 32.8369 478.516 32.5327C478.19 32.2839 478.1 32.0764 478.1 31.784H475.1C475.1 33.1476 475.742 34.1888 476.695 34.9171C477.577 35.5899 478.725 36.0031 479.88 36.3027C481.056 36.6079 482.403 36.8342 483.77 37.0499C485.161 37.2693 486.586 37.4796 488.015 37.7566C490.898 38.3155 493.536 39.1029 495.443 40.5362C497.25 41.8951 498.5 43.9077 498.5 47.264H501.5ZM478.1 31.784C478.1 31.421 478.25 30.976 479.037 30.5402C479.892 30.0668 481.402 29.684 483.8 29.684V26.684C481.159 26.684 479.069 27.0932 477.583 27.9158C476.03 28.776 475.1 30.131 475.1 31.784H478.1ZM483.8 29.684C487.116 29.684 490.668 30.3581 494.221 32.3694L495.699 29.7586C491.62 27.4499 487.541 26.684 483.8 26.684V29.684ZM496.319 31.7003L500.063 23.7083L497.346 22.4357L493.602 30.4277L496.319 31.7003ZM499.465 21.7791C495.484 19.4376 489.288 18.188 483.8 18.188V21.188C488.969 21.188 494.58 22.3864 497.944 24.3649L499.465 21.7791ZM483.8 18.188C477.939 18.188 473.119 19.5295 469.72 21.9815C466.279 24.4633 464.372 28.0383 464.372 32.216H467.372C467.372 29.0497 468.777 26.3607 471.475 24.4145C474.214 22.4385 478.357 21.188 483.8 21.188V18.188ZM464.372 32.216C464.372 36.5367 466.04 39.4831 468.62 41.4458C471.105 43.335 474.32 44.2243 477.293 44.7868C478.794 45.0707 480.294 45.2813 481.65 45.4809C483.028 45.6837 484.244 45.8735 485.267 46.1184C486.313 46.3689 486.995 46.642 487.392 46.9273C487.713 47.1577 487.772 47.327 487.772 47.552H490.772C490.772 46.193 490.1 45.1788 489.142 44.4904C488.259 43.8568 487.113 43.4758 485.965 43.2009C484.794 42.9204 483.451 42.7136 482.087 42.5128C480.701 42.3089 479.276 42.1088 477.851 41.8392C474.974 41.2947 472.34 40.5055 470.437 39.0579C468.63 37.6839 467.372 35.6353 467.372 32.216H464.372ZM487.772 47.552C487.772 47.8597 487.706 48.0713 487.607 48.2339C487.506 48.3992 487.317 48.6022 486.94 48.806C486.136 49.2398 484.656 49.58 482.144 49.58V52.58C484.817 52.58 486.9 52.2362 488.365 51.446C489.121 51.0378 489.743 50.4938 490.168 49.7951C490.596 49.0937 490.772 48.3243 490.772 47.552H487.772ZM482.144 49.58C477.653 49.58 472.685 48.1369 469.494 46.0759L467.866 48.5961C471.587 50.9991 477.131 52.58 482.144 52.58V49.58ZM467.32 46.7043L463.576 54.7683L466.297 56.0317L470.041 47.9677L467.32 46.7043ZM464.11 56.6519C468.023 59.2343 474.959 61.076 481.712 61.076V58.076C475.361 58.076 469.05 56.3177 465.763 54.1481L464.11 56.6519ZM534.65 31.064L533.911 32.3694L535.321 33.1675L536.009 31.7003L534.65 31.064ZM538.394 23.072L539.753 23.7083L540.332 22.4716L539.155 21.7791L538.394 23.072ZM508.37 47.336L509.184 46.0759L507.736 45.1406L507.01 46.7043L508.37 47.336ZM504.626 55.4L503.266 54.7683L502.722 55.9402L503.8 56.6519L504.626 55.4ZM521.402 61.076C527.396 61.076 532.3 59.7572 535.751 57.3503C539.247 54.9127 541.19 51.3898 541.19 47.264H538.19C538.19 50.3382 536.786 52.9713 534.035 54.8897C531.24 56.8388 527 58.076 521.402 58.076V61.076ZM541.19 47.264C541.19 42.9883 539.515 40.0779 536.935 38.1383C534.454 36.2731 531.243 35.3865 528.276 34.8114C526.78 34.5214 525.279 34.2997 523.928 34.0865C522.553 33.8697 521.341 33.6628 520.323 33.3988C519.284 33.1292 518.604 32.8369 518.206 32.5327C517.88 32.2839 517.79 32.0764 517.79 31.784H514.79C514.79 33.1476 515.432 34.1888 516.385 34.9171C517.267 35.5899 518.415 36.0031 519.57 36.3027C520.746 36.6079 522.093 36.8342 523.46 37.0499C524.851 37.2693 526.276 37.4796 527.705 37.7566C530.588 38.3155 533.226 39.1029 535.133 40.5362C536.94 41.8951 538.19 43.9077 538.19 47.264H541.19ZM517.79 31.784C517.79 31.421 517.94 30.976 518.727 30.5402C519.582 30.0668 521.092 29.684 523.49 29.684V26.684C520.849 26.684 518.759 27.0932 517.273 27.9158C515.72 28.776 514.79 30.131 514.79 31.784H517.79ZM523.49 29.684C526.806 29.684 530.358 30.3581 533.911 32.3694L535.389 29.7586C531.31 27.4499 527.231 26.684 523.49 26.684V29.684ZM536.009 31.7003L539.753 23.7083L537.036 22.4357L533.292 30.4277L536.009 31.7003ZM539.155 21.7791C535.174 19.4376 528.978 18.188 523.49 18.188V21.188C528.659 21.188 534.27 22.3864 537.634 24.3649L539.155 21.7791ZM523.49 18.188C517.629 18.188 512.809 19.5295 509.41 21.9815C505.969 24.4633 504.062 28.0383 504.062 32.216H507.062C507.062 29.0497 508.467 26.3607 511.165 24.4145C513.904 22.4385 518.047 21.188 523.49 21.188V18.188ZM504.062 32.216C504.062 36.5367 505.73 39.4831 508.31 41.4458C510.795 43.335 514.01 44.2243 516.983 44.7868C518.484 45.0707 519.984 45.2813 521.34 45.4809C522.718 45.6837 523.934 45.8735 524.957 46.1184C526.003 46.3689 526.685 46.642 527.082 46.9273C527.403 47.1577 527.462 47.327 527.462 47.552H530.462C530.462 46.193 529.79 45.1788 528.832 44.4904C527.949 43.8568 526.803 43.4758 525.655 43.2009C524.484 42.9204 523.141 42.7136 521.777 42.5128C520.391 42.3089 518.966 42.1088 517.541 41.8392C514.664 41.2947 512.03 40.5055 510.127 39.0579C508.32 37.6839 507.062 35.6353 507.062 32.216H504.062ZM527.462 47.552C527.462 47.8597 527.396 48.0713 527.297 48.2339C527.196 48.3992 527.007 48.6022 526.63 48.806C525.826 49.2398 524.346 49.58 521.834 49.58V52.58C524.507 52.58 526.59 52.2362 528.055 51.446C528.811 51.0378 529.433 50.4938 529.858 49.7951C530.286 49.0937 530.462 48.3243 530.462 47.552H527.462ZM521.834 49.58C517.343 49.58 512.375 48.1369 509.184 46.0759L507.556 48.5961C511.277 50.9991 516.821 52.58 521.834 52.58V49.58ZM507.01 46.7043L503.266 54.7683L505.987 56.0317L509.731 47.9677L507.01 46.7043ZM503.8 56.6519C507.713 59.2343 514.649 61.076 521.402 61.076V58.076C515.051 58.076 508.74 56.3177 505.453 54.1481L503.8 56.6519Z" fill="white"/>
</svg>
