<svg width="771" height="278" viewBox="0 0 771 278" fill="none" xmlns="http://www.w3.org/2000/svg">
    <path d="M248.675 166.066V165.566H248.175H205.258V116.127V115.627H204.758H146.487H145.987V116.127V165.566H75.8669L191.832 5.86836L192.409 5.07457H191.428H126.682H126.431L126.281 5.27649L0.598567 174.536L0.5 174.669V174.834V216.387V216.887H1H144.082V272.425V272.925H144.582H204.758H205.258V272.425V216.887H248.175H248.675V216.387V166.066ZM769.747 166.066V165.566H769.247H726.33V116.127V115.627H725.83H667.559H667.059V116.127V165.566H596.939L712.905 5.86836L713.481 5.07457H712.5H647.755H647.503L647.353 5.27649L521.671 174.536L521.572 174.669V174.834V216.387V216.887H522.072H665.155V272.425V272.925H665.655H725.83H726.33V272.425V216.887H769.247H769.747V216.387V166.066ZM380.885 277.5C413.963 277.5 442.669 264.96 463.1 241.35C483.525 217.746 495.642 183.119 495.642 139C495.642 94.8806 483.525 60.2544 463.1 36.65C442.669 13.0396 413.963 0.5 380.885 0.5C347.997 0.5 319.291 13.04 298.814 36.6496C278.342 60.2535 266.129 94.8796 266.129 139C266.129 183.12 278.342 217.746 298.814 241.35C319.291 264.96 347.997 277.5 380.885 277.5ZM380.885 224.273C365.812 224.273 353.023 218.062 343.979 204.342C334.915 190.591 329.589 169.261 329.589 139C329.589 108.739 334.915 87.4086 343.979 73.6585C353.023 59.9382 365.812 53.7265 380.885 53.7265C396.151 53.7265 409.035 59.94 418.125 73.6595C427.236 87.4091 432.562 108.739 432.562 139C432.562 169.261 427.236 190.591 418.125 204.341C409.035 218.06 396.151 224.273 380.885 224.273Z" fill="#2E2F34" stroke="white"/>
    <path d="M380.885 277.5C413.963 277.5 442.669 264.96 463.1 241.35C483.525 217.746 495.642 183.119 495.642 139C495.642 94.8806 483.525 60.2544 463.1 36.65C442.669 13.0396 413.963 0.5 380.885 0.5C347.997 0.5 319.291 13.04 298.814 36.6496C278.342 60.2535 266.129 94.8796 266.129 139C266.129 183.12 278.342 217.746 298.814 241.35C319.291 264.96 347.997 277.5 380.885 277.5ZM380.885 224.273C365.812 224.273 353.023 218.062 343.979 204.342C334.915 190.591 329.589 169.261 329.589 139C329.589 108.739 334.915 87.4086 343.979 73.6585C353.023 59.9382 365.812 53.7265 380.885 53.7265C396.151 53.7265 409.035 59.94 418.125 73.6595C427.236 87.4091 432.562 108.739 432.562 139C432.562 169.261 427.236 190.591 418.125 204.341C409.035 218.06 396.151 224.273 380.885 224.273Z" stroke="#78B539"/>
</svg>
