<svg width="1176" height="461" viewBox="0 0 1176 461" fill="none" xmlns="http://www.w3.org/2000/svg">
<path d="M1.63281 458.089C38.3239 366.11 252.035 52.8209 572.287 160.394C724.663 211.577 812.096 81.0532 839.237 -4.89453" stroke="#454545" stroke-width="2"/>
<path d="M113.365 438.88C150.056 346.901 299.467 172.399 632.288 230.394C815.993 262.405 898.484 91.8554 925.625 5.90771" stroke="#454545" stroke-width="2"/>
<path d="M225.639 438.88C262.33 346.901 427.305 264.816 696.59 307.486C876.659 336.019 1005.27 167.893 1023.02 -1.2876" stroke="#454545" stroke-width="2"/>
<path d="M368.42 438.88C405.111 346.901 578.822 341.797 761.074 377.162C936.449 411.194 1123.94 138.451 1099.54 -1.28711" stroke="#454545" stroke-width="2"/>
<path d="M464.785 459.706C597.108 388.928 675.56 427.589 824.954 439.449C966.247 450.667 1213.14 179.28 1169.49 4.68555" stroke="#454545" stroke-width="2"/>
</svg>
