<svg fill="none" height="41" viewBox="0 0 41 41" width="41" xmlns="http://www.w3.org/2000/svg" xmlns:xlink="http://www.w3.org/1999/xlink"><clipPath id="a"><path d="m.779297.42749h39.5232v40h-39.5232z"/></clipPath><g clip-path="url(#a)" fill="#78b539"><path d="m40.2964 12.514v-2.3389h-9.9369v-4.41528l-9.7824-5.33233-9.7828 5.33233v4.41528h-9.911247v2.3389h1.258317v25.5745h-1.283948v2.3389h39.438978v-2.3389h-1.258v-25.5745zm-19.7193-9.43027 7.4717 4.07287v30.9319h-6.3166v-4.1619h-2.3106v4.1619h-6.3166v-30.9319zm-16.12505 35.00477v-25.5745h6.34225v2.3126h-3.23521v2.3388h3.23521v2.3392h-3.23521v2.3386h3.23521v2.3391h-3.23521v2.3389h3.23521v2.3392h-3.23521v2.3385h3.23521v6.89h-6.34225zm32.27535 0h-6.3679v-6.8896h3.2612v-2.3388h-3.2612v-2.3389h3.2612v-2.3389h-3.2612v-2.3391h3.2612v-2.3386h-3.2612v-2.3392h3.2612v-2.3388h-3.2612v-2.3126h6.3679z"/><path d="m14.9531 9.8374h2.3113v2.3389h-2.3113z"/><path d="m19.4209 9.8374h2.311v2.3389h-2.311z"/><path d="m23.8115 9.8374h2.3113v2.3389h-2.3113z"/><path d="m14.9531 14.7488h2.3113v2.3388h-2.3113z"/><path d="m19.4209 14.7488h2.311v2.3388h-2.311z"/><path d="m23.8115 14.7488h2.3113v2.3388h-2.3113z"/><path d="m14.9531 19.6602h2.3113v2.3385h-2.3113z"/><path d="m19.4209 19.6602h2.311v2.3385h-2.311z"/><path d="m23.8115 19.6602h2.3113v2.3385h-2.3113z"/><path d="m14.9531 24.5715h2.3113v2.3389h-2.3113z"/><path d="m19.4209 24.5715h2.311v2.3389h-2.311z"/><path d="m23.8115 24.5715h2.3113v2.3389h-2.3113z"/><path d="m14.9531 29.4829h2.3113v2.3389h-2.3113z"/><path d="m19.4209 29.4829h2.311v2.3389h-2.311z"/><path d="m23.8115 29.4829h2.3113v2.3389h-2.3113z"/></g></svg>