<svg width="45" height="45" viewBox="0 0 45 45" fill="none" xmlns="http://www.w3.org/2000/svg">
<g clip-path="url(#clip0)">
<path d="M43.1873 0.594482H1.76579C1.0538 0.594482 0.476562 1.17172 0.476562 1.88371V31.0774C0.476562 31.7894 1.0538 32.3666 1.76579 32.3666H4.76154V42.9148C4.76154 43.4055 5.03568 43.8322 5.43924 44.0501C5.63896 44.1772 5.87606 44.2507 6.13035 44.2507H34.7006C35.4126 44.2507 35.9899 43.6735 35.9899 42.9615V35.2436C35.9899 34.9017 35.854 34.5738 35.6122 34.332C35.3704 34.0903 35.0425 33.9544 34.7006 33.9544H15.0698V32.3665H43.1873C43.8992 32.3665 44.4765 31.7893 44.4765 31.0773V1.88371C44.4766 1.17172 43.8993 0.594482 43.1873 0.594482ZM41.8981 3.17293V7.80905H3.05501V3.17293H41.8981ZM15.3436 36.5328V37.9281C15.3436 38.6401 15.9209 39.2173 16.6329 39.2173C17.3448 39.2173 17.9221 38.6401 17.9221 37.9281V36.5328H20.0128V37.9281C20.0128 38.6401 20.5901 39.2173 21.3021 39.2173C22.0141 39.2173 22.5913 38.6401 22.5913 37.9281V36.5328H24.6821V37.9281C24.6821 38.6401 25.2594 39.2173 25.9714 39.2173C26.6833 39.2173 27.2606 38.6401 27.2606 37.9281V36.5328H29.3513V37.9281C29.3513 38.6401 29.9286 39.2173 30.6406 39.2173C31.3525 39.2173 31.9298 38.6401 31.9298 37.9281V36.5328H33.4114V41.6723H7.33999V15.6778H12.4913V16.9225H11.0919C10.3799 16.9225 9.80269 17.4997 9.80269 18.2117C9.80269 18.9237 10.3799 19.5009 11.0919 19.5009H12.4913V21.5918H11.0919C10.3799 21.5918 9.80269 22.169 9.80269 22.881C9.80269 23.593 10.3799 24.1702 11.0919 24.1702H12.4913V26.261H11.0919C10.3799 26.261 9.80269 26.8382 9.80269 27.5502C9.80269 28.2622 10.3799 28.8394 11.0919 28.8394H12.4913V30.9302H11.0919C10.3799 30.9302 9.80269 31.5074 9.80269 32.2194C9.80269 32.9314 10.3799 33.5086 11.0919 33.5086H12.4913V35.2436C12.4913 35.5856 12.6272 35.9134 12.8689 36.1552C13.1107 36.397 13.4387 36.5328 13.7805 36.5328H15.3436ZM15.0698 29.7882V14.3885C15.0698 13.6766 14.4925 13.0993 13.7805 13.0993H6.05077C5.33878 13.0993 4.76154 13.6766 4.76154 14.3885V29.7882H3.05501V10.3875H41.8981V29.7882H15.0698Z" fill="#78B539"/>
<path d="M30.0909 14.6759C29.4519 14.4849 28.7788 14.8481 28.5878 15.4872L26.0529 23.9674C25.8618 24.6064 26.225 25.2794 26.864 25.4704C26.9794 25.5049 27.0959 25.5213 27.2104 25.5213C27.7304 25.5213 28.2106 25.1829 28.3671 24.6592L30.9021 16.179C31.0931 15.5399 30.73 14.867 30.0909 14.6759Z" fill="#78B539"/>
<path d="M20.3282 20.3626L23.6741 16.6404C24.1201 16.1444 24.0794 15.3807 23.5834 14.9348C23.0873 14.4889 22.3236 14.5296 21.8778 15.0256L17.7412 19.6273C17.3019 20.116 17.3339 20.8663 17.8133 21.3157L21.9499 25.1942C22.183 25.4126 22.4796 25.5209 22.7757 25.5209C23.0978 25.5209 23.4192 25.3928 23.657 25.1393C24.1132 24.6527 24.0885 23.8884 23.602 23.4322L20.3282 20.3626Z" fill="#78B539"/>
<path d="M35.0805 15.0256C34.6347 14.5296 33.8712 14.4889 33.3749 14.9348C32.879 15.3807 32.8382 16.1444 33.2842 16.6404L36.6301 20.3626L33.3563 23.4322C32.8697 23.8885 32.8451 24.6527 33.3013 25.1393C33.5391 25.3929 33.8604 25.5209 34.1826 25.5209C34.4786 25.5209 34.7753 25.4127 35.0083 25.1942L39.1449 21.3157C39.6243 20.8663 39.6563 20.116 39.217 19.6273L35.0805 15.0256Z" fill="#78B539"/>
<path d="M38.849 6.59514C39.5584 6.59514 40.1335 6.02004 40.1335 5.31063C40.1335 4.60122 39.5584 4.02612 38.849 4.02612C38.1395 4.02612 37.5645 4.60122 37.5645 5.31063C37.5645 6.02004 38.1395 6.59514 38.849 6.59514Z" fill="#78B539"/>
<path d="M10.3509 6.59514C11.0603 6.59514 11.6354 6.02004 11.6354 5.31063C11.6354 4.60122 11.0603 4.02612 10.3509 4.02612C9.6415 4.02612 9.06641 4.60122 9.06641 5.31063C9.06641 6.02004 9.6415 6.59514 10.3509 6.59514Z" fill="#78B539"/>
<path d="M5.85873 6.59514C6.56814 6.59514 7.14324 6.02004 7.14324 5.31063C7.14324 4.60122 6.56814 4.02612 5.85873 4.02612C5.14931 4.02612 4.57422 4.60122 4.57422 5.31063C4.57422 6.02004 5.14931 6.59514 5.85873 6.59514Z" fill="#78B539"/>
</g>
<defs>
<clipPath id="clip0">
<rect width="44" height="44" fill="white" transform="translate(0.476562 0.422607)"/>
</clipPath>
</defs>
</svg>
