<svg width="56" height="96" viewBox="0 0 56 96" fill="none" xmlns="http://www.w3.org/2000/svg">
<path d="M1.12305 52.4953L54.547 52.4953L54.547 63.2233L50.083 63.2233C53.443 66.0073 55.123 70.0393 55.123 75.3193C55.1231 78.9673 54.307 82.2793 52.675 85.2553C51.043 88.1833 48.7151 90.4873 45.6911 92.1673C42.6671 93.8473 39.163 94.6873 35.179 94.6873C31.195 94.6873 27.691 93.8473 24.667 92.1673C21.643 90.4873 19.315 88.1833 17.683 85.2553C16.051 82.2793 15.235 78.9673 15.235 75.3193C15.235 70.3753 16.795 66.5113 19.915 63.7273L1.12305 63.7273L1.12305 52.4953ZM45.9071 73.3753C45.9071 70.5433 44.947 68.1913 43.027 66.3193C41.059 64.4473 38.443 63.5113 35.179 63.5113C31.915 63.5113 29.323 64.4473 27.403 66.3193C25.435 68.1913 24.451 70.5433 24.451 73.3753C24.451 76.2553 25.435 78.6313 27.403 80.5033C29.323 82.3753 31.915 83.3113 35.179 83.3113C38.443 83.3113 41.059 82.3753 43.027 80.5033C44.947 78.6313 45.9071 76.2553 45.9071 73.3753Z" stroke="black" stroke-width="1.5"/>
<path d="M55.123 22.2277C55.123 26.3077 54.283 29.9797 52.603 33.2437C50.875 36.4597 48.499 38.9797 45.475 40.8037C42.451 42.6277 39.019 43.5397 35.179 43.5397C31.339 43.5397 27.907 42.6277 24.883 40.8037C21.859 38.9797 19.507 36.4597 17.827 33.2437C16.099 29.9797 15.235 26.3077 15.235 22.2277C15.235 18.1477 16.099 14.4997 17.827 11.2837C19.507 8.06769 21.859 5.54769 24.883 3.72369C27.907 1.89969 31.339 0.987692 35.179 0.987692C39.019 0.987692 42.451 1.89969 45.475 3.72369C48.499 5.54769 50.875 8.06769 52.603 11.2837C54.283 14.4997 55.123 18.1477 55.123 22.2277ZM45.907 22.2277C45.907 19.3477 44.947 16.9957 43.027 15.1717C41.059 13.2997 38.443 12.3637 35.179 12.3637C31.915 12.3637 29.323 13.2997 27.403 15.1717C25.435 16.9957 24.451 19.3477 24.451 22.2277C24.451 25.1077 25.435 27.4837 27.403 29.3557C29.323 31.2277 31.915 32.1637 35.179 32.1637C38.443 32.1637 41.059 31.2277 43.027 29.3557C44.947 27.4837 45.907 25.1077 45.907 22.2277Z" stroke="black" stroke-width="1.5"/>
</svg>
