<svg width="18" height="18" viewBox="0 0 18 18" fill="none" xmlns="http://www.w3.org/2000/svg">
<g clip-path="url(#clip0)">
<path d="M13.499 0.00374516L11.1648 0C8.54241 0 6.84772 1.73869 6.84772 4.42978V6.4722H4.50082C4.29801 6.4722 4.13379 6.63661 4.13379 6.83941V9.79865C4.13379 10.0014 4.2982 10.1657 4.50082 10.1657H6.84772V17.6328C6.84772 17.8356 7.01195 17.9998 7.21475 17.9998H10.2768C10.4796 17.9998 10.6438 17.8354 10.6438 17.6328V10.1657H13.3879C13.5907 10.1657 13.7549 10.0014 13.7549 9.79865L13.7561 6.83941C13.7561 6.74204 13.7173 6.64878 13.6486 6.57987C13.5798 6.51096 13.4862 6.4722 13.3888 6.4722H10.6438V4.74081C10.6438 3.90864 10.8421 3.48618 11.9262 3.48618L13.4986 3.48562C13.7012 3.48562 13.8654 3.32121 13.8654 3.11859V0.370771C13.8654 0.168345 13.7014 0.00411968 13.499 0.00374516Z" fill="white"/>
</g>
<defs>
<clipPath id="clip0">
<rect width="18" height="17.9998" fill="white"/>
</clipPath>
</defs>
</svg>
