<svg width="14" height="14" viewBox="0 0 14 14" fill="none" xmlns="http://www.w3.org/2000/svg">
<path d="M13.5223 10.2371L11.7968 8.5117C11.3211 8.03603 10.5471 8.03603 10.0714 8.5117L9.28711 9.29598C8.92673 9.65637 8.34031 9.65626 7.98007 9.29612L4.58063 5.89379C4.21941 5.53256 4.21935 4.94791 4.58063 4.58663C4.70696 4.4603 5.0697 4.09756 5.36491 3.80235C5.83853 3.32876 5.84514 2.55711 5.36445 2.07647L3.63947 0.356913C3.16376 -0.118763 2.38973 -0.118763 1.9153 0.355666C1.56028 0.707592 1.44577 0.821123 1.28659 0.978923C-0.42885 2.69433 -0.42885 5.48553 1.28651 7.20089L6.6728 12.59C8.39225 14.3095 11.1752 14.3096 12.8948 12.59L13.5223 11.9626C13.998 11.4869 13.998 10.7128 13.5223 10.2371ZM2.48919 0.932052C2.64775 0.773493 2.90571 0.773466 3.06479 0.932486L4.78977 2.65205C4.94871 2.81098 4.94871 3.06822 4.78977 3.22718L4.50218 3.51475L2.20308 1.21566L2.48919 0.932052ZM7.24805 12.0149L1.86173 6.62578C0.53454 5.29859 0.461591 3.21461 1.63738 1.80026L3.9298 4.09268C3.32745 4.77553 3.35255 5.81604 4.00535 6.46884L7.40468 9.87101C7.40471 9.87104 7.40476 9.8711 7.40479 9.87112C8.05689 10.5232 9.09735 10.55 9.78103 9.94681L12.0735 12.2393C10.6637 13.413 8.58437 13.3513 7.24805 12.0149ZM12.9472 11.3874L12.6596 11.675L10.359 9.37441L10.6465 9.08684C10.8051 8.92828 11.0631 8.92826 11.2217 9.08684L12.9471 10.8123C13.1057 10.9709 13.1057 11.2289 12.9472 11.3874Z" fill="#78B539"/>
</svg>
