<svg width="315" height="76" viewBox="0 0 315 76" fill="none" xmlns="http://www.w3.org/2000/svg">
<path d="M12.912 24.728H11.412V28.8847L14.0663 25.6859L12.912 24.728ZM12.912 20.264H14.412V18.764H12.912V20.264ZM2.184 20.264V18.764H0.684V20.264H2.184ZM2.184 72.968H0.684V74.468H2.184V72.968ZM13.416 72.968V74.468H14.916V72.968H13.416ZM13.416 54.896L14.5259 53.887L11.916 51.0161V54.896H13.416ZM25.08 18.188C19.5666 18.188 14.9177 19.9619 11.7577 23.7701L14.0663 25.6859C16.5223 22.7261 20.2254 21.188 25.08 21.188V18.188ZM14.412 24.728V20.264H11.412V24.728H14.412ZM12.912 18.764H2.184V21.764H12.912V18.764ZM0.684 20.264V72.968H3.684V20.264H0.684ZM2.184 74.468H13.416V71.468H2.184V74.468ZM14.916 72.968V54.896H11.916V72.968H14.916ZM12.3061 55.905C15.5254 59.4463 19.9228 61.076 25.08 61.076V58.076C20.5892 58.076 17.0666 56.6817 14.5259 53.887L12.3061 55.905ZM25.08 61.076C30.8801 61.076 36.0964 58.9969 39.8657 55.2277C43.6389 51.4544 45.876 46.074 45.876 39.632H42.876C42.876 45.358 40.9011 49.9496 37.7443 53.1063C34.5836 56.2671 30.1519 58.076 25.08 58.076V61.076ZM45.876 39.632C45.876 33.19 43.6389 27.8096 39.8657 24.0363C36.0964 20.2671 30.8801 18.188 25.08 18.188V21.188C30.1519 21.188 34.5836 22.9969 37.7443 26.1577C40.9011 29.3144 42.876 33.906 42.876 39.632H45.876ZM23.136 48.86C20.6974 48.86 18.6367 47.9917 17.1822 46.4704C15.7261 44.9475 14.772 42.6577 14.772 39.632H11.772C11.772 43.3023 12.9419 46.3765 15.0138 48.5436C17.0873 50.7123 19.9586 51.86 23.136 51.86V48.86ZM14.772 39.632C14.772 36.6063 15.7261 34.3165 17.1822 32.7936C18.6367 31.2723 20.6974 30.404 23.136 30.404V27.404C19.9586 27.404 17.0873 28.5517 15.0138 30.7204C12.9419 32.8875 11.772 35.9617 11.772 39.632H14.772ZM23.136 30.404C25.5746 30.404 27.6353 31.2723 29.0898 32.7936C30.5459 34.3165 31.5 36.6063 31.5 39.632H34.5C34.5 35.9617 33.3301 32.8875 31.2582 30.7204C29.1847 28.5517 26.3134 27.404 23.136 27.404V30.404ZM31.5 39.632C31.5 42.6577 30.5459 44.9475 29.0898 46.4704C27.6353 47.9917 25.5746 48.86 23.136 48.86V51.86C26.3134 51.86 29.1847 50.7123 31.2582 48.5436C33.3301 46.3765 34.5 43.3023 34.5 39.632H31.5ZM64.0629 25.376H62.5629V29.9709L65.274 26.261L64.0629 25.376ZM64.0629 20.264H65.5629V18.764H64.0629V20.264ZM53.3349 20.264V18.764H51.8349V20.264H53.3349ZM53.3349 59H51.8349V60.5H53.3349V59ZM64.5669 59V60.5H66.0669V59H64.5669ZM77.3829 30.056L77.2679 31.5516L78.8829 31.6758V30.056H77.3829ZM77.3829 19.688H78.8829V18.188H77.3829V19.688ZM65.5629 25.376V20.264H62.5629V25.376H65.5629ZM64.0629 18.764H53.3349V21.764H64.0629V18.764ZM51.8349 20.264V59H54.8349V20.264H51.8349ZM53.3349 60.5H64.5669V57.5H53.3349V60.5ZM66.0669 59V40.712H63.0669V59H66.0669ZM66.0669 40.712C66.0669 37.2757 67.0128 35.0109 68.4455 33.5996C69.8837 32.1831 72.0298 31.412 74.8629 31.412V28.412C71.5041 28.412 68.5022 29.3329 66.3403 31.4624C64.1731 33.5971 63.0669 36.7323 63.0669 40.712H66.0669ZM74.8629 31.412C75.6528 31.412 76.2933 31.4766 77.2679 31.5516L77.498 28.5604C76.6006 28.4914 75.801 28.412 74.8629 28.412V31.412ZM78.8829 30.056V19.688H75.8829V30.056H78.8829ZM77.3829 18.188C71.0893 18.188 65.9535 20.2466 62.8519 24.491L65.274 26.261C67.6444 23.0174 71.7246 21.188 77.3829 21.188V18.188ZM103.582 61.076C116.627 61.076 126.322 52.217 126.322 39.632H123.322C123.322 50.375 115.161 58.076 103.582 58.076V61.076ZM126.322 39.632C126.322 27.047 116.627 18.188 103.582 18.188V21.188C115.161 21.188 123.322 28.889 123.322 39.632H126.322ZM103.582 18.188C90.5441 18.188 80.7699 27.0405 80.7699 39.632H83.7699C83.7699 28.8955 91.9957 21.188 103.582 21.188V18.188ZM80.7699 39.632C80.7699 52.2235 90.5441 61.076 103.582 61.076V58.076C91.9957 58.076 83.7699 50.3685 83.7699 39.632H80.7699ZM103.582 48.86C101.142 48.86 99.0604 47.9905 97.5869 46.4649C96.1136 44.9396 95.1459 42.6506 95.1459 39.632H92.1459C92.1459 43.3094 93.3383 46.3844 95.429 48.5491C97.5195 50.7135 100.406 51.86 103.582 51.86V48.86ZM95.1459 39.632C95.1459 36.6134 96.1136 34.3244 97.5869 32.7991C99.0604 31.2735 101.142 30.404 103.582 30.404V27.404C100.406 27.404 97.5195 28.5505 95.429 30.7149C93.3383 32.8796 92.1459 35.9546 92.1459 39.632H95.1459ZM103.582 30.404C106.02 30.404 108.081 31.2723 109.536 32.7936C110.992 34.3165 111.946 36.6063 111.946 39.632H114.946C114.946 35.9617 113.776 32.8875 111.704 30.7204C109.631 28.5517 106.759 27.404 103.582 27.404V30.404ZM111.946 39.632C111.946 42.6577 110.992 44.9475 109.536 46.4704C108.081 47.9917 106.02 48.86 103.582 48.86V51.86C106.759 51.86 109.631 50.7123 111.704 48.5436C113.776 46.3765 114.946 43.3023 114.946 39.632H111.946ZM145.506 20.264H147.006V18.764H145.506V20.264ZM134.274 20.264V18.764H132.774V20.264H134.274ZM124.914 63.248L125.779 62.0225L124.187 60.8987L123.508 62.7254L124.914 63.248ZM121.89 71.384L120.484 70.8614L120.08 71.9481L121.029 72.6128L121.89 71.384ZM139.89 16.364C142.309 16.364 144.439 15.5669 145.976 14.1203C147.517 12.6692 148.374 10.6462 148.374 8.384H145.374C145.374 9.8658 144.826 11.0828 143.92 11.9357C143.009 12.7931 141.646 13.364 139.89 13.364V16.364ZM148.374 8.384C148.374 3.92865 144.712 0.835995 139.89 0.835995V3.83599C143.419 3.83599 145.374 5.92735 145.374 8.384H148.374ZM139.89 0.835995C135.007 0.835995 131.406 4.12698 131.406 8.6H134.406C134.406 6.01702 136.42 3.83599 139.89 3.83599V0.835995ZM131.406 8.6C131.406 13.073 135.007 16.364 139.89 16.364V13.364C136.42 13.364 134.406 11.183 134.406 8.6H131.406ZM130.89 75.044C135.877 75.044 139.953 73.5214 142.78 70.6332C145.601 67.7503 147.006 63.6836 147.006 58.928H144.006C144.006 63.1004 142.782 66.3417 140.636 68.5348C138.494 70.7226 135.262 72.044 130.89 72.044V75.044ZM147.006 58.928V20.264H144.006V58.928H147.006ZM145.506 18.764H134.274V21.764H145.506V18.764ZM132.774 20.264V59H135.774V20.264H132.774ZM132.774 59C132.774 60.6949 132.372 61.6975 131.888 62.2583C131.432 62.7857 130.736 63.116 129.666 63.116V66.116C131.404 66.116 133.011 65.5463 134.158 64.2197C135.275 62.9265 135.774 61.1211 135.774 59H132.774ZM129.666 63.116C128.053 63.116 126.711 62.681 125.779 62.0225L124.049 64.4734C125.564 65.543 127.534 66.116 129.666 66.116V63.116ZM123.508 62.7254L120.484 70.8614L123.296 71.9066L126.32 63.7706L123.508 62.7254ZM121.029 72.6128C123.564 74.3874 127.321 75.044 130.89 75.044V72.044C127.546 72.044 124.535 71.4046 122.75 70.1552L121.029 72.6128ZM192.496 53.312L193.623 54.3012L194.513 53.2869L193.598 52.2951L192.496 53.312ZM186.52 46.832L187.622 45.8151L186.593 44.6984L185.489 45.7423L186.52 46.832ZM165.712 42.8V41.3H163.839L164.248 43.1277L165.712 42.8ZM195.016 42.8V44.3H196.405L196.511 42.915L195.016 42.8ZM184.648 36.248V37.748H186.41L186.128 36.0085L184.648 36.248ZM165.568 36.248L164.086 36.0119L163.81 37.748H165.568V36.248ZM196.732 39.776C196.732 33.1788 194.396 27.7521 190.455 23.9777C186.524 20.2125 181.096 18.188 175.072 18.188V21.188C180.423 21.188 185.076 22.9795 188.38 26.1443C191.675 29.2999 193.732 33.9172 193.732 39.776H196.732ZM175.072 18.188C162.496 18.188 152.908 27.1523 152.908 39.632H155.908C155.908 28.9277 164.032 21.188 175.072 21.188V18.188ZM152.908 39.632C152.908 45.7874 155.244 51.1817 159.422 55.0276C163.592 58.8667 169.5 61.076 176.512 61.076V58.076C170.132 58.076 164.987 56.0733 161.454 52.8204C157.927 49.5743 155.908 44.9966 155.908 39.632H152.908ZM176.512 61.076C183.812 61.076 189.67 58.8079 193.623 54.3012L191.368 52.3228C188.121 56.0241 183.18 58.076 176.512 58.076V61.076ZM193.598 52.2951L187.622 45.8151L185.417 47.8489L191.393 54.3289L193.598 52.2951ZM185.489 45.7423C183.112 47.9912 180.532 49.076 176.8 49.076V52.076C181.276 52.076 184.6 50.7128 187.551 47.9217L185.489 45.7423ZM176.8 49.076C171.437 49.076 168.07 46.4658 167.176 42.4723L164.248 43.1277C165.514 48.7822 170.354 52.076 176.8 52.076V49.076ZM165.712 44.3H195.016V41.3H165.712V44.3ZM196.511 42.915C196.575 42.0882 196.732 40.7152 196.732 39.776H193.732C193.732 40.5648 193.601 41.6398 193.52 42.685L196.511 42.915ZM175.144 29.684C179.446 29.684 182.492 32.3162 183.167 36.4875L186.128 36.0085C185.219 30.3878 180.922 26.684 175.144 26.684V29.684ZM184.648 34.748H165.568V37.748H184.648V34.748ZM167.049 36.4841C167.395 34.3167 168.35 32.6389 169.702 31.5002C171.055 30.3603 172.897 29.684 175.144 29.684V26.684C172.279 26.684 169.728 27.5557 167.769 29.2058C165.809 30.8571 164.533 33.2113 164.086 36.0119L167.049 36.4841ZM240.222 49.784L241.588 50.4035L242.163 49.1344L240.94 48.4672L240.222 49.784ZM231.51 45.032L232.228 43.7152L230.923 43.0036L230.2 44.3014L231.51 45.032ZM231.51 34.232L230.206 34.9735L230.93 36.2464L232.219 35.5534L231.51 34.232ZM240.222 29.552L240.931 30.8734L242.156 30.2154L241.593 28.9442L240.222 29.552ZM222.87 61.076C231.447 61.076 238.481 57.2541 241.588 50.4035L238.856 49.1645C236.346 54.6979 230.564 58.076 222.87 58.076V61.076ZM240.94 48.4672L232.228 43.7152L230.791 46.3488L239.503 51.1008L240.94 48.4672ZM230.2 44.3014C228.378 47.5675 225.785 48.86 222.798 48.86V51.86C226.866 51.86 230.465 49.9845 232.82 45.7626L230.2 44.3014ZM222.798 48.86C220.307 48.86 218.166 47.998 216.652 46.476C215.142 44.9586 214.146 42.6758 214.146 39.632H211.146C211.146 43.3562 212.381 46.4374 214.525 48.592C216.665 50.742 219.601 51.86 222.798 51.86V48.86ZM214.146 39.632C214.146 36.5882 215.142 34.3054 216.652 32.7881C218.166 31.266 220.307 30.404 222.798 30.404V27.404C219.601 27.404 216.665 28.522 214.525 30.6719C212.381 32.8266 211.146 35.9078 211.146 39.632H214.146ZM222.798 30.404C225.77 30.404 228.376 31.7557 230.206 34.9735L232.814 33.4905C230.467 29.3643 226.882 27.404 222.798 27.404V30.404ZM232.219 35.5534L240.931 30.8734L239.512 28.2306L230.8 32.9106L232.219 35.5534ZM241.593 28.9442C238.486 21.934 231.44 18.188 222.87 18.188V21.188C230.571 21.188 236.341 24.498 238.85 30.1598L241.593 28.9442ZM222.87 18.188C209.558 18.188 199.77 27.0277 199.77 39.632H202.77C202.77 28.9083 210.982 21.188 222.87 21.188V18.188ZM199.77 39.632C199.77 52.2363 209.558 61.076 222.87 61.076V58.076C210.982 58.076 202.77 50.3557 202.77 39.632H199.77ZM270.651 49.208L272.053 48.6729L271.336 46.7961L269.74 48.0165L270.651 49.208ZM261.291 29.768V28.268H259.791V29.768H261.291ZM270.939 29.768V31.268H272.439V29.768H270.939ZM270.939 21.128H272.439V19.628H270.939V21.128ZM261.291 21.128H259.791V22.628H261.291V21.128ZM261.291 11.696H262.791V10.196H261.291V11.696ZM250.059 11.696V10.196H248.559V11.696H250.059ZM250.059 21.128V22.628H251.559V21.128H250.059ZM244.083 21.128V19.628H242.583V21.128H244.083ZM244.083 29.768H242.583V31.268H244.083V29.768ZM250.059 29.768H251.559V28.268H250.059V29.768ZM273.675 57.128L274.551 58.346L275.488 57.6719L275.077 56.5929L273.675 57.128ZM269.74 48.0165C268.814 48.7248 267.49 49.148 266.115 49.148V52.148C268.052 52.148 270.041 51.5632 271.562 50.3995L269.74 48.0165ZM266.115 49.148C264.902 49.148 264.129 48.794 263.652 48.2961C263.167 47.7897 262.791 46.9292 262.791 45.536H259.791C259.791 47.4548 260.316 49.1503 261.486 50.3719C262.665 51.602 264.304 52.148 266.115 52.148V49.148ZM262.791 45.536V29.768H259.791V45.536H262.791ZM261.291 31.268H270.939V28.268H261.291V31.268ZM272.439 29.768V21.128H269.439V29.768H272.439ZM270.939 19.628H261.291V22.628H270.939V19.628ZM262.791 21.128V11.696H259.791V21.128H262.791ZM261.291 10.196H250.059V13.196H261.291V10.196ZM248.559 11.696V21.128H251.559V11.696H248.559ZM250.059 19.628H244.083V22.628H250.059V19.628ZM242.583 21.128V29.768H245.583V21.128H242.583ZM244.083 31.268H250.059V28.268H244.083V31.268ZM248.559 29.768V45.68H251.559V29.768H248.559ZM248.559 45.68C248.559 50.5775 249.982 54.4969 252.84 57.1779C255.682 59.8439 259.72 61.076 264.531 61.076V58.076C260.199 58.076 257.001 56.9681 254.892 54.9901C252.8 53.0271 251.559 49.9985 251.559 45.68H248.559ZM264.531 61.076C268.167 61.076 271.901 60.2506 274.551 58.346L272.8 55.91C270.842 57.3174 267.807 58.076 264.531 58.076V61.076ZM275.077 56.5929L272.053 48.6729L269.25 49.743L272.274 57.6631L275.077 56.5929ZM307.7 31.064L306.961 32.3694L308.371 33.1675L309.059 31.7003L307.7 31.064ZM311.444 23.072L312.803 23.7083L313.382 22.4716L312.205 21.7791L311.444 23.072ZM281.42 47.336L282.234 46.0759L280.786 45.1406L280.06 46.7043L281.42 47.336ZM277.676 55.4L276.316 54.7683L275.772 55.9402L276.85 56.6519L277.676 55.4ZM294.452 61.076C300.446 61.076 305.35 59.7572 308.801 57.3503C312.297 54.9127 314.24 51.3898 314.24 47.264H311.24C311.24 50.3382 309.836 52.9713 307.085 54.8897C304.29 56.8388 300.05 58.076 294.452 58.076V61.076ZM314.24 47.264C314.24 42.9883 312.565 40.0779 309.985 38.1383C307.504 36.2731 304.293 35.3865 301.326 34.8114C299.83 34.5214 298.329 34.2997 296.978 34.0865C295.603 33.8697 294.391 33.6628 293.373 33.3988C292.334 33.1292 291.654 32.8369 291.256 32.5327C290.93 32.2839 290.84 32.0764 290.84 31.784H287.84C287.84 33.1476 288.482 34.1888 289.435 34.9171C290.317 35.5899 291.465 36.0031 292.62 36.3027C293.796 36.6079 295.143 36.8342 296.51 37.0499C297.901 37.2693 299.326 37.4796 300.755 37.7566C303.638 38.3155 306.276 39.1029 308.183 40.5362C309.99 41.8951 311.24 43.9077 311.24 47.264H314.24ZM290.84 31.784C290.84 31.421 290.99 30.976 291.777 30.5402C292.632 30.0668 294.142 29.684 296.54 29.684V26.684C293.899 26.684 291.809 27.0932 290.323 27.9158C288.77 28.776 287.84 30.131 287.84 31.784H290.84ZM296.54 29.684C299.856 29.684 303.408 30.3581 306.961 32.3694L308.439 29.7586C304.36 27.4499 300.281 26.684 296.54 26.684V29.684ZM309.059 31.7003L312.803 23.7083L310.086 22.4357L306.342 30.4277L309.059 31.7003ZM312.205 21.7791C308.224 19.4376 302.028 18.188 296.54 18.188V21.188C301.709 21.188 307.32 22.3864 310.684 24.3649L312.205 21.7791ZM296.54 18.188C290.679 18.188 285.859 19.5295 282.46 21.9815C279.019 24.4633 277.112 28.0383 277.112 32.216H280.112C280.112 29.0497 281.517 26.3607 284.215 24.4145C286.954 22.4385 291.097 21.188 296.54 21.188V18.188ZM277.112 32.216C277.112 36.5367 278.78 39.4831 281.36 41.4458C283.845 43.335 287.06 44.2243 290.033 44.7868C291.534 45.0707 293.034 45.2813 294.39 45.4809C295.768 45.6837 296.984 45.8735 298.007 46.1184C299.053 46.3689 299.735 46.642 300.132 46.9273C300.453 47.1577 300.512 47.327 300.512 47.552H303.512C303.512 46.193 302.84 45.1788 301.882 44.4904C300.999 43.8568 299.853 43.4758 298.705 43.2009C297.534 42.9204 296.191 42.7136 294.827 42.5128C293.441 42.3089 292.016 42.1088 290.591 41.8392C287.714 41.2947 285.08 40.5055 283.177 39.0579C281.37 37.6839 280.112 35.6353 280.112 32.216H277.112ZM300.512 47.552C300.512 47.8597 300.446 48.0713 300.347 48.2339C300.246 48.3992 300.057 48.6022 299.68 48.806C298.876 49.2398 297.396 49.58 294.884 49.58V52.58C297.557 52.58 299.64 52.2362 301.105 51.446C301.861 51.0378 302.483 50.4938 302.908 49.7951C303.336 49.0937 303.512 48.3243 303.512 47.552H300.512ZM294.884 49.58C290.393 49.58 285.425 48.1369 282.234 46.0759L280.606 48.5961C284.327 50.9991 289.871 52.58 294.884 52.58V49.58ZM280.06 46.7043L276.316 54.7683L279.037 56.0317L282.781 47.9677L280.06 46.7043ZM276.85 56.6519C280.763 59.2343 287.699 61.076 294.452 61.076V58.076C288.101 58.076 281.79 56.3177 278.503 54.1481L276.85 56.6519Z" fill="white"/>
</svg>
