<svg width="259" height="62" viewBox="0 0 259 62" fill="none" xmlns="http://www.w3.org/2000/svg">
<path d="M12.912 25.376H11.412V29.9709L14.1231 26.261L12.912 25.376ZM12.912 20.264H14.412V18.764H12.912V20.264ZM2.184 20.264V18.764H0.684V20.264H2.184ZM2.184 59H0.684V60.5H2.184V59ZM13.416 59V60.5H14.916V59H13.416ZM26.232 30.056L26.117 31.5516L27.732 31.6758V30.056H26.232ZM26.232 19.688H27.732V18.188H26.232V19.688ZM14.412 25.376V20.264H11.412V25.376H14.412ZM12.912 18.764H2.184V21.764H12.912V18.764ZM0.684 20.264V59H3.684V20.264H0.684ZM2.184 60.5H13.416V57.5H2.184V60.5ZM14.916 59V40.712H11.916V59H14.916ZM14.916 40.712C14.916 37.2757 15.8618 35.0109 17.2946 33.5996C18.7327 32.1831 20.8789 31.412 23.712 31.412V28.412C20.3531 28.412 17.3513 29.3329 15.1894 31.4624C13.0222 33.5971 11.916 36.7323 11.916 40.712H14.916ZM23.712 31.412C24.5019 31.412 25.1424 31.4766 26.117 31.5516L26.347 28.5604C25.4496 28.4914 24.6501 28.412 23.712 28.412V31.412ZM27.732 30.056V19.688H24.732V30.056H27.732ZM26.232 18.188C19.9384 18.188 14.8026 20.2466 11.7009 24.491L14.1231 26.261C16.4934 23.0174 20.5736 21.188 26.232 21.188V18.188ZM69.207 53.312L70.3346 54.3012L71.2243 53.2869L70.3097 52.2951L69.207 53.312ZM63.231 46.832L64.3337 45.8151L63.3038 44.6984L62.2002 45.7423L63.231 46.832ZM42.423 42.8V41.3H40.55L40.9592 43.1277L42.423 42.8ZM71.727 42.8V44.3H73.1161L73.2226 42.915L71.727 42.8ZM61.359 36.248V37.748H63.1211L62.8398 36.0085L61.359 36.248ZM42.279 36.248L40.7977 36.0119L40.5209 37.748H42.279V36.248ZM73.443 39.776C73.443 33.1788 71.1076 27.7521 67.1665 23.9777C63.2351 20.2125 57.8075 18.188 51.783 18.188V21.188C57.1345 21.188 61.7869 22.9795 65.0915 26.1443C68.3864 29.2999 70.443 33.9172 70.443 39.776H73.443ZM51.783 18.188C39.2071 18.188 29.619 27.1523 29.619 39.632H32.619C32.619 28.9277 40.7429 21.188 51.783 21.188V18.188ZM29.619 39.632C29.619 45.7874 31.9553 51.1817 36.1331 55.0276C40.3035 58.8667 46.2111 61.076 53.223 61.076V58.076C46.8429 58.076 41.6985 56.0733 38.1649 52.8204C34.6387 49.5743 32.619 44.9966 32.619 39.632H29.619ZM53.223 61.076C60.5229 61.076 66.3813 58.8079 70.3346 54.3012L68.0794 52.3228C64.8327 56.0241 59.8911 58.076 53.223 58.076V61.076ZM70.3097 52.2951L64.3337 45.8151L62.1283 47.8489L68.1043 54.3289L70.3097 52.2951ZM62.2002 45.7423C59.8228 47.9912 57.2428 49.076 53.511 49.076V52.076C57.9872 52.076 61.3112 50.7128 64.2618 47.9217L62.2002 45.7423ZM53.511 49.076C48.1486 49.076 44.7808 46.4658 43.8868 42.4723L40.9592 43.1277C42.2252 48.7822 47.0654 52.076 53.511 52.076V49.076ZM42.423 44.3H71.727V41.3H42.423V44.3ZM73.2226 42.915C73.2862 42.0882 73.443 40.7152 73.443 39.776H70.443C70.443 40.5648 70.3118 41.6398 70.2314 42.685L73.2226 42.915ZM51.855 29.684C56.1572 29.684 59.2035 32.3162 59.8783 36.4875L62.8398 36.0085C61.9305 30.3878 57.6328 26.684 51.855 26.684V29.684ZM61.359 34.748H42.279V37.748H61.359V34.748ZM43.7603 36.4841C44.1058 34.3167 45.0617 32.6389 46.4134 31.5002C47.7666 30.3603 49.6079 29.684 51.855 29.684V26.684C48.9901 26.684 46.4394 27.5557 44.4806 29.2058C42.5203 30.8571 41.2442 33.2113 40.7977 36.0119L43.7603 36.4841ZM107.806 20.264V18.764H106.81L106.423 19.6822L107.806 20.264ZM96.7178 46.616L95.3285 47.1816L96.6949 50.538L98.1003 47.1977L96.7178 46.616ZM85.9897 20.264L87.379 19.6984L86.9986 18.764H85.9897V20.264ZM74.3978 20.264V18.764H72.1407L73.0148 20.8449L74.3978 20.264ZM90.6697 59L89.2868 59.5809L89.6729 60.5H90.6697V59ZM102.262 59V60.5H103.257L103.644 59.5831L102.262 59ZM118.606 20.264L119.988 20.8471L120.867 18.764H118.606V20.264ZM106.423 19.6822L95.3352 46.0342L98.1003 47.1977L109.188 20.8457L106.423 19.6822ZM98.107 46.0504L87.379 19.6984L84.6005 20.8296L95.3285 47.1816L98.107 46.0504ZM85.9897 18.764H74.3978V21.764H85.9897V18.764ZM73.0148 20.8449L89.2868 59.5809L92.0527 58.4191L75.7807 19.6831L73.0148 20.8449ZM90.6697 60.5H102.262V57.5H90.6697V60.5ZM103.644 59.5831L119.988 20.8471L117.224 19.6809L100.88 58.4169L103.644 59.5831ZM118.606 18.764H107.806V21.764H118.606V18.764ZM124.629 59H123.129V60.5H124.629V59ZM135.861 59V60.5H137.361V59H135.861ZM135.861 20.264H137.361V18.764H135.861V20.264ZM124.629 20.264V18.764H123.129V20.264H124.629ZM130.245 16.364C132.665 16.364 134.794 15.5669 136.331 14.1203C137.873 12.6692 138.729 10.6462 138.729 8.384H135.729C135.729 9.8658 135.181 11.0828 134.275 11.9357C133.364 12.7931 132.001 13.364 130.245 13.364V16.364ZM138.729 8.384C138.729 3.92865 135.067 0.835995 130.245 0.835995V3.83599C133.775 3.83599 135.729 5.92735 135.729 8.384H138.729ZM130.245 0.835995C125.362 0.835995 121.761 4.12698 121.761 8.6H124.761C124.761 6.01702 126.776 3.83599 130.245 3.83599V0.835995ZM121.761 8.6C121.761 13.073 125.362 16.364 130.245 16.364V13.364C126.776 13.364 124.761 11.183 124.761 8.6H121.761ZM124.629 60.5H135.861V57.5H124.629V60.5ZM137.361 59V20.264H134.361V59H137.361ZM135.861 18.764H124.629V21.764H135.861V18.764ZM123.129 20.264V59H126.129V20.264H123.129ZM182.933 53.312L184.061 54.3012L184.951 53.2869L184.036 52.2951L182.933 53.312ZM176.957 46.832L178.06 45.8151L177.03 44.6984L175.926 45.7423L176.957 46.832ZM156.149 42.8V41.3H154.276L154.685 43.1277L156.149 42.8ZM185.453 42.8V44.3H186.842L186.949 42.915L185.453 42.8ZM175.085 36.248V37.748H176.847L176.566 36.0085L175.085 36.248ZM156.005 36.248L154.524 36.0119L154.247 37.748H156.005V36.248ZM187.169 39.776C187.169 33.1788 184.834 27.7521 180.893 23.9777C176.961 20.2125 171.534 18.188 165.509 18.188V21.188C170.861 21.188 175.513 22.9795 178.818 26.1443C182.113 29.2999 184.169 33.9172 184.169 39.776H187.169ZM165.509 18.188C152.933 18.188 143.345 27.1523 143.345 39.632H146.345C146.345 28.9277 154.469 21.188 165.509 21.188V18.188ZM143.345 39.632C143.345 45.7874 145.682 51.1817 149.859 55.0276C154.03 58.8667 159.937 61.076 166.949 61.076V58.076C160.569 58.076 155.425 56.0733 151.891 52.8204C148.365 49.5743 146.345 44.9966 146.345 39.632H143.345ZM166.949 61.076C174.249 61.076 180.108 58.8079 184.061 54.3012L181.806 52.3228C178.559 56.0241 173.617 58.076 166.949 58.076V61.076ZM184.036 52.2951L178.06 45.8151L175.855 47.8489L181.831 54.3289L184.036 52.2951ZM175.926 45.7423C173.549 47.9912 170.969 49.076 167.237 49.076V52.076C171.713 52.076 175.037 50.7128 177.988 47.9217L175.926 45.7423ZM167.237 49.076C161.875 49.076 158.507 46.4658 157.613 42.4723L154.685 43.1277C155.951 48.7822 160.792 52.076 167.237 52.076V49.076ZM156.149 44.3H185.453V41.3H156.149V44.3ZM186.949 42.915C187.012 42.0882 187.169 40.7152 187.169 39.776H184.169C184.169 40.5648 184.038 41.6398 183.958 42.685L186.949 42.915ZM165.581 29.684C169.883 29.684 172.93 32.3162 173.604 36.4875L176.566 36.0085C175.657 30.3878 171.359 26.684 165.581 26.684V29.684ZM175.085 34.748H156.005V37.748H175.085V34.748ZM157.487 36.4841C157.832 34.3167 158.788 32.6389 160.14 31.5002C161.493 30.3603 163.334 29.684 165.581 29.684V26.684C162.716 26.684 160.166 27.5557 158.207 29.2058C156.247 30.8571 154.97 33.2113 154.524 36.0119L157.487 36.4841ZM246.156 20.264V18.764H245.102L244.745 19.7561L246.156 20.264ZM236.724 46.472L235.309 46.9696L236.708 50.9471L238.135 46.9799L236.724 46.472ZM227.508 20.264L228.923 19.7664L228.571 18.764H227.508V20.264ZM218.004 20.264V18.764H216.952L216.594 19.7526L218.004 20.264ZM208.5 46.472L207.084 46.9661L208.473 50.9472L209.91 46.9834L208.5 46.472ZM199.356 20.264L200.772 19.7699L200.421 18.764H199.356V20.264ZM188.772 20.264V18.764H186.637L187.361 20.7728L188.772 20.264ZM202.74 59L201.329 59.5088L201.686 60.5H202.74V59ZM213.54 59V60.5H214.58L214.945 59.5258L213.54 59ZM222.54 34.952L223.95 34.4411L222.563 30.6113L221.135 34.4262L222.54 34.952ZM231.252 59L229.842 59.5109L230.2 60.5H231.252V59ZM242.052 59V60.5H243.104L243.462 59.5111L242.052 59ZM256.092 20.264L257.502 20.7751L258.231 18.764H256.092V20.264ZM244.745 19.7561L235.313 45.9641L238.135 46.9799L247.567 20.7719L244.745 19.7561ZM238.139 45.9744L228.923 19.7664L226.093 20.7616L235.309 46.9696L238.139 45.9744ZM227.508 18.764H218.004V21.764H227.508V18.764ZM216.594 19.7526L207.09 45.9606L209.91 46.9834L219.414 20.7754L216.594 19.7526ZM209.916 45.9779L200.772 19.7699L197.94 20.7581L207.084 46.9661L209.916 45.9779ZM199.356 18.764H188.772V21.764H199.356V18.764ZM187.361 20.7728L201.329 59.5088L204.151 58.4912L190.183 19.7552L187.361 20.7728ZM202.74 60.5H213.54V57.5H202.74V60.5ZM214.945 59.5258L223.945 35.4778L221.135 34.4262L212.135 58.4742L214.945 59.5258ZM221.13 35.4629L229.842 59.5109L232.662 58.4891L223.95 34.4411L221.13 35.4629ZM231.252 60.5H242.052V57.5H231.252V60.5ZM243.462 59.5111L257.502 20.7751L254.682 19.7529L240.642 58.4889L243.462 59.5111ZM256.092 18.764H246.156V21.764H256.092V18.764Z" fill="black"/>
</svg>
