<svg width="342" height="72" viewBox="0 0 342 72" fill="none" xmlns="http://www.w3.org/2000/svg">
<path d="M28.144 45.208L29.5453 44.6729L28.8287 42.7961L27.2328 44.0165L28.144 45.208ZM18.784 25.768V24.268H17.284V25.768H18.784ZM28.432 25.768V27.268H29.932V25.768H28.432ZM28.432 17.128H29.932V15.628H28.432V17.128ZM18.784 17.128H17.284V18.628H18.784V17.128ZM18.784 7.696H20.284V6.196H18.784V7.696ZM7.552 7.696V6.196H6.052V7.696H7.552ZM7.552 17.128V18.628H9.052V17.128H7.552ZM1.576 17.128V15.628H0.076V17.128H1.576ZM1.576 25.768H0.076V27.268H1.576V25.768ZM7.552 25.768H9.052V24.268H7.552V25.768ZM31.168 53.128L32.0435 54.346L32.9813 53.6719L32.5693 52.5929L31.168 53.128ZM27.2328 44.0165C26.3065 44.7248 24.9831 45.148 23.608 45.148V48.148C25.5449 48.148 27.5335 47.5632 29.0552 46.3995L27.2328 44.0165ZM23.608 45.148C22.395 45.148 21.6221 44.794 21.145 44.2961C20.6596 43.7897 20.284 42.9292 20.284 41.536H17.284C17.284 43.4548 17.8084 45.1503 18.979 46.3719C20.1579 47.602 21.797 48.148 23.608 48.148V45.148ZM20.284 41.536V25.768H17.284V41.536H20.284ZM18.784 27.268H28.432V24.268H18.784V27.268ZM29.932 25.768V17.128H26.932V25.768H29.932ZM28.432 15.628H18.784V18.628H28.432V15.628ZM20.284 17.128V7.696H17.284V17.128H20.284ZM18.784 6.196H7.552V9.196H18.784V6.196ZM6.052 7.696V17.128H9.052V7.696H6.052ZM7.552 15.628H1.576V18.628H7.552V15.628ZM0.076 17.128V25.768H3.076V17.128H0.076ZM1.576 27.268H7.552V24.268H1.576V27.268ZM6.052 25.768V41.68H9.052V25.768H6.052ZM6.052 41.68C6.052 46.5775 7.47502 50.4969 10.3327 53.1779C13.1743 55.8439 17.2126 57.076 22.024 57.076V54.076C17.6914 54.076 14.4937 52.9681 12.3853 50.9901C10.293 49.0271 9.052 45.9985 9.052 41.68H6.052ZM22.024 57.076C25.6601 57.076 29.3936 56.2506 32.0435 54.346L30.2925 51.91C28.3344 53.3174 25.2999 54.076 22.024 54.076V57.076ZM32.5693 52.5929L29.5453 44.6729L26.7427 45.7431L29.7667 53.6631L32.5693 52.5929ZM56.1497 57.076C69.1945 57.076 78.8898 48.217 78.8898 35.632H75.8898C75.8898 46.375 67.729 54.076 56.1497 54.076V57.076ZM78.8898 35.632C78.8898 23.047 69.1945 14.188 56.1497 14.188V17.188C67.729 17.188 75.8898 24.889 75.8898 35.632H78.8898ZM56.1497 14.188C43.1119 14.188 33.3377 23.0405 33.3377 35.632H36.3377C36.3377 24.8955 44.5636 17.188 56.1497 17.188V14.188ZM33.3377 35.632C33.3377 48.2235 43.1119 57.076 56.1497 57.076V54.076C44.5636 54.076 36.3377 46.3685 36.3377 35.632H33.3377ZM56.1497 44.86C53.7099 44.86 51.6282 43.9905 50.1547 42.4649C48.6814 40.9396 47.7138 38.6506 47.7138 35.632H44.7138C44.7138 39.3094 45.9061 42.3844 47.9968 44.5491C50.0873 46.7135 52.9736 47.86 56.1497 47.86V44.86ZM47.7138 35.632C47.7138 32.6134 48.6814 30.3244 50.1547 28.7991C51.6282 27.2735 53.7099 26.404 56.1497 26.404V23.404C52.9736 23.404 50.0873 24.5505 47.9968 26.7149C45.9061 28.8796 44.7138 31.9546 44.7138 35.632H47.7138ZM56.1497 26.404C58.5883 26.404 60.6491 27.2723 62.1036 28.7936C63.5596 30.3165 64.5138 32.6063 64.5138 35.632H67.5138C67.5138 31.9617 66.3439 28.8875 64.2719 26.7204C62.1984 24.5517 59.3272 23.404 56.1497 23.404V26.404ZM64.5138 35.632C64.5138 38.6577 63.5596 40.9475 62.1036 42.4704C60.6491 43.9917 58.5883 44.86 56.1497 44.86V47.86C59.3272 47.86 62.1984 46.7123 64.2719 44.5436C66.3439 42.3765 67.5138 39.3023 67.5138 35.632H64.5138ZM115.641 16.264V14.764H114.141V16.264H115.641ZM115.641 21.232L114.464 22.1607L117.141 25.5571V21.232H115.641ZM115.065 48.304H116.565V44.4305L113.957 47.2938L115.065 48.304ZM90.0094 56.152L90.9496 54.9832L89.5605 53.8659L88.6971 55.4255L90.0094 56.152ZM85.5454 64.216L84.2331 63.4895L83.6116 64.6122L84.6245 65.4L85.5454 64.216ZM126.297 16.264H127.797V14.764H126.297V16.264ZM114.141 16.264V21.232H117.141V16.264H114.141ZM116.819 20.3033C113.518 16.1163 108.569 14.188 102.825 14.188V17.188C107.882 17.188 111.861 18.8597 114.464 22.1607L116.819 20.3033ZM102.825 14.188C91.3684 14.188 81.9574 22.1795 81.9574 34.408H84.9574C84.9574 24.0285 92.8264 17.188 102.825 17.188V14.188ZM81.9574 34.408C81.9574 46.6365 91.3684 54.628 102.825 54.628V51.628C92.8264 51.628 84.9574 44.7875 84.9574 34.408H81.9574ZM102.825 54.628C108.183 54.628 112.875 52.9356 116.174 49.3142L113.957 47.2938C111.352 50.1524 107.547 51.628 102.825 51.628V54.628ZM113.565 48.304V49.96H116.565V48.304H113.565ZM113.565 49.96C113.565 53.2243 112.759 55.4018 111.311 56.7869C109.848 58.1854 107.453 59.044 103.689 59.044V62.044C107.845 62.044 111.139 61.1026 113.384 58.9551C115.644 56.7942 116.565 53.6797 116.565 49.96H113.565ZM103.689 59.044C99.001 59.044 93.9502 57.3967 90.9496 54.9832L89.0693 57.3208C92.6926 60.2353 98.4419 62.044 103.689 62.044V59.044ZM88.6971 55.4255L84.2331 63.4895L86.8578 64.9425L91.3218 56.8785L88.6971 55.4255ZM84.6245 65.4C89.521 69.2084 97.0244 71.044 104.553 71.044V68.044C97.3945 68.044 90.6419 66.2796 86.4663 63.032L84.6245 65.4ZM104.553 71.044C111.75 71.044 117.618 69.3392 121.689 65.5268C125.778 61.6973 127.797 55.9819 127.797 48.52H124.797C124.797 55.4581 122.929 60.2547 119.638 63.3372C116.329 66.4368 111.325 68.044 104.553 68.044V71.044ZM127.797 48.52V16.264H124.797V48.52H127.797ZM126.297 14.764H115.641V17.764H126.297V14.764ZM105.057 42.412C102.428 42.412 100.249 41.5651 98.7445 40.1868C97.251 38.819 96.3334 36.851 96.3334 34.408H93.3334C93.3334 37.653 94.5758 40.437 96.7183 42.3992C98.8494 44.3509 101.783 45.412 105.057 45.412V42.412ZM96.3334 34.408C96.3334 31.965 97.251 29.997 98.7445 28.6292C100.249 27.2509 102.428 26.404 105.057 26.404V23.404C101.783 23.404 98.8494 24.4651 96.7183 26.4168C94.5758 28.379 93.3334 31.163 93.3334 34.408H96.3334ZM105.057 26.404C107.686 26.404 109.844 27.2502 111.329 28.6241C112.804 29.9886 113.709 31.9569 113.709 34.408H116.709C116.709 31.1711 115.491 28.3874 113.366 26.4218C111.251 24.4658 108.333 23.404 105.057 23.404V26.404ZM113.709 34.408C113.709 36.8591 112.804 38.8274 111.329 40.1918C109.844 41.5658 107.686 42.412 105.057 42.412V45.412C108.333 45.412 111.251 44.3502 113.366 42.3941C115.491 40.4286 116.709 37.6449 116.709 34.408H113.709ZM173.4 49.312L174.527 50.3012L175.417 49.2869L174.502 48.2951L173.4 49.312ZM167.424 42.832L168.526 41.8151L167.496 40.6984L166.393 41.7423L167.424 42.832ZM146.616 38.8V37.3H144.743L145.152 39.1277L146.616 38.8ZM175.92 38.8V40.3H177.309L177.415 38.915L175.92 38.8ZM165.552 32.248V33.748H167.314L167.032 32.0085L165.552 32.248ZM146.472 32.248L144.99 32.0119L144.713 33.748H146.472V32.248ZM177.636 35.776C177.636 29.1788 175.3 23.7521 171.359 19.9777C167.428 16.2125 162 14.188 155.976 14.188V17.188C161.327 17.188 165.979 18.9795 169.284 22.1443C172.579 25.2999 174.636 29.9172 174.636 35.776H177.636ZM155.976 14.188C143.4 14.188 133.812 23.1523 133.812 35.632H136.812C136.812 24.9277 144.935 17.188 155.976 17.188V14.188ZM133.812 35.632C133.812 41.7874 136.148 47.1817 140.326 51.0276C144.496 54.8667 150.404 57.076 157.416 57.076V54.076C151.035 54.076 145.891 52.0733 142.357 48.8204C138.831 45.5743 136.812 40.9966 136.812 35.632H133.812ZM157.416 57.076C164.715 57.076 170.574 54.8079 174.527 50.3012L172.272 48.3228C169.025 52.0241 164.084 54.076 157.416 54.076V57.076ZM174.502 48.2951L168.526 41.8151L166.321 43.8489L172.297 50.3289L174.502 48.2951ZM166.393 41.7423C164.015 43.9912 161.435 45.076 157.704 45.076V48.076C162.18 48.076 165.504 46.7128 168.454 43.9217L166.393 41.7423ZM157.704 45.076C152.341 45.076 148.973 42.4658 148.079 38.4723L145.152 39.1277C146.418 44.7822 151.258 48.076 157.704 48.076V45.076ZM146.616 40.3H175.92V37.3H146.616V40.3ZM177.415 38.915C177.479 38.0882 177.636 36.7152 177.636 35.776H174.636C174.636 36.5648 174.504 37.6398 174.424 38.685L177.415 38.915ZM156.048 25.684C160.35 25.684 163.396 28.3162 164.071 32.4875L167.032 32.0085C166.123 26.3878 161.825 22.684 156.048 22.684V25.684ZM165.552 30.748H146.472V33.748H165.552V30.748ZM147.953 32.4841C148.298 30.3167 149.254 28.6389 150.606 27.5002C151.959 26.3603 153.8 25.684 156.048 25.684V22.684C153.183 22.684 150.632 23.5557 148.673 25.2058C146.713 26.8571 145.437 29.2113 144.99 32.0119L147.953 32.4841ZM207.013 45.208L208.415 44.6729L207.698 42.7961L206.102 44.0165L207.013 45.208ZM197.653 25.768V24.268H196.153V25.768H197.653ZM207.301 25.768V27.268H208.801V25.768H207.301ZM207.301 17.128H208.801V15.628H207.301V17.128ZM197.653 17.128H196.153V18.628H197.653V17.128ZM197.653 7.696H199.153V6.196H197.653V7.696ZM186.421 7.696V6.196H184.921V7.696H186.421ZM186.421 17.128V18.628H187.921V17.128H186.421ZM180.445 17.128V15.628H178.945V17.128H180.445ZM180.445 25.768H178.945V27.268H180.445V25.768ZM186.421 25.768H187.921V24.268H186.421V25.768ZM210.037 53.128L210.913 54.346L211.851 53.6719L211.439 52.5929L210.037 53.128ZM206.102 44.0165C205.176 44.7248 203.852 45.148 202.477 45.148V48.148C204.414 48.148 206.403 47.5632 207.925 46.3995L206.102 44.0165ZM202.477 45.148C201.264 45.148 200.491 44.794 200.014 44.2961C199.529 43.7897 199.153 42.9292 199.153 41.536H196.153C196.153 43.4548 196.678 45.1503 197.848 46.3719C199.027 47.602 200.666 48.148 202.477 48.148V45.148ZM199.153 41.536V25.768H196.153V41.536H199.153ZM197.653 27.268H207.301V24.268H197.653V27.268ZM208.801 25.768V17.128H205.801V25.768H208.801ZM207.301 15.628H197.653V18.628H207.301V15.628ZM199.153 17.128V7.696H196.153V17.128H199.153ZM197.653 6.196H186.421V9.196H197.653V6.196ZM184.921 7.696V17.128H187.921V7.696H184.921ZM186.421 15.628H180.445V18.628H186.421V15.628ZM178.945 17.128V25.768H181.945V17.128H178.945ZM180.445 27.268H186.421V24.268H180.445V27.268ZM184.921 25.768V41.68H187.921V25.768H184.921ZM184.921 41.68C184.921 46.5775 186.344 50.4969 189.202 53.1779C192.044 55.8439 196.082 57.076 200.893 57.076V54.076C196.561 54.076 193.363 52.9681 191.255 50.9901C189.162 49.0271 187.921 45.9985 187.921 41.68H184.921ZM200.893 57.076C204.529 57.076 208.263 56.2506 210.913 54.346L209.162 51.91C207.204 53.3174 204.169 54.076 200.893 54.076V57.076ZM211.439 52.5929L208.415 44.6729L205.612 45.7431L208.636 53.6631L211.439 52.5929ZM229.014 20.296H227.514V23.9173L230.075 21.3567L229.014 20.296ZM229.014 1.576H230.514V0.0759964H229.014V1.576ZM217.782 1.576V0.0759964H216.282V1.576H217.782ZM217.782 55H216.282V56.5H217.782V55ZM229.014 55V56.5H230.514V55H229.014ZM246.15 55H244.65V56.5H246.15V55ZM257.382 55V56.5H258.882V55H257.382ZM241.326 14.188C236.043 14.188 231.312 15.8769 227.954 19.2353L230.075 21.3567C232.765 18.6671 236.674 17.188 241.326 17.188V14.188ZM230.514 20.296V1.576H227.514V20.296H230.514ZM229.014 0.0759964H217.782V3.076H229.014V0.0759964ZM216.282 1.576V55H219.282V1.576H216.282ZM217.782 56.5H229.014V53.5H217.782V56.5ZM230.514 55V35.848H227.514V55H230.514ZM230.514 35.848C230.514 32.5501 231.41 30.3561 232.717 28.9927C234.017 27.6349 235.91 26.908 238.302 26.908V23.908C235.295 23.908 232.543 24.8371 230.55 26.9173C228.563 28.9919 227.514 32.0179 227.514 35.848H230.514ZM238.302 26.908C240.495 26.908 241.993 27.5345 242.97 28.6296C243.974 29.7552 244.65 31.6226 244.65 34.552H247.65C247.65 31.2174 246.886 28.5128 245.209 26.6324C243.504 24.7215 241.078 23.908 238.302 23.908V26.908ZM244.65 34.552V55H247.65V34.552H244.65ZM246.15 56.5H257.382V53.5H246.15V56.5ZM258.882 55V32.824H255.882V55H258.882ZM258.882 32.824C258.882 26.6247 257.061 21.9135 253.832 18.7556C250.612 15.6064 246.183 14.188 241.326 14.188V17.188C245.614 17.188 249.213 18.4336 251.735 20.9004C254.248 23.3585 255.882 27.2153 255.882 32.824H258.882ZM304.634 49.312L305.761 50.3012L306.651 49.2869L305.736 48.2951L304.634 49.312ZM298.658 42.832L299.76 41.8151L298.73 40.6984L297.627 41.7423L298.658 42.832ZM277.85 38.8V37.3H275.977L276.386 39.1277L277.85 38.8ZM307.154 38.8V40.3H308.543L308.649 38.915L307.154 38.8ZM296.786 32.248V33.748H298.548L298.266 32.0085L296.786 32.248ZM277.706 32.248L276.224 32.0119L275.948 33.748H277.706V32.248ZM308.87 35.776C308.87 29.1788 306.534 23.7521 302.593 19.9777C298.662 16.2125 293.234 14.188 287.21 14.188V17.188C292.561 17.188 297.214 18.9795 300.518 22.1443C303.813 25.2999 305.87 29.9172 305.87 35.776H308.87ZM287.21 14.188C274.634 14.188 265.046 23.1523 265.046 35.632H268.046C268.046 24.9277 276.169 17.188 287.21 17.188V14.188ZM265.046 35.632C265.046 41.7874 267.382 47.1817 271.56 51.0276C275.73 54.8667 281.638 57.076 288.65 57.076V54.076C282.27 54.076 277.125 52.0733 273.591 48.8204C270.065 45.5743 268.046 40.9966 268.046 35.632H265.046ZM288.65 57.076C295.949 57.076 301.808 54.8079 305.761 50.3012L303.506 48.3228C300.259 52.0241 295.318 54.076 288.65 54.076V57.076ZM305.736 48.2951L299.76 41.8151L297.555 43.8489L303.531 50.3289L305.736 48.2951ZM297.627 41.7423C295.249 43.9912 292.669 45.076 288.938 45.076V48.076C293.414 48.076 296.738 46.7128 299.688 43.9217L297.627 41.7423ZM288.938 45.076C283.575 45.076 280.207 42.4658 279.313 38.4723L276.386 39.1277C277.652 44.7822 282.492 48.076 288.938 48.076V45.076ZM277.85 40.3H307.154V37.3H277.85V40.3ZM308.649 38.915C308.713 38.0882 308.87 36.7152 308.87 35.776H305.87C305.87 36.5648 305.738 37.6398 305.658 38.685L308.649 38.915ZM287.282 25.684C291.584 25.684 294.63 28.3162 295.305 32.4875L298.266 32.0085C297.357 26.3878 293.059 22.684 287.282 22.684V25.684ZM296.786 30.748H277.706V33.748H296.786V30.748ZM279.187 32.4841C279.532 30.3167 280.488 28.6389 281.84 27.5002C283.193 26.3603 285.034 25.684 287.282 25.684V22.684C284.417 22.684 281.866 23.5557 279.907 25.2058C277.947 26.8571 276.671 29.2113 276.224 32.0119L279.187 32.4841ZM327.015 21.376H325.515V25.9709L328.227 22.261L327.015 21.376ZM327.015 16.264H328.515V14.764H327.015V16.264ZM316.287 16.264V14.764H314.787V16.264H316.287ZM316.287 55H314.787V56.5H316.287V55ZM327.519 55V56.5H329.019V55H327.519ZM340.335 26.056L340.22 27.5516L341.835 27.6758V26.056H340.335ZM340.335 15.688H341.835V14.188H340.335V15.688ZM328.515 21.376V16.264H325.515V21.376H328.515ZM327.015 14.764H316.287V17.764H327.015V14.764ZM314.787 16.264V55H317.787V16.264H314.787ZM316.287 56.5H327.519V53.5H316.287V56.5ZM329.019 55V36.712H326.019V55H329.019ZM329.019 36.712C329.019 33.2757 329.965 31.0109 331.398 29.5996C332.836 28.1831 334.982 27.412 337.815 27.412V24.412C334.457 24.412 331.455 25.3329 329.293 27.4624C327.126 29.5971 326.019 32.7323 326.019 36.712H329.019ZM337.815 27.412C338.605 27.412 339.246 27.4766 340.22 27.5516L340.45 24.5604C339.553 24.4914 338.754 24.412 337.815 24.412V27.412ZM341.835 26.056V15.688H338.835V26.056H341.835ZM340.335 14.188C334.042 14.188 328.906 16.2466 325.804 20.491L328.227 22.261C330.597 19.0174 334.677 17.188 340.335 17.188V14.188Z" fill="white"/>
</svg>
