<svg width="381" height="57" viewBox="0 0 381 57" fill="none" xmlns="http://www.w3.org/2000/svg">
<path d="M56.23 12.832L44.92 44.036H36.22L29.202 24.664L21.952 44.036H13.252L2 12.832H10.526L17.892 33.944L25.548 12.832H33.204L40.628 33.944L48.226 12.832H56.23Z" stroke="black" stroke-width="1.5"/>
<path d="M91.3128 28.55C91.3128 28.666 91.2547 29.478 91.1387 30.986H67.5328C67.9581 32.9193 68.9634 34.4467 70.5488 35.568C72.1341 36.6893 74.1061 37.25 76.4648 37.25C78.0888 37.25 79.5194 37.018 80.7568 36.554C82.0328 36.0513 83.2121 35.278 84.2948 34.234L89.1087 39.454C86.1701 42.818 81.8781 44.5 76.2327 44.5C72.7141 44.5 69.6014 43.8233 66.8948 42.47C64.1881 41.078 62.1001 39.164 60.6307 36.728C59.1614 34.292 58.4268 31.5273 58.4268 28.434C58.4268 25.3793 59.1421 22.634 60.5728 20.198C62.0421 17.7233 64.0334 15.8093 66.5468 14.456C69.0988 13.064 71.9408 12.368 75.0728 12.368C78.1274 12.368 80.8921 13.0253 83.3668 14.34C85.8414 15.6547 87.7748 17.5493 89.1668 20.024C90.5974 22.46 91.3128 25.302 91.3128 28.55ZM75.1308 19.212C73.0814 19.212 71.3608 19.792 69.9688 20.952C68.5768 22.112 67.7261 23.6973 67.4167 25.708H82.7868C82.4774 23.736 81.6267 22.17 80.2347 21.01C78.8427 19.8113 77.1414 19.212 75.1308 19.212Z" stroke="black" stroke-width="1.5"/>
<path d="M131.162 44.5C127.837 44.5 124.84 43.8233 122.172 42.47C119.543 41.078 117.474 39.164 115.966 36.728C114.497 34.292 113.762 31.5273 113.762 28.434C113.762 25.3407 114.497 22.576 115.966 20.14C117.474 17.704 119.543 15.8093 122.172 14.456C124.84 13.064 127.837 12.368 131.162 12.368C134.449 12.368 137.31 13.064 139.746 14.456C142.221 15.8093 144.019 17.762 145.14 20.314L138.122 24.084C136.498 21.2227 134.159 19.792 131.104 19.792C128.746 19.792 126.793 20.5653 125.246 22.112C123.7 23.6587 122.926 25.766 122.926 28.434C122.926 31.102 123.7 33.2093 125.246 34.756C126.793 36.3027 128.746 37.076 131.104 37.076C134.198 37.076 136.537 35.6453 138.122 32.784L145.14 36.612C144.019 39.0867 142.221 41.02 139.746 42.412C137.31 43.804 134.449 44.5 131.162 44.5Z" stroke="black" stroke-width="1.5"/>
<path d="M164.096 12.368C168.929 12.368 172.641 13.528 175.232 15.848C177.823 18.1293 179.118 21.59 179.118 26.23V44.036H170.65V40.15C168.949 43.05 165.778 44.5 161.138 44.5C158.741 44.5 156.653 44.094 154.874 43.282C153.134 42.47 151.8 41.3487 150.872 39.918C149.944 38.4873 149.48 36.8633 149.48 35.046C149.48 32.146 150.563 29.8647 152.728 28.202C154.932 26.5393 158.315 25.708 162.878 25.708H170.07C170.07 23.736 169.471 22.228 168.272 21.184C167.073 20.1013 165.275 19.56 162.878 19.56C161.215 19.56 159.572 19.8307 157.948 20.372C156.363 20.8747 155.009 21.5707 153.888 22.46L150.64 16.138C152.341 14.9393 154.371 14.0113 156.73 13.354C159.127 12.6967 161.583 12.368 164.096 12.368ZM163.4 38.41C164.947 38.41 166.319 38.062 167.518 37.366C168.717 36.6313 169.567 35.568 170.07 34.176V30.986H163.864C160.152 30.986 158.296 32.204 158.296 34.64C158.296 35.8 158.741 36.728 159.63 37.424C160.558 38.0813 161.815 38.41 163.4 38.41Z" stroke="black" stroke-width="1.5"/>
<path d="M207.433 12.368C211.299 12.368 214.412 13.528 216.771 15.848C219.168 18.168 220.367 21.6093 220.367 26.172V44.036H211.319V27.564C211.319 25.0893 210.778 23.2527 209.695 22.054C208.612 20.8167 207.046 20.198 204.997 20.198C202.715 20.198 200.898 20.9133 199.545 22.344C198.191 23.736 197.515 25.824 197.515 28.608V44.036H188.467V12.832H197.109V16.486C198.307 15.1713 199.796 14.166 201.575 13.47C203.353 12.7353 205.306 12.368 207.433 12.368Z" stroke="black" stroke-width="1.5"/>
<path d="M266.28 12.368C270.147 12.368 273.259 13.528 275.618 15.848C278.015 18.168 279.214 21.6093 279.214 26.172V44.036H270.166V27.564C270.166 25.0893 269.625 23.2527 268.542 22.054C267.46 20.8167 265.894 20.198 263.844 20.198C261.563 20.198 259.746 20.9133 258.392 22.344C257.039 23.736 256.362 25.824 256.362 28.608V44.036H247.314V1H256.362V16.08C257.561 14.8813 259.011 13.9727 260.712 13.354C262.413 12.6967 264.27 12.368 266.28 12.368Z" stroke="black" stroke-width="1.5"/>
<path d="M319.482 28.55C319.482 28.666 319.424 29.478 319.308 30.986H295.702C296.127 32.9193 297.132 34.4467 298.718 35.568C300.303 36.6893 302.275 37.25 304.634 37.25C306.258 37.25 307.688 37.018 308.926 36.554C310.202 36.0513 311.381 35.278 312.464 34.234L317.278 39.454C314.339 42.818 310.047 44.5 304.402 44.5C300.883 44.5 297.77 43.8233 295.064 42.47C292.357 41.078 290.269 39.164 288.8 36.728C287.33 34.292 286.596 31.5273 286.596 28.434C286.596 25.3793 287.311 22.634 288.742 20.198C290.211 17.7233 292.202 15.8093 294.716 14.456C297.268 13.064 300.11 12.368 303.242 12.368C306.296 12.368 309.061 13.0253 311.536 14.34C314.01 15.6547 315.944 17.5493 317.336 20.024C318.766 22.46 319.482 25.302 319.482 28.55ZM303.3 19.212C301.25 19.212 299.53 19.792 298.138 20.952C296.746 22.112 295.895 23.6973 295.586 25.708H310.956C310.646 23.736 309.796 22.17 308.404 21.01C307.012 19.8113 305.31 19.212 303.3 19.212Z" stroke="black" stroke-width="1.5"/>
<path d="M326.665 1H335.713V44.036H326.665V1Z" stroke="black" stroke-width="1.5"/>
<path d="M363.715 12.368C366.615 12.368 369.244 13.0447 371.603 14.398C374 15.7127 375.875 17.588 377.229 20.024C378.582 22.4213 379.259 25.2247 379.259 28.434C379.259 31.6433 378.582 34.466 377.229 36.902C375.875 39.2993 374 41.1747 371.603 42.528C369.244 43.8427 366.615 44.5 363.715 44.5C359.732 44.5 356.6 43.2433 354.319 40.73V55.288H345.271V12.832H353.913V16.428C356.155 13.7213 359.423 12.368 363.715 12.368ZM362.149 37.076C364.469 37.076 366.363 36.3027 367.833 34.756C369.341 33.1707 370.095 31.0633 370.095 28.434C370.095 25.8047 369.341 23.7167 367.833 22.17C366.363 20.5847 364.469 19.792 362.149 19.792C359.829 19.792 357.915 20.5847 356.407 22.17C354.937 23.7167 354.203 25.8047 354.203 28.434C354.203 31.0633 354.937 33.1707 356.407 34.756C357.915 36.3027 359.829 37.076 362.149 37.076Z" stroke="black" stroke-width="1.5"/>
</svg>
