<svg width="402" height="72" viewBox="0 0 402 72" fill="none" xmlns="http://www.w3.org/2000/svg">
<path d="M71.992 4.6V3.1H70.906L70.567 4.13169L71.992 4.6ZM60.256 40.312L58.8284 40.7725L60.2428 45.1569L61.681 40.7803L60.256 40.312ZM48.736 4.6L50.1636 4.13949L49.8282 3.1H48.736V4.6ZM37.936 4.6V3.1H36.8569L36.5138 4.12305L37.936 4.6ZM26.056 40.024L24.6278 40.4826L26.0251 44.8337L27.4782 40.5009L26.056 40.024ZM14.68 4.6L16.1082 4.14136L15.7737 3.1H14.68V4.6ZM2.584 4.6V3.1H0.512248L1.15895 5.06823L2.584 4.6ZM19.144 55L17.719 55.4682L18.058 56.5H19.144V55ZM31.6 55V56.5H32.679L33.0221 55.477L31.6 55ZM43.048 20.872L44.4746 20.4085L43.0708 16.0876L41.6259 20.395L43.048 20.872ZM54.136 55L52.7094 55.4635L53.0462 56.5H54.136V55ZM66.664 55V56.5H67.7515L68.0897 55.4664L66.664 55ZM83.152 4.6L84.5777 5.06639L85.2209 3.1H83.152V4.6ZM70.567 4.13169L58.831 39.8437L61.681 40.7803L73.417 5.0683L70.567 4.13169ZM61.6836 39.8515L50.1636 4.13949L47.3084 5.0605L58.8284 40.7725L61.6836 39.8515ZM48.736 3.1H37.936V6.1H48.736V3.1ZM36.5138 4.12305L24.6338 39.5471L27.4782 40.5009L39.3582 5.07694L36.5138 4.12305ZM27.4842 39.5654L16.1082 4.14136L13.2518 5.05863L24.6278 40.4826L27.4842 39.5654ZM14.68 3.1H2.584V6.1H14.68V3.1ZM1.15895 5.06823L17.719 55.4682L20.569 54.5318L4.00905 4.13177L1.15895 5.06823ZM19.144 56.5H31.6V53.5H19.144V56.5ZM33.0221 55.477L44.4701 21.349L41.6259 20.395L30.1779 54.523L33.0221 55.477ZM41.6214 21.3355L52.7094 55.4635L55.5626 54.5365L44.4746 20.4085L41.6214 21.3355ZM54.136 56.5H66.664V53.5H54.136V56.5ZM68.0897 55.4664L84.5777 5.06639L81.7263 4.13361L65.2384 54.5336L68.0897 55.4664ZM83.152 3.1H71.992V6.1H83.152V3.1ZM117.749 16.264V14.764H116.748L116.364 15.6873L117.749 16.264ZM106.805 42.544L105.418 43.1174L106.8 46.4568L108.189 43.1207L106.805 42.544ZM95.9326 16.264L97.3186 15.6906L96.9353 14.764H95.9326V16.264ZM84.3406 16.264V14.764H82.063L82.9625 16.8564L84.3406 16.264ZM101.117 55.288L102.509 55.8451L102.74 55.2673L102.495 54.6956L101.117 55.288ZM100.973 55.648L102.347 56.2492L102.356 56.2273L102.365 56.2051L100.973 55.648ZM88.3006 58.024L89.2883 56.8951L87.8433 55.6308L86.9662 57.3388L88.3006 58.024ZM84.1966 66.016L82.8622 65.3308L82.3302 66.3667L83.202 67.1389L84.1966 66.016ZM111.053 57.376L109.672 56.7886L109.666 56.8037L109.66 56.8189L111.053 57.376ZM128.549 16.264L129.929 16.8514L130.817 14.764H128.549V16.264ZM116.364 15.6873L105.42 41.9673L108.189 43.1207L119.133 16.8407L116.364 15.6873ZM108.191 41.9706L97.3186 15.6906L94.5465 16.8374L105.418 43.1174L108.191 41.9706ZM95.9326 14.764H84.3406V17.764H95.9326V14.764ZM82.9625 16.8564L99.7385 55.8804L102.495 54.6956L85.7186 15.6716L82.9625 16.8564ZM99.7239 54.7309L99.5798 55.0909L102.365 56.2051L102.509 55.8451L99.7239 54.7309ZM99.5983 55.0468C98.8872 56.6722 98.2041 57.6141 97.485 58.1663C96.805 58.6884 95.9482 58.972 94.6366 58.972V61.972C96.4209 61.972 97.9761 61.5715 99.3121 60.5457C100.609 59.5499 101.546 58.0798 102.347 56.2492L99.5983 55.0468ZM94.6366 58.972C92.7912 58.972 90.761 58.1837 89.2883 56.8951L87.3128 59.1529C89.2962 60.8883 92.0179 61.972 94.6366 61.972V58.972ZM86.9662 57.3388L82.8622 65.3308L85.5309 66.7012L89.6349 58.7092L86.9662 57.3388ZM83.202 67.1389C86.076 69.6845 90.7928 71.044 94.9966 71.044V68.044C91.2803 68.044 87.3571 66.8115 85.1911 64.8931L83.202 67.1389ZM94.9966 71.044C98.6939 71.044 102.102 70.2981 105.1 68.1987C108.086 66.1075 110.504 62.7856 112.445 57.9331L109.66 56.8189C107.857 61.3264 105.739 64.0885 103.379 65.7413C101.031 67.3859 98.2832 68.044 94.9966 68.044V71.044ZM112.433 57.9634L129.929 16.8514L127.168 15.6766L109.672 56.7886L112.433 57.9634ZM128.549 14.764H117.749V17.764H128.549V14.764ZM145.3 20.8H143.8V24.6675L146.408 21.8114L145.3 20.8ZM145.3 16.264H146.8V14.764H145.3V16.264ZM134.572 16.264V14.764H133.072V16.264H134.572ZM134.572 55H133.072V56.5H134.572V55ZM145.804 55V56.5H147.304V55H145.804ZM162.94 55H161.44V56.5H162.94V55ZM174.172 55V56.5H175.672V55H174.172ZM158.116 14.188C152.521 14.188 147.552 16.1091 144.192 19.7886L146.408 21.8114C149.096 18.8669 153.199 17.188 158.116 17.188V14.188ZM146.8 20.8V16.264H143.8V20.8H146.8ZM145.3 14.764H134.572V17.764H145.3V14.764ZM133.072 16.264V55H136.072V16.264H133.072ZM134.572 56.5H145.804V53.5H134.572V56.5ZM147.304 55V35.848H144.304V55H147.304ZM147.304 35.848C147.304 32.5501 148.2 30.3561 149.506 28.9927C150.807 27.6349 152.699 26.908 155.092 26.908V23.908C152.084 23.908 149.333 24.8371 147.34 26.9173C145.352 28.9919 144.304 32.0179 144.304 35.848H147.304ZM155.092 26.908C157.284 26.908 158.782 27.5345 159.76 28.6296C160.764 29.7552 161.44 31.6226 161.44 34.552H164.44C164.44 31.2174 163.676 28.5128 161.998 26.6324C160.293 24.7215 157.868 23.908 155.092 23.908V26.908ZM161.44 34.552V55H164.44V34.552H161.44ZM162.94 56.5H174.172V53.5H162.94V56.5ZM175.672 55V32.824H172.672V55H175.672ZM175.672 32.824C175.672 26.6247 173.85 21.9135 170.622 18.7556C167.402 15.6064 162.972 14.188 158.116 14.188V17.188C162.404 17.188 166.002 18.4336 168.524 20.9004C171.037 23.3585 172.672 27.2153 172.672 32.824H175.672ZM214.439 1.576V0.0759964H212.939V1.576H214.439ZM214.439 20.368L213.316 21.363L215.939 24.3217V20.368H214.439ZM214.943 50.536H216.443V46.3793L213.789 49.5781L214.943 50.536ZM214.943 55H213.443V56.5H214.943V55ZM225.671 55V56.5H227.171V55H225.671ZM225.671 1.576H227.171V0.0759964H225.671V1.576ZM212.939 1.576V20.368H215.939V1.576H212.939ZM215.561 19.373C212.406 15.813 207.923 14.188 202.847 14.188V17.188C207.274 17.188 210.856 18.587 213.316 21.363L215.561 19.373ZM202.847 14.188C197.013 14.188 191.779 16.2653 188 20.035C184.216 23.8087 181.979 29.1899 181.979 35.632H184.979C184.979 29.9061 186.954 25.3153 190.118 22.159C193.287 18.9987 197.736 17.188 202.847 17.188V14.188ZM181.979 35.632C181.979 42.0741 184.216 47.4553 188 51.229C191.779 54.9987 197.013 57.076 202.847 57.076V54.076C197.736 54.076 193.287 52.2653 190.118 49.105C186.954 45.9487 184.979 41.3579 184.979 35.632H181.979ZM202.847 57.076C208.368 57.076 212.941 55.2974 216.097 51.4939L213.789 49.5781C211.329 52.5426 207.694 54.076 202.847 54.076V57.076ZM213.443 50.536V55H216.443V50.536H213.443ZM214.943 56.5H225.671V53.5H214.943V56.5ZM227.171 55V1.576H224.171V55H227.171ZM225.671 0.0759964H214.439V3.076H225.671V0.0759964ZM204.791 44.86C202.351 44.86 200.269 43.9905 198.796 42.4649C197.323 40.9396 196.355 38.6506 196.355 35.632H193.355C193.355 39.3094 194.547 42.3844 196.638 44.5491C198.729 46.7135 201.615 47.86 204.791 47.86V44.86ZM196.355 35.632C196.355 32.6134 197.323 30.3244 198.796 28.7991C200.269 27.2735 202.351 26.404 204.791 26.404V23.404C201.615 23.404 198.729 24.5505 196.638 26.7149C194.547 28.8796 193.355 31.9546 193.355 35.632H196.355ZM204.791 26.404C207.19 26.404 209.254 27.2699 210.72 28.7963C212.187 30.3227 213.155 32.6133 213.155 35.632H216.155C216.155 31.9547 214.963 28.8813 212.883 26.7177C210.804 24.5541 207.936 23.404 204.791 23.404V26.404ZM213.155 35.632C213.155 38.6507 212.187 40.9413 210.72 42.4677C209.254 43.9941 207.19 44.86 204.791 44.86V47.86C207.936 47.86 210.804 46.7099 212.883 44.5463C214.963 42.3827 216.155 39.3093 216.155 35.632H213.155ZM248.738 20.296H247.238V23.9173L249.799 21.3567L248.738 20.296ZM248.738 1.576H250.238V0.0759964H248.738V1.576ZM237.507 1.576V0.0759964H236.007V1.576H237.507ZM237.507 55H236.007V56.5H237.507V55ZM248.738 55V56.5H250.238V55H248.738ZM265.874 55H264.374V56.5H265.874V55ZM277.107 55V56.5H278.607V55H277.107ZM261.051 14.188C255.767 14.188 251.036 15.8769 247.678 19.2353L249.799 21.3567C252.489 18.6671 256.398 17.188 261.051 17.188V14.188ZM250.238 20.296V1.576H247.238V20.296H250.238ZM248.738 0.0759964H237.507V3.076H248.738V0.0759964ZM236.007 1.576V55H239.007V1.576H236.007ZM237.507 56.5H248.738V53.5H237.507V56.5ZM250.238 55V35.848H247.238V55H250.238ZM250.238 35.848C250.238 32.5501 251.134 30.3561 252.441 28.9927C253.742 27.6349 255.634 26.908 258.026 26.908V23.908C255.019 23.908 252.267 24.8371 250.274 26.9173C248.287 28.9919 247.238 32.0179 247.238 35.848H250.238ZM258.026 26.908C260.219 26.908 261.717 27.5345 262.694 28.6296C263.698 29.7552 264.374 31.6226 264.374 34.552H267.374C267.374 31.2174 266.611 28.5128 264.933 26.6324C263.228 24.7215 260.802 23.908 258.026 23.908V26.908ZM264.374 34.552V55H267.374V34.552H264.374ZM265.874 56.5H277.107V53.5H265.874V56.5ZM278.607 55V32.824H275.607V55H278.607ZM278.607 32.824C278.607 26.6247 276.785 21.9135 273.556 18.7556C270.336 15.6064 265.907 14.188 261.051 14.188V17.188C265.338 17.188 268.937 18.4336 271.459 20.9004C273.972 23.3585 275.607 27.2153 275.607 32.824H278.607ZM287.648 20.368L286.778 19.146L285.72 19.8988L286.314 21.0535L287.648 20.368ZM291.68 28.216L290.346 28.9015L291.181 30.5283L292.613 29.3902L291.68 28.216ZM311.768 32.248V33.748H313.268V32.248H311.768ZM312.488 50.176H313.988V44.6964L311.197 49.412L312.488 50.176ZM312.488 55H310.988V56.5H312.488V55ZM323 55V56.5H324.5V55H323ZM311.768 38.8H313.268V37.3H311.768V38.8ZM311.768 42.76L313.176 43.2772L313.268 43.0268V42.76H311.768ZM304.352 14.188C297.938 14.188 291.344 15.8954 286.778 19.146L288.518 21.59C292.447 18.7926 298.382 17.188 304.352 17.188V14.188ZM286.314 21.0535L290.346 28.9015L293.014 27.5305L288.982 19.6825L286.314 21.0535ZM292.613 29.3902C295.117 27.3996 299.022 26.116 302.84 26.116V23.116C298.449 23.116 293.858 24.5684 290.746 27.0418L292.613 29.3902ZM302.84 26.116C305.657 26.116 307.476 26.7724 308.578 27.7468C309.649 28.6932 310.268 30.1402 310.268 32.248H313.268C313.268 29.5318 312.447 27.1628 310.565 25.4992C308.715 23.8636 306.07 23.116 302.84 23.116V26.116ZM311.768 30.748H302.84V33.748H311.768V30.748ZM302.84 30.748C296.77 30.748 292.235 31.9638 289.187 34.2858C286.072 36.6582 284.708 40.0327 284.708 43.84H287.708C287.708 40.8073 288.755 38.3858 291.005 36.6722C293.321 34.9082 297.102 33.748 302.84 33.748V30.748ZM284.708 43.84C284.708 47.6184 286.244 50.9759 289.074 53.3652C291.886 55.7393 295.873 57.076 300.68 57.076V54.076C296.414 54.076 293.165 52.8927 291.009 51.0728C288.872 49.2681 287.708 46.7576 287.708 43.84H284.708ZM300.68 57.076C306.68 57.076 311.326 55.0846 313.779 50.94L311.197 49.412C309.474 52.3234 306.055 54.076 300.68 54.076V57.076ZM310.988 50.176V55H313.988V50.176H310.988ZM312.488 56.5H323V53.5H312.488V56.5ZM324.5 55V32.896H321.5V55H324.5ZM324.5 32.896C324.5 26.7331 322.694 21.968 319.101 18.7704C315.539 15.6009 310.46 14.188 304.352 14.188V17.188C310.051 17.188 314.297 18.5111 317.107 21.0116C319.885 23.484 321.5 27.3229 321.5 32.896H324.5ZM303.488 46.516C301.724 46.516 300.49 46.0971 299.736 45.5302C299.024 44.9947 298.652 44.2688 298.652 43.336H295.652C295.652 45.2112 296.467 46.8253 297.933 47.9278C299.357 48.9989 301.291 49.516 303.488 49.516V46.516ZM298.652 43.336C298.652 42.3877 298.933 41.7524 299.542 41.2924C300.234 40.7686 301.575 40.3 304.064 40.3V37.3C301.297 37.3 299.181 37.8034 297.732 38.8996C296.198 40.0596 295.652 41.6923 295.652 43.336H298.652ZM304.064 40.3H311.768V37.3H304.064V40.3ZM310.268 38.8V42.76H313.268V38.8H310.268ZM310.36 42.2428C309.332 45.0399 306.767 46.516 303.488 46.516V49.516C307.697 49.516 311.611 47.5361 313.176 43.2772L310.36 42.2428ZM370.245 22.024L368.984 22.8362L370.127 24.6106L371.427 22.9479L370.245 22.024ZM345.333 20.728H343.833V24.739L346.465 21.7123L345.333 20.728ZM345.333 16.264H346.833V14.764H345.333V16.264ZM334.605 16.264V14.764H333.105V16.264H334.605ZM334.605 55H333.105V56.5H334.605V55ZM345.837 55V56.5H347.337V55H345.837ZM361.677 55H360.177V56.5H361.677V55ZM372.909 55V56.5H374.409V55H372.909ZM388.821 55H387.321V56.5H388.821V55ZM400.053 55V56.5H401.553V55H400.053ZM384.213 14.188C377.974 14.188 372.476 16.7357 369.064 21.1001L371.427 22.9479C374.207 19.3923 378.788 17.188 384.213 17.188V14.188ZM371.506 21.2118C368.438 16.4484 363.299 14.188 357.501 14.188V17.188C362.504 17.188 366.58 19.1036 368.984 22.8362L371.506 21.2118ZM357.501 14.188C352.186 14.188 347.419 16.0437 344.201 19.7437L346.465 21.7123C349.008 18.7883 352.88 17.188 357.501 17.188V14.188ZM346.833 20.728V16.264H343.833V20.728H346.833ZM345.333 14.764H334.605V17.764H345.333V14.764ZM333.105 16.264V55H336.105V16.264H333.105ZM334.605 56.5H345.837V53.5H334.605V56.5ZM347.337 55V35.56H344.337V55H347.337ZM347.337 35.56C347.337 32.3453 348.157 30.2102 349.338 28.8941C350.502 27.5979 352.186 26.908 354.333 26.908V23.908C351.513 23.908 348.948 24.8381 347.106 26.8899C345.282 28.9218 344.337 31.8627 344.337 35.56H347.337ZM354.333 26.908C356.352 26.908 357.712 27.5154 358.607 28.5906C359.544 29.7162 360.177 31.5984 360.177 34.552H363.177C363.177 31.2416 362.478 28.5518 360.913 26.6714C359.306 24.7406 356.994 23.908 354.333 23.908V26.908ZM360.177 34.552V55H363.177V34.552H360.177ZM361.677 56.5H372.909V53.5H361.677V56.5ZM374.409 55V35.56H371.409V55H374.409ZM374.409 35.56C374.409 32.3451 375.229 30.2123 376.416 28.8974C377.587 27.6017 379.288 26.908 381.477 26.908V23.908C378.627 23.908 376.044 24.8343 374.19 26.8866C372.354 28.9197 371.409 31.8629 371.409 35.56H374.409ZM381.477 26.908C383.413 26.908 384.784 27.5087 385.704 28.5987C386.66 29.7307 387.321 31.616 387.321 34.552H390.321C390.321 31.224 389.579 28.5373 387.996 26.6633C386.379 24.7473 384.078 23.908 381.477 23.908V26.908ZM387.321 34.552V55H390.321V34.552H387.321ZM388.821 56.5H400.053V53.5H388.821V56.5ZM401.553 55V32.824H398.553V55H401.553ZM401.553 32.824C401.553 26.6425 399.814 21.9316 396.65 18.7673C393.489 15.6062 389.104 14.188 384.213 14.188V17.188C388.538 17.188 392.074 18.4338 394.529 20.8887C396.98 23.3404 398.553 27.1975 398.553 32.824H401.553Z" fill="white"/>
</svg>
